<svg xmlns="http://www.w3.org/2000/svg" viewBox="0 0 609.15 593.44"><defs><style>.a{fill:#ff7d00;}.a,.b,.c,.d{fill-rule:evenodd;}.b{fill:#963f1b;}.c{fill:#f57f31;}.d{fill:#fff;}</style></defs><title>logo-belka-znak</title><polygon class="a" points="159.34 258.62 162.1 256.31 164.88 253.99 166.72 251.69 168.57 249.38 170.41 246.15 171.34 243.38 171.8 241.07 172.26 238.3 171.8 236.91 171.34 235.99 170.41 235.06 169.95 235.06 169.49 235.53 168.09 238.76 167.18 240.15 166.25 241.53 165.33 242.45 163.48 244.31 161.18 245.68 158.87 247.07 156.57 248.46 153.78 249.84 151.48 250.77 147.32 252.15 142.71 253.07 139.01 253.54 135.77 253.99 131.62 253.54 125.62 249.38 120.08 244.76 115 240.6 110.38 235.99 106.69 231.37 102.98 227.21 99.76 222.59 98.37 220.29 97.44 218.44 95.14 214.28 93.29 210.12 92.83 207.82 92.38 205.97 91.44 202.27 91.44 198.58 91.44 194.88 91.9 191.66 92.38 189.8 93.29 188.42 94.22 186.11 95.6 183.81 97.91 181.96 100.22 179.64 102.98 177.34 105.77 175.03 112.68 170.87 120.54 167.17 128.85 163.94 133.47 162.56 138.54 161.17 148.24 159.32 154.72 157.94 157.94 157.48 161.63 157.48 168.57 157.02 175.03 157.02 175.95 152.86 177.34 148.7 178.72 145.01 180.11 140.86 181.96 136.69 183.81 132.54 186.57 128.39 188.89 124.69 191.66 121.46 194.43 117.77 200.89 110.83 208.74 102.98 210.13 108.06 213.83 120.07 215.68 127.92 217.05 135.77 217.97 139.47 217.97 143.63 217.97 150.55 217.05 158.4 216.13 165.33 221.22 168.1 223.53 169.49 225.83 171.79 230.45 168.57 235.53 165.33 241.99 162.56 245.23 161.17 248.92 159.79 256.77 157.48 265.08 155.63 274.33 154.25 279.4 153.78 284.48 153.33 290.49 153.33 296.03 153.33 306.65 153.78 314.04 154.71 317.27 154.71 316.35 155.63 314.96 158.4 312.19 162.56 308.5 167.64 303.89 173.64 298.34 180.11 291.87 186.58 288.64 189.8 284.94 193.03 277.1 199.04 272.94 201.81 269.25 204.58 265.08 206.9 260.93 209.2 256.77 211.05 252.16 212.89 253.08 215.2 253.54 217.97 254.01 221.21 254.01 224.44 254.01 227.68 253.54 230.91 252.16 237.38 251.24 241.07 249.85 243.84 247.55 249.84 246.15 252.61 244.31 254.92 242.91 256.78 241.07 258.62 247.07 262.77 253.54 266.93 260.93 272.47 259.08 273.86 257.23 275.24 255.85 277.55 254.46 279.4 253.54 282.17 253.08 284.94 252.16 287.71 252.16 290.94 252.16 294.18 252.16 297.41 252.61 300.65 253.54 303.87 254.46 307.57 255.85 310.8 257.23 313.57 259.55 316.81 261.39 319.58 263.71 321.89 266.48 324.2 269.25 326.05 272.47 327.89 275.71 329.28 278.94 330.66 282.17 331.58 285.87 332.05 289.57 332.5 292.79 332.5 296.48 332.5 300.19 331.58 303.42 330.66 306.65 329.28 309.88 327.89 314.04 335.29 317.74 342.21 320.5 349.6 323.27 356.52 325.58 363.45 326.98 369.91 328.36 376.39 329.27 382.85 326.05 382.38 322.81 381.92 319.58 381.92 316.35 381.92 313.11 382.38 309.88 382.85 303.89 384.69 301.11 385.62 298.34 387.01 295.57 388.39 293.26 389.78 289.1 393.01 287.25 394.85 285.41 396.7 283.56 398.55 281.72 400.86 278.94 405.94 277.55 408.25 276.63 411.02 275.71 413.79 274.78 416.56 273.4 423.03 273.4 426.26 272.94 429.96 272.94 433.65 273.4 437.81 273.86 446.12 266.01 445.2 262.31 444.73 258.15 443.81 254.46 442.89 250.77 441.96 242.91 439.19 239.22 437.34 235.53 435.5 232.29 434.11 228.6 431.8 222.6 427.65 217.05 423.48 212.44 418.87 208.29 414.72 204.58 410.09 200.89 405.02 198.12 400.4 195.35 395.32 193.04 390.24 191.19 384.69 190.26 382.38 189.35 379.61 187.97 374.07 186.57 368.99 185.65 363.45 184.73 357.91 184.28 352.83 183.81 347.29 183.81 341.75 183.81 336.66 183.81 331.58 184.28 321.42 184.73 316.34 185.65 311.73 186.57 302.49 189.35 286.33 190.74 279.4 191.66 273.86 186.12 273.4 180.57 272.94 175.03 272.01 169.95 270.62 164.41 269.24 159.34 267.85 154.25 265.54 149.17 263.69 153.78 261.85 156.57 260.47 159.34 258.62"/><polygon class="b" points="40.18 97.44 42.95 97.44 45.26 97.9 47.56 99.29 49.88 100.21 54.49 103.45 56.81 105.29 58.66 107.14 60.03 109.44 61.88 111.29 63.27 113.6 64.19 115.92 65.12 118.22 66.04 120.07 66.04 122.38 66.04 124.23 65.58 128.39 64.66 132.54 63.27 136.69 60.96 140.86 60.03 143.16 58.66 145.01 57.27 146.86 55.42 148.7 54.04 150.09 52.19 151.94 50.33 153.33 48.03 154.25 45.72 155.63 42.95 156.56 40.18 157.02 37.41 157.48 35.09 157.48 32.33 157.02 29.55 156.56 26.79 155.63 23.55 154.71 21.25 153.78 16.63 152.86 13.39 152.41 12.47 152.41 12 151.94 11.55 151.47 11.08 150.55 10.63 147.78 9.23 144.09 7.86 139.47 6.93 136.23 6.01 133.46 5.54 130.69 5.54 127.92 5.54 125.62 6.01 122.84 6.46 120.07 7.86 116.84 9.7 114.07 12.47 110.83 14.32 108.99 16.16 107.14 20.32 103.9 22.63 102.53 25.39 101.13 27.71 100.21 30.03 98.82 32.8 98.36 35.56 97.44 37.87 97.44 40.18 97.44"/><polygon class="b" points="107.14 45.72 105.77 42.95 104.84 40.64 104.38 37.87 103.92 36.48 103.92 35.09 103.92 29.09 104.38 25.86 104.84 23.09 105.77 20.31 106.69 17.54 107.61 14.78 108.99 12.47 110.38 10.15 111.76 8.31 113.6 6.92 115 6 119.16 3.69 123.77 2.31 126.54 1.38 128.85 0.92 133.93 0.46 136.7 0 139.47 0 142.24 0.46 144.55 0.46 147.32 0.92 149.63 1.85 152.41 2.77 154.72 3.69 157.49 5.54 159.79 7.39 162.1 9.7 164.41 12 166.25 14.78 168.09 18.01 169.03 20.78 169.95 23.55 171.8 29.55 173.18 33.7 174.11 36.02 174.11 36.94 174.11 37.41 174.11 38.33 173.18 39.26 171.34 41.1 168.57 44.33 165.33 48.49 163.03 51.26 161.18 53.57 158.87 55.42 156.57 56.8 154.25 58.19 151.48 59.11 148.24 60.03 145.02 60.96 141.31 60.96 136.7 60.96 131.62 60.49 126.07 59.11 120.54 56.8 118.24 55.42 115.45 54.03 113.15 52.18 110.84 50.33 108.99 48.02 107.14 45.72"/><polygon class="b" points="1.39 244.76 2.32 242.91 3.24 241.53 4.62 239.68 6.01 238.3 7.86 237.38 9.7 235.99 13.39 234.14 17.55 232.76 21.25 231.84 24.94 231.84 26.33 232.29 27.71 232.76 30.48 234.14 33.72 235.99 36.48 238.3 38.8 240.6 41.1 243.38 42.95 246.61 44.8 249.84 45.26 251.69 45.26 252.61 45.72 253.54 45.72 255.85 45.72 257.7 45.26 260 44.8 261.85 44.34 264.16 43.42 266 41.1 269.7 38.33 273.4 36.48 276.63 35.09 278.48 34.64 279.86 33.25 279.86 30.95 279.86 28.18 279.4 24.47 279.4 19.4 279.4 17.55 278.93 15.24 278.48 13.39 277.55 11.55 276.63 9.7 275.24 7.86 273.86 6.01 271.55 4.16 268.77 3.24 266.93 2.77 265.08 1.39 261.39 0.46 257.23 0 252.61 0 250.77 0.46 248.46 0.92 246.61 1.39 244.76"/><polygon class="b" points="362.99 125.62 361.6 124.69 360.68 123.3 359.76 121.46 358.83 119.61 357.45 115.92 356.99 114.07 356.99 111.76 356.99 107.6 357.45 103.9 357.91 102.53 358.38 100.68 359.76 98.36 362.07 96.05 364.39 94.21 367.15 92.36 370.38 90.51 373.62 89.59 376.85 88.66 380.55 88.21 382.39 88.21 384.24 88.66 386.09 89.13 387.93 89.59 389.78 90.51 391.62 91.44 393.02 92.83 394.39 94.21 395.78 95.59 397.16 97.44 399.93 101.13 402.25 103.45 403.63 105.29 404.09 105.75 404.57 106.22 404.09 107.14 403.17 108.99 402.25 111.76 401.33 115.45 399.48 119.61 398.55 121.46 397.63 123.3 396.24 124.69 394.87 126.07 393.02 127.46 391.17 128.84 388.86 129.77 387.46 130.23 385.62 130.23 381.93 130.69 377.78 130.69 374.07 130.23 369.93 129.31 368.08 128.39 366.24 127.92 362.99 125.62"/><polygon class="b" points="274.78 2.31 277.1 1.38 279.4 0.46 282.17 0 284.94 0 287.72 0.46 290.49 0.46 293.26 1.38 296.03 2.31 298.34 3.23 300.65 4.15 302.96 5.54 305.26 6.92 307.1 8.31 308.5 10.15 309.88 11.55 310.8 13.39 312.19 17.09 313.58 21.7 314.51 25.86 314.51 28.63 314.51 30.94 314.51 35.56 313.58 40.18 313.11 42.48 312.19 44.79 310.8 47.1 309.88 48.96 308.03 51.26 306.19 53.57 304.34 54.95 302.04 56.8 299.27 58.19 296.95 59.11 294.19 60.03 291.42 60.49 288.18 61.42 285.41 61.88 281.25 63.27 278.02 64.65 276.63 64.65 275.71 64.19 275.25 63.72 272.94 61.88 270.62 59.11 266.93 55.42 264.16 53.57 262.31 51.26 260.47 48.96 259.08 46.64 257.7 44.33 256.77 41.56 256.31 38.79 255.85 35.56 255.39 34.17 255.85 32.32 256.31 30.02 256.77 27.71 258.15 23.09 259.08 20.78 260.47 18.01 261.86 15.7 263.24 13.39 265.08 11.08 266.93 8.78 268.78 6.92 270.62 5.08 272.47 3.23 274.78 2.31"/><polygon class="a" points="352.84 394.85 356.99 391.63 360.68 387.93 362.53 385.62 364.39 383.77 367.61 378.69 370.38 373.62 372.23 370.83 373.62 367.61 376.38 361.15 377.31 357.44 378.7 353.29 380.08 349.6 381 344.98 381.93 340.82 383.32 336.21 385.16 326.05 387.01 314.96 388.4 302.95 389.78 290.02 391.17 275.71 392.09 260.47 393.47 246.61 394.87 233.22 397.16 219.37 398.55 212.44 399.93 205.5 403.63 192.11 405.49 185.65 407.78 178.72 410.1 172.26 412.41 165.8 415.19 159.32 417.95 153.33 421.18 147.32 424.42 141.31 428.11 135.31 431.8 129.31 435.96 123.76 440.11 118.22 444.74 113.15 449.36 108.06 454.44 102.98 459.51 98.36 465.05 93.75 471.06 89.13 477.07 84.97 483.07 81.28 489.99 77.58 496.92 73.89 502 71.58 507.08 69.73 511.71 67.89 516.77 66.04 521.86 64.65 526.94 63.27 531.56 61.88 536.64 60.96 541.26 60.03 545.88 59.11 554.65 58.19 563.43 57.26 571.28 57.26 579.12 57.26 585.6 57.72 591.59 58.19 597.13 58.65 601.29 59.57 604.53 60.03 606.83 60.96 608.22 61.42 608.68 62.35 609.15 62.8 609.15 63.27 608.68 64.19 607.75 65.58 604.98 67.89 599.91 71.11 593.91 76.19 590.22 79.43 586.52 83.58 582.36 87.74 578.2 93.28 573.58 99.29 569.42 106.22 566.2 110.83 563.43 115.92 561.12 121.46 558.81 126.54 556.5 132.54 554.18 139.01 552.34 145.47 550.49 152.86 549.11 160.71 547.72 169.49 546.34 179.19 545.42 189.34 544.48 200.43 543.56 212.89 543.11 226.29 543.11 240.6 542.18 252.61 541.71 258.15 541.26 264.16 539.41 275.24 537.1 286.33 535.72 291.87 534.33 296.95 532.48 302.49 530.64 307.57 528.32 313.12 526.47 318.19 524.17 323.27 521.86 327.89 519.09 332.97 516.32 337.59 510.78 347.29 504.3 356.52 497.39 365.3 493.69 369.45 489.99 373.62 482.15 381.92 477.99 385.62 473.83 389.31 465.05 396.7 459.98 400.86 453.97 405.02 448.43 408.71 441.97 412.4 435.96 416.1 429.5 419.33 416.56 425.79 410.56 428.56 404.09 430.88 398.09 433.18 392.55 435.5 387.01 436.88 381.93 438.26 377.31 439.19 372.69 439.65 371.3 432.26 369.45 425.79 367.61 419.33 365.31 413.32 362.53 408.25 359.76 403.17 356.53 398.55 352.84 394.85"/><polygon class="a" points="317.27 155.17 317.74 152.86 318.65 147.32 319.12 144.55 319.58 142.7 320.5 141.31 321.42 138.54 322.35 137.62 323.27 136.69 324.66 135.31 326.51 134.38 327.9 133.93 329.27 133.93 330.2 134.85 330.67 135.77 330.67 137.62 330.67 139.93 329.75 142.23 328.82 145.01 326.98 147.32 325.58 149.16 322.81 151.94 321.89 153.33 323.27 152.41 326.98 150.55 329.75 149.16 332.52 148.7 334.81 147.78 337.6 147.78 339.9 147.78 341.75 148.7 342.67 149.16 343.14 149.62 344.06 151.01 344.06 151.94 344.06 152.86 342.67 154.25 340.82 155.63 339.45 156.1 337.6 156.56 335.28 157.02 333.44 157.02 329.75 157.48 326.51 157.02 323.27 156.56 319.12 155.63 317.27 155.17"/><polygon class="a" points="208.74 102.98 207.37 101.6 204.58 97.44 203.21 95.13 201.36 92.83 200.44 90.05 199.97 89.13 199.97 88.21 199.97 85.89 199.97 84.05 200.89 83.13 200.89 82.66 201.36 82.2 202.74 81.74 204.13 82.2 205.51 82.66 206.9 84.51 207.37 85.43 207.82 86.35 208.74 88.66 209.22 90.98 209.67 93.28 209.67 96.98 209.67 98.36 210.13 96.98 211.51 93.28 213.36 89.13 214.75 86.82 216.13 84.97 217.05 84.05 217.52 83.58 218.44 83.13 219.37 82.66 220.29 82.66 220.76 82.2 222.13 82.66 223.06 83.58 223.53 84.51 223.53 85.43 223.06 87.74 222.13 90.51 219.82 93.28 217.97 96.05 215.68 98.36 213.36 99.75 210.13 102.06 208.74 102.98"/><polygon class="c" points="72.5 319.11 73.89 321.89 73.43 320.5 72.5 319.11"/><polygon class="a" points="124.23 326.96 133 326.05 141.31 324.66 149.17 322.35 156.57 319.58 159.79 318.19 163.03 316.81 169.49 313.57 174.57 310.35 179.64 307.11 178.72 319.11 178.27 326.05 177.8 332.05 177.8 340.36 178.27 348.21 178.72 356.06 180.11 365.3 175.95 365.76 171.34 366.22 166.25 366.22 161.18 366.22 156.1 365.76 151.01 365.3 145.47 364.84 139.94 363.91 134.85 362.52 129.31 361.15 124.23 359.3 119.16 357.44 114.07 355.14 109.46 352.83 105.29 350.06 101.13 347.29 97.91 344.52 94.67 341.28 89.13 334.82 86.37 331.58 84.52 328.81 81.75 325.12 79.9 325.58 75.74 327.43 73.43 328.35 70.66 328.81 68.36 329.28 66.04 328.81 64.66 328.81 63.27 327.89 62.8 327.43 61.88 326.51 61.88 325.58 62.35 324.66 63.27 323.74 64.19 323.74 64.66 323.27 66.96 322.35 69.28 322.35 73.43 322.35 76.67 322.81 78.06 322.81 76.67 322.35 73.43 321.42 71.58 320.5 69.28 319.11 67.43 317.73 66.04 315.88 65.12 314.96 64.66 314.04 64.66 313.12 64.19 312.19 64.19 311.73 64.66 310.8 64.66 310.35 65.12 310.35 66.04 309.88 66.96 309.88 67.43 309.88 69.28 310.35 71.13 311.73 73.43 313.57 75.27 315.42 76.67 316.81 78.06 318.65 77.12 316.81 76.2 314.5 75.74 312.19 75.27 309.88 75.27 308.5 75.27 307.57 75.74 306.64 76.2 306.19 76.67 305.72 77.59 305.26 78.06 305.72 78.97 306.19 79.9 306.64 80.83 307.57 81.28 308.95 81.75 309.88 82.21 312.65 82.67 315.42 82.67 318.65 82.21 320.97 81.75 324.66 87.74 325.58 98.37 326.51 104.84 326.96 111.3 327.43 118.24 327.43 124.23 326.96"/><path class="c" d="M350.53,204.13l-1.4,3.22Z"/><polygon class="a" points="290.94 470.59 288.18 465.97 285.41 461.36 283.56 456.74 282.17 452.13 280.79 447.96 279.87 443.81 279.4 439.19 278.94 435.5 278.94 431.34 279.4 427.65 279.87 423.48 280.79 420.26 281.72 416.56 283.09 413.32 284.48 410.09 286.33 407.32 288.18 404.55 290.49 401.78 292.79 399.48 295.1 397.16 297.88 395.32 300.65 393.47 303.42 392.08 306.19 390.7 309.42 389.78 312.19 388.86 315.43 388.39 318.65 388.39 321.89 388.39 325.13 388.86 328.36 389.31 331.59 390.24 334.36 391.16 336.67 392.08 338.98 393.47 341.75 394.85 344.06 396.7 346.36 398.55 348.68 400.4 350.99 402.71 353.29 405.48 355.14 408.25 356.99 411.48 359.3 414.72 360.68 418.41 362.53 422.56 363.92 427.19 365.76 432.26 366.69 436.42 367.61 441.04 368.08 446.12 368.08 451.2 368.08 461.81 368.08 466.89 367.61 472.44 366.69 477.99 365.76 483.53 364.84 489.07 363.92 494.15 362.53 499.69 360.68 504.77 357.45 514.93 354.21 522.78 351.44 527.86 369.45 538.48 391.17 551.87 401.33 558.34 411.03 564.81 415.19 567.57 418.88 570.34 424.87 574.96 427.19 577.27 429.04 579.58 430.43 581.43 430.88 583.28 431.35 585.13 431.35 586.51 431.35 587.89 430.88 589.28 429.95 590.2 429.04 591.13 427.19 592.51 425.34 593.44 424.87 593.44 424.42 593.44 417.95 591.13 406.41 586.05 391.17 578.66 374.54 569.89 357.45 561.11 342.67 552.33 336.67 548.65 331.59 544.95 328.36 542.18 326.98 540.79 326.51 539.87 326.51 538.02 326.51 536.63 326.98 535.71 327.9 534.33 328.82 532.94 329.75 531.09 330.2 529.24 330.67 527.4 330.2 523.24 329.75 521.39 328.82 519.09 326.98 514.46 324.21 509.85 320.97 505.23 317.27 500.61 313.11 496 309.42 491.38 301.57 483.06 295.1 475.67 292.34 472.9 290.94 470.59"/><polygon class="a" points="275.25 549.1 273.86 550.49 271.56 551.41 265.08 553.71 257.7 556.03 249.85 557.87 241.54 559.72 234.15 561.11 223.53 562.96 203.66 566.19 185.65 568.97 162.56 572.19 162.1 572.19 161.18 572.19 159.34 571.27 158.41 570.34 157.49 569.42 156.57 568.5 156.1 567.57 155.63 566.19 155.18 564.81 155.63 563.42 156.1 562.04 157.02 560.65 158.41 558.8 160.26 557.42 162.56 555.57 164.41 554.65 166.25 553.71 168.57 552.8 170.88 551.87 176.42 550.03 182.42 548.65 189.35 547.25 196.27 545.87 210.59 543.56 225.83 541.71 240.61 539.87 256.77 538.94 250.31 534.79 243.38 530.63 236.45 526.01 229.52 520.47 222.13 514.93 215.21 509.39 208.29 502.93 201.81 496.45 199.04 492.76 196.27 489.53 190.74 482.14 188.42 478.91 186.12 475.21 184.28 471.06 182.88 467.36 181.5 463.67 180.11 459.51 179.19 455.82 178.72 451.66 178.72 447.96 178.72 443.81 179.19 439.65 180.11 435.95 180.57 433.65 181.5 431.34 182.88 427.19 185.2 423.95 187.5 420.71 190.74 418.41 193.51 416.1 195.35 415.18 196.74 414.25 200.44 412.87 203.21 417.02 205.97 420.71 209.22 423.95 212.9 427.19 215.68 429.96 219.37 432.26 226.3 437.34 233.68 441.5 237.84 443.35 241.99 445.2 246.15 446.58 250.31 447.96 254.46 449.35 258.62 450.28 262.31 451.2 266.48 452.13 270.17 452.58 274.33 452.58 274.78 457.67 274.78 462.75 274.78 467.82 274.33 472.44 273.4 477.06 272.94 481.68 271.09 490.46 270.17 496.92 269.7 502.46 269.25 507.54 269.25 512.62 269.25 517.24 269.7 521.86 270.17 525.55 270.62 529.71 271.09 532.02 272.02 534.33 273.4 539.4 274.78 544.95 275.25 547.25 275.25 549.1"/><polygon class="d" points="143.63 189.8 144.1 191.19 144.55 192.11 145.02 193.5 145.94 194.43 147.32 195.81 148.71 196.73 151.48 198.58 155.18 199.97 159.34 201.35 163.48 202.27 168.09 202.74 173.65 202.74 176.42 202.27 179.19 202.27 181.5 201.35 183.81 200.89 186.12 199.97 187.5 199.5 188.42 199.04 190.26 197.66 192.11 196.73 193.51 195.35 195.35 193.5 196.27 192.11 197.2 190.27 198.12 188.42 198.59 186.58 198.59 184.26 198.59 181.96 198.12 179.64 197.67 177.34 196.27 175.49 195.35 173.64 193.51 172.26 192.11 170.87 189.81 169.49 188.89 169.02 187.97 168.57 185.65 167.64 182.88 166.72 180.57 166.25 177.8 165.8 175.03 165.8 171.8 166.25 168.57 166.72 165.33 167.17 162.56 168.57 159.79 169.49 157.02 171.33 154.72 172.72 152.41 174.56 150.56 176.41 148.71 178.26 147.32 180.11 145.94 181.96 145.02 183.81 144.1 185.65 143.63 187.03 143.63 188.42 143.63 189.8"/><path class="d" d="M186.58,184.26a13.62,13.62,0,1,1-13.4-13.39A13.41,13.41,0,0,1,186.58,184.26Z"/><polygon class="a" points="351.92 222.59 349.13 220.75 344.98 218.44 343.14 216.6 341.29 215.2 339.45 213.36 338.98 212.89 338.52 211.97 337.6 210.59 337.13 209.2 337.13 207.82 337.6 206.9 338.52 205.97 339.45 205.97 340.82 205.97 342.67 206.9 344.98 208.74 346.83 210.12 349.6 214.28 351.92 217.05 352.37 218.44 351.92 217.05 350.52 213.36 350.07 211.05 349.6 208.28 349.6 205.97 350.07 203.2 350.99 200.89 351.44 199.97 351.92 199.5 352.84 199.04 353.29 198.58 354.69 198.58 355.14 199.04 355.61 199.04 356.53 200.43 357.45 202.74 357.45 205.05 357.45 208.28 357.45 211.05 356.99 213.36 356.06 215.66 358.38 211.51 360.23 209.2 362.07 207.35 362.99 206.43 363.92 205.97 365.31 205.5 366.24 205.5 366.69 205.97 367.61 206.43 368.08 206.9 368.08 207.82 368.08 209.2 368.08 210.59 366.69 212.89 364.39 215.2 362.07 217.52 356.99 220.75 353.76 222.59 353.76 224.91 353.76 229.52 354.21 234.61 353.76 239.22 353.29 243.84 352.84 248.46 351.92 253.07 350.99 257.23 350.07 261.85 348.68 266 347.28 270.17 344.06 278.48 342.22 282.17 340.37 286.33 335.74 293.25 333.9 296.48 331.59 299.72 326.51 306.19 324.21 308.5 321.42 311.27 316.35 315.88 310.8 320.03 305.26 322.81 302.96 324.2 300.19 325.12 297.41 326.05 295.1 326.51 290.94 326.96 286.8 326.51 283.09 326.05 279.4 324.66 276.18 323.27 272.94 321.42 270.17 319.11 267.4 316.34 265.08 313.57 263.24 310.35 261.39 307.11 260.01 303.42 259.08 299.72 258.62 295.56 258.62 293.71 258.15 291.41 258.62 287.25 259.08 285.4 259.55 283.56 260.47 281.7 261.39 279.86 262.78 278.48 264.16 277.09 266.01 276.16 267.86 275.71 278.48 273.4 288.64 271.09 293.72 269.7 298.8 267.85 303.89 266 308.5 264.16 313.58 261.39 318.2 258.62 322.81 255.38 327.43 252.15 332.05 248 336.21 243.38 338.52 241.07 340.37 238.76 344.98 233.22 351.92 222.59"/><polygon class="b" points="150.09 188.88 150.09 188.42 150.56 187.03 151.93 184.26 154.25 181.49 155.63 180.11 157.02 178.72 160.26 175.95 163.95 173.64 167.18 172.26 169.03 172.26 170.88 171.79 173.18 171.79 175.03 172.26 176.88 173.18 178.72 174.1 179.64 175.49 181.04 176.87 181.96 178.26 182.42 179.64 182.88 181.49 182.88 183.34 182.88 185.19 182.88 187.5 182.42 189.8 181.5 192.11 180.11 194.43 178.27 196.28 175.03 197.2 170.88 197.2 166.25 196.73 164.41 196.73 162.56 196.28 160.71 195.81 159.34 195.35 156.1 193.96 153.78 192.58 151.93 191.19 150.56 190.27 150.09 189.34 150.09 188.88"/></svg>