<?xml version="1.0" encoding="utf-8"?>
<!-- Generator: Adobe Illustrator 15.1.0, SVG Export Plug-In . SVG Version: 6.00 Build 0)  -->
<!DOCTYPE svg PUBLIC "-//W3C//DTD SVG 1.1//EN" "http://www.w3.org/Graphics/SVG/1.1/DTD/svg11.dtd">
<svg version="1.1" id="Layer_1" xmlns="http://www.w3.org/2000/svg" xmlns:xlink="http://www.w3.org/1999/xlink" x="0px" y="0px"
	 width="150px" height="40px" viewBox="0 0 150 40" enable-background="new 0 0 150 40" xml:space="preserve">
<polygon fill="#FF7D00" points="30.506,17.557 30.694,17.65 31.005,17.774 30.661,17.899 30.32,18.056 29.977,18.149 29.603,18.242 
	29.263,18.335 28.888,18.397 28.513,18.428 28.14,18.459 28.202,18.832 28.296,19.299 28.484,20.39 28.546,21.014 28.608,21.322 
	28.637,21.665 28.67,22.35 28.67,22.693 28.67,23.033 28.67,23.409 28.637,23.783 28.608,24.125 28.546,24.498 28.484,24.871 
	28.389,25.213 28.296,25.588 28.234,25.773 28.172,25.93 28.048,26.305 27.89,26.648 27.704,26.988 27.518,27.301 27.269,27.643 
	27.019,27.953 26.74,28.234 26.43,28.545 26.056,28.826 25.651,29.105 25.401,29.26 25.183,29.355 24.935,29.479 24.685,29.604 
	24.156,29.791 23.908,29.852 23.659,29.915 23.377,29.977 23.129,30.008 22.6,30.07 22.63,29.512 22.662,29.23 22.662,28.98 
	22.63,28.732 22.63,28.516 22.537,28.078 22.475,27.891 22.413,27.705 22.35,27.518 22.258,27.363 22.07,27.021 21.946,26.865 
	21.822,26.74 21.697,26.615 21.573,26.49 21.291,26.271 21.137,26.18 20.951,26.088 20.764,25.992 20.576,25.93 20.172,25.805 
	19.955,25.773 19.736,25.744 19.519,25.744 19.301,25.744 19.081,25.773 18.865,25.805 18.927,25.371 19.019,24.936 19.113,24.498 
	19.269,24.031 19.457,23.564 19.643,23.064 19.892,22.6 20.172,22.102 20.39,22.193 20.608,22.287 20.826,22.35 21.075,22.412 
	21.323,22.412 21.54,22.412 21.79,22.381 22.038,22.35 22.258,22.287 22.475,22.193 22.694,22.102 22.912,21.977 23.099,21.854 
	23.285,21.697 23.439,21.542 23.565,21.354 23.721,21.137 23.813,20.949 23.908,20.732 23.97,20.483 24.033,20.266 24.062,20.047 
	24.062,19.829 24.062,19.611 24.062,19.393 24,19.206 23.97,19.02 23.908,18.832 23.813,18.708 23.721,18.553 23.597,18.459 
	23.473,18.366 23.97,17.992 24.406,17.712 24.809,17.433 24.685,17.309 24.592,17.183 24.468,17.028 24.373,16.841 24.218,16.436 
	24.124,16.249 24.062,16 23.97,15.564 23.938,15.347 23.938,15.13 23.938,14.911 23.97,14.693 24,14.507 24.062,14.35 
	23.751,14.226 23.473,14.102 23.191,13.947 22.912,13.789 22.662,13.603 22.382,13.417 21.852,13.011 21.602,12.794 21.385,12.576 
	20.951,12.142 20.576,11.705 20.266,11.3 20.018,10.958 19.831,10.678 19.736,10.49 19.673,10.428 19.892,10.428 20.39,10.366 
	21.105,10.335 21.478,10.335 21.884,10.335 22.226,10.366 22.568,10.397 23.191,10.49 23.751,10.615 24.28,10.77 24.53,10.864 
	24.747,10.958 25.183,11.145 25.525,11.362 25.837,11.58 25.994,11.424 26.148,11.331 26.492,11.145 26.43,10.678 26.368,10.147 
	26.368,9.682 26.368,9.4 26.43,9.152 26.522,8.623 26.646,8.095 26.895,7.284 26.99,6.942 27.518,7.472 27.952,7.938 28.14,8.188 
	28.327,8.405 28.484,8.655 28.67,8.935 28.794,9.214 28.919,9.494 29.013,9.774 29.105,10.023 29.2,10.303 29.263,10.583 
	29.697,10.583 30.164,10.615 30.413,10.615 30.63,10.646 31.067,10.74 31.72,10.864 32.062,10.958 32.374,11.05 32.935,11.269 
	33.463,11.518 33.93,11.798 34.116,11.954 34.304,12.109 34.46,12.266 34.615,12.389 34.708,12.544 34.77,12.701 34.833,12.794 
	34.863,12.918 34.895,13.135 34.895,13.385 34.895,13.634 34.833,13.884 34.801,14.009 34.77,14.164 34.646,14.443 34.49,14.725 
	34.428,14.849 34.334,15.004 34.116,15.316 33.868,15.596 33.618,15.906 33.307,16.218 32.966,16.498 32.592,16.81 32.188,17.09 
	31.909,17.12 31.689,17.09 31.439,17.058 31.129,16.996 30.849,16.904 30.694,16.841 30.506,16.748 30.35,16.654 30.196,16.56 
	30.04,16.467 29.915,16.342 29.853,16.28 29.791,16.187 29.729,16.092 29.635,15.875 29.603,15.844 29.573,15.844 29.511,15.906 
	29.479,15.968 29.449,16.063 29.479,16.249 29.511,16.404 29.573,16.592 29.697,16.81 29.822,16.966 29.947,17.12 30.134,17.276 
	30.32,17.433 "/>
<polygon fill="#FF7D00" points="17.027,26.865 16.811,27.178 16.624,27.518 16.435,27.859 16.28,28.266 16.156,28.699 
	16.032,29.137 15.938,29.635 15.626,29.604 15.315,29.543 14.973,29.447 14.6,29.355 14.227,29.199 13.822,29.043 13.385,28.887 
	12.981,28.699 12.108,28.266 11.673,28.047 11.269,27.798 10.834,27.549 10.46,27.301 10.054,27.021 9.712,26.74 9.121,26.24 
	8.841,25.992 8.561,25.744 8.032,25.184 7.782,24.902 7.533,24.623 7.068,24.031 6.63,23.409 6.256,22.755 6.07,22.443 
	5.884,22.102 5.727,21.789 5.572,21.447 5.449,21.105 5.293,20.732 5.168,20.39 5.044,20.015 4.949,19.673 4.856,19.299 
	4.701,18.553 4.576,17.806 4.546,17.4 4.514,17.028 4.452,16.218 4.452,15.254 4.422,14.35 4.36,13.51 4.296,12.763 4.234,12.08 
	4.14,11.424 4.046,10.832 3.954,10.303 3.83,9.806 3.705,9.37 3.548,8.935 3.393,8.529 3.237,8.188 3.081,7.813 2.895,7.472 
	2.677,7.159 2.398,6.692 2.087,6.288 1.806,5.914 1.525,5.635 1.277,5.355 1.028,5.136 0.623,4.794 0.28,4.577 0.094,4.419 
	0.032,4.327 0,4.264 0,4.233 0.032,4.202 0.062,4.14 0.156,4.109 0.312,4.047 0.529,4.015 0.811,3.952 1.183,3.923 1.587,3.89 
	2.025,3.859 2.553,3.859 3.081,3.859 3.672,3.923 4.264,3.985 4.576,4.047 4.887,4.109 5.231,4.171 5.541,4.264 5.884,4.357 
	6.226,4.451 6.567,4.577 6.879,4.701 7.223,4.826 7.565,4.981 8.032,5.231 8.498,5.479 8.901,5.728 9.309,6.009 9.712,6.319 
	10.086,6.63 10.428,6.942 10.77,7.284 11.082,7.626 11.394,7.969 11.673,8.343 11.954,8.717 12.204,9.121 12.452,9.525 12.669,9.93 
	12.887,10.335 13.073,10.74 13.261,11.176 13.417,11.612 13.573,12.047 13.729,12.514 13.853,12.949 14.103,13.851 14.196,14.319 
	14.29,14.787 14.444,15.72 14.538,16.622 14.63,17.557 14.693,18.583 14.788,19.549 14.879,20.421 14.973,21.23 15.097,21.977 
	15.223,22.662 15.315,22.973 15.377,23.253 15.439,23.564 15.533,23.813 15.626,24.094 15.688,24.344 15.876,24.779 15.97,24.995 
	16.094,25.184 16.28,25.525 16.498,25.867 16.624,25.992 16.748,26.148 16.998,26.396 17.277,26.615 "/>
<polygon fill="#FF7D00" points="19.549,10.49 19.269,10.553 19.051,10.583 18.833,10.615 18.583,10.583 18.458,10.583 
	18.304,10.553 18.178,10.521 18.086,10.49 17.962,10.397 17.868,10.303 17.868,10.241 17.868,10.178 17.931,10.085 17.962,10.054 
	18.024,10.023 18.148,9.961 18.304,9.961 18.492,9.961 18.645,10.023 18.833,10.054 19.019,10.147 19.269,10.273 19.363,10.335 
	19.301,10.241 19.113,10.054 19.019,9.93 18.895,9.774 18.833,9.587 18.77,9.432 18.77,9.276 18.77,9.152 18.802,9.09 18.865,9.028 
	18.957,9.028 19.051,9.059 19.175,9.121 19.269,9.214 19.331,9.276 19.393,9.338 19.457,9.525 19.519,9.619 19.549,9.744 
	19.581,9.93 19.643,10.303 19.673,10.459 "/>
<polygon fill="#FF7D00" points="26.895,6.878 26.678,6.723 26.522,6.63 26.368,6.475 26.243,6.288 26.086,6.102 26.024,5.914 
	25.994,5.759 25.994,5.697 26.024,5.635 26.086,5.572 26.18,5.542 26.21,5.572 26.272,5.572 26.336,5.604 26.398,5.635 26.43,5.666 
	26.492,5.728 26.584,5.852 26.678,6.009 26.802,6.288 26.895,6.537 26.927,6.63 26.927,6.537 26.927,6.288 26.957,6.133 
	26.99,5.978 27.052,5.821 27.081,5.759 27.114,5.697 27.207,5.572 27.301,5.542 27.393,5.51 27.487,5.542 27.518,5.572 
	27.518,5.604 27.58,5.666 27.58,5.79 27.58,5.947 27.58,6.009 27.549,6.071 27.487,6.257 27.361,6.413 27.269,6.568 27.081,6.849 
	26.99,6.942 "/>
<polygon fill="#F57F31" points="36.111,21.604 36.078,21.697 36.173,21.51 "/>
<polygon fill="#FF7D00" points="33.091,22.07 33.556,22.07 33.992,22.039 34.428,22.008 35.145,21.945 35.549,21.884 35.518,21.635 
	35.487,21.48 35.487,21.262 35.518,21.074 35.549,20.889 35.581,20.824 35.611,20.732 35.673,20.67 35.737,20.639 35.798,20.607 
	35.83,20.576 35.892,20.607 35.923,20.639 35.954,20.67 35.985,20.732 35.985,20.795 35.985,20.889 35.954,21.043 35.923,21.199 
	35.861,21.354 35.798,21.48 35.892,21.354 35.985,21.262 36.111,21.137 36.264,21.014 36.39,20.92 36.513,20.889 36.546,20.889 
	36.608,20.889 36.67,20.92 36.701,20.92 36.701,20.949 36.732,21.014 36.732,21.043 36.701,21.105 36.701,21.168 36.67,21.23 
	36.608,21.292 36.513,21.416 36.39,21.51 36.235,21.604 36.111,21.665 35.892,21.727 35.798,21.76 35.892,21.76 36.111,21.727 
	36.39,21.727 36.546,21.727 36.701,21.789 36.732,21.822 36.794,21.822 36.856,21.884 36.887,21.945 36.887,22.008 36.825,22.07 
	36.794,22.102 36.701,22.163 36.608,22.163 36.451,22.193 36.297,22.163 36.111,22.133 35.954,22.07 35.673,21.945 35.549,21.914 
	35.363,22.163 35.239,22.35 35.052,22.568 34.677,23.005 34.46,23.221 34.242,23.409 33.962,23.596 33.68,23.783 33.37,23.938 
	33.028,24.094 32.685,24.221 32.344,24.344 31.97,24.438 31.627,24.529 31.253,24.592 30.88,24.623 30.537,24.654 30.196,24.686 
	29.853,24.686 29.511,24.686 29.2,24.654 28.919,24.623 29.013,24.002 29.043,23.471 29.076,22.941 29.076,22.381 29.043,21.977 
	29.013,21.51 28.951,20.701 29.291,20.92 29.635,21.137 30.071,21.354 30.288,21.447 30.506,21.542 31.005,21.727 31.533,21.884 
	32.095,21.977 32.685,22.039 "/>
<path fill="#F57F31" d="M17.525,13.976l-0.092-0.215L17.525,13.976z"/>
<polygon fill="#FF7D00" points="21.353,31.876 21.167,32.063 20.732,32.561 20.204,33.121 19.955,33.434 19.673,33.745 
	19.425,34.055 19.206,34.366 19.019,34.676 18.895,34.986 18.833,35.145 18.802,35.271 18.77,35.548 18.802,35.674 18.833,35.798 
	18.895,35.924 18.957,36.016 19.019,36.109 19.051,36.172 19.051,36.266 19.051,36.389 19.019,36.452 18.927,36.546 18.707,36.732 
	18.366,36.98 17.962,37.229 16.965,37.82 15.812,38.414 14.693,39.005 13.665,39.503 12.887,39.844 12.452,40 12.42,40 12.39,40 
	12.264,39.938 12.14,39.844 12.078,39.783 12.016,39.721 11.984,39.627 11.984,39.535 11.984,39.441 12.016,39.316 12.046,39.191 
	12.14,39.066 12.264,38.911 12.42,38.756 12.825,38.441 13.073,38.258 13.355,38.07 14.008,37.634 14.693,37.197 16.156,36.296 
	17.371,35.58 17.185,35.238 16.965,34.709 16.748,34.023 16.624,33.682 16.53,33.309 16.468,32.965 16.406,32.592 16.342,32.221 
	16.28,31.844 16.248,31.473 16.248,31.128 16.248,30.414 16.248,30.07 16.28,29.729 16.342,29.416 16.406,29.137 16.53,28.795 
	16.624,28.482 16.748,28.202 16.841,27.953 16.998,27.736 17.123,27.518 17.247,27.332 17.401,27.145 17.557,26.988 17.713,26.865 
	17.868,26.74 18.024,26.615 18.21,26.523 18.366,26.428 18.521,26.365 18.707,26.305 18.927,26.24 19.144,26.211 19.363,26.18 
	19.581,26.18 19.798,26.18 20.018,26.211 20.204,26.271 20.42,26.336 20.608,26.428 20.794,26.523 20.981,26.648 21.167,26.771 
	21.323,26.928 21.478,27.081 21.635,27.27 21.759,27.457 21.884,27.643 21.976,27.859 22.07,28.078 22.132,28.326 22.194,28.545 
	22.226,28.826 22.258,29.075 22.258,29.355 22.226,29.604 22.194,29.915 22.132,30.195 22.038,30.475 21.946,30.786 21.822,31.1 
	21.635,31.408 21.449,31.721 "/>
<polygon fill="#FF7D00" points="22.506,36.889 22.537,36.732 22.63,36.357 22.725,36.016 22.787,35.861 22.818,35.704 
	22.849,35.424 22.88,35.175 22.912,34.863 22.912,34.551 22.912,34.21 22.88,33.869 22.849,33.496 22.787,33.061 22.662,32.469 
	22.63,32.156 22.568,31.844 22.537,31.531 22.537,31.191 22.537,30.848 22.568,30.506 22.849,30.506 23.099,30.475 23.377,30.414 
	23.627,30.352 23.908,30.288 24.186,30.195 24.468,30.102 24.747,30.008 25.027,29.884 25.307,29.76 25.807,29.479 26.272,29.137 
	26.522,28.98 26.708,28.795 26.957,28.575 27.177,28.357 27.361,28.107 27.549,27.83 27.798,27.922 27.89,27.984 28.016,28.047 
	28.202,28.202 28.42,28.357 28.575,28.575 28.732,28.795 28.826,29.075 28.888,29.23 28.919,29.384 28.981,29.635 29.013,29.915 
	29.013,30.195 29.013,30.443 28.981,30.727 28.919,30.973 28.826,31.253 28.732,31.502 28.637,31.752 28.513,32.031 28.358,32.279 
	28.202,32.5 27.83,32.997 27.642,33.215 27.456,33.463 27.019,33.898 26.554,34.334 26.086,34.709 25.589,35.081 25.121,35.455 
	24.654,35.768 24.186,36.048 23.751,36.328 24.841,36.389 25.837,36.516 26.865,36.641 27.83,36.795 28.296,36.889 28.764,36.98 
	29.167,37.072 29.541,37.197 29.697,37.262 29.853,37.32 29.977,37.387 30.102,37.449 30.258,37.572 30.382,37.666 30.475,37.79 
	30.537,37.882 30.57,37.977 30.599,38.07 30.57,38.164 30.537,38.258 30.506,38.318 30.444,38.382 30.382,38.441 30.32,38.506 
	30.196,38.566 30.134,38.566 30.102,38.566 28.546,38.352 27.331,38.164 25.994,37.945 25.277,37.82 24.779,37.729 24.218,37.602 
	23.689,37.479 23.191,37.32 22.755,37.167 22.6,37.105 22.506,37.014 "/>
<polygon fill="#FFFFFF" points="31.379,12.701 31.379,12.606 31.346,12.514 31.284,12.389 31.221,12.266 31.129,12.142 
	31.035,12.016 30.909,11.892 30.785,11.768 30.63,11.642 30.475,11.55 30.288,11.424 30.102,11.362 29.915,11.269 29.697,11.238 
	29.479,11.207 29.263,11.176 29.076,11.176 28.888,11.207 28.732,11.238 28.546,11.3 28.389,11.362 28.327,11.393 28.264,11.424 
	28.11,11.518 28.016,11.612 27.89,11.705 27.83,11.83 27.736,11.954 27.704,12.109 27.673,12.266 27.673,12.419 27.673,12.576 
	27.704,12.701 27.766,12.825 27.83,12.949 27.89,13.042 28.016,13.168 28.11,13.261 28.234,13.323 28.358,13.417 28.42,13.447 
	28.513,13.479 28.67,13.541 28.826,13.572 28.981,13.634 29.167,13.634 29.355,13.665 29.729,13.665 30.04,13.634 30.32,13.572 
	30.599,13.479 30.849,13.385 31.035,13.261 31.129,13.199 31.221,13.106 31.284,13.042 31.315,12.949 31.346,12.887 31.379,12.794 
	"/>
<path fill="#FFFFFF" d="M29.387,11.518c0.529,0,0.933,0.404,0.933,0.902c0,0.499-0.406,0.902-0.933,0.902
	c-0.499,0-0.903-0.404-0.903-0.902C28.484,11.923,28.888,11.518,29.387,11.518z"/>
<polygon fill="#FF7D00" points="17.807,15.72 18.116,16.092 18.242,16.249 18.396,16.404 18.678,16.717 18.989,16.996 
	19.301,17.214 19.611,17.433 19.922,17.619 20.266,17.806 20.576,17.93 20.919,18.056 21.261,18.18 21.602,18.273 22.288,18.428 
	23.005,18.583 23.129,18.615 23.253,18.677 23.347,18.77 23.439,18.863 23.503,18.987 23.565,19.113 23.597,19.237 23.627,19.361 
	23.659,19.643 23.627,19.798 23.627,19.923 23.597,20.204 23.533,20.452 23.439,20.701 23.315,20.92 23.191,21.137 23.037,21.322 
	22.849,21.51 22.662,21.665 22.444,21.789 22.226,21.884 21.976,21.977 21.727,22.008 21.449,22.039 21.167,22.008 21.013,21.977 
	20.826,21.914 20.64,21.854 20.484,21.76 20.11,21.572 19.736,21.292 19.393,20.98 19.206,20.795 19.051,20.639 18.707,20.204 
	18.553,19.985 18.428,19.767 18.116,19.299 17.992,19.02 17.868,18.77 17.651,18.211 17.557,17.93 17.463,17.65 17.401,17.338 
	17.339,17.058 17.277,16.748 17.247,16.436 17.213,16.125 17.185,15.813 17.213,15.47 17.213,15.161 17.213,15.004 16.998,14.88 
	16.654,14.662 16.498,14.507 16.342,14.35 16.248,14.195 16.248,14.102 16.248,14.009 16.248,13.947 16.28,13.915 16.342,13.884 
	16.373,13.851 16.435,13.851 16.53,13.884 16.592,13.915 16.654,13.977 16.779,14.102 16.903,14.257 17.061,14.537 16.998,14.381 
	16.965,14.226 16.965,14.04 16.965,13.822 16.965,13.665 17.027,13.51 17.089,13.417 17.123,13.417 17.151,13.385 17.247,13.385 
	17.277,13.417 17.339,13.447 17.371,13.479 17.401,13.541 17.463,13.696 17.495,13.884 17.495,14.04 17.463,14.226 17.433,14.381 
	17.339,14.631 17.309,14.725 17.339,14.631 17.495,14.443 17.682,14.164 17.807,14.071 17.962,13.947 18.086,13.884 18.178,13.884 
	18.242,13.884 18.304,13.947 18.334,14.009 18.334,14.102 18.304,14.195 18.242,14.288 18.21,14.35 18.178,14.381 18.054,14.507 
	17.931,14.6 17.807,14.725 17.527,14.88 17.339,15.004 "/>
<g>
	<polygon fill="#E3B14D" points="38.508,6.568 38.662,6.568 38.849,6.63 39.035,6.661 39.192,6.754 39.347,6.816 39.533,6.911 
		39.689,7.004 39.968,7.221 40.094,7.346 40.218,7.472 40.404,7.688 40.529,7.875 40.624,8.095 40.653,8.281 40.686,8.467 
		40.686,8.623 40.686,8.811 40.653,8.997 40.591,9.183 40.529,9.4 40.436,9.712 40.342,9.961 40.312,10.147 40.28,10.209 
		40.25,10.241 40.218,10.273 40.156,10.273 39.938,10.303 39.627,10.366 39.471,10.428 39.254,10.49 39.068,10.553 38.88,10.583 
		38.694,10.615 38.538,10.615 38.35,10.583 38.164,10.553 37.977,10.49 37.82,10.397 37.667,10.335 37.541,10.241 37.417,10.116 
		37.323,10.023 37.199,9.899 37.105,9.774 37.011,9.649 36.949,9.494 36.794,9.214 36.701,8.935 36.637,8.655 36.608,8.374 
		36.608,8.25 36.608,8.095 36.67,7.969 36.732,7.813 36.794,7.658 36.887,7.501 37.011,7.376 37.105,7.221 37.229,7.097 
		37.385,6.973 37.696,6.754 37.853,6.692 38.009,6.599 38.164,6.568 38.35,6.568 	"/>
	<polygon fill="#E3B14D" points="33.713,3.236 33.589,3.393 33.432,3.518 33.278,3.642 33.091,3.735 32.935,3.828 32.562,3.985 
		32.188,4.078 31.845,4.109 31.533,4.109 31.284,4.109 31.067,4.047 30.849,3.985 30.661,3.923 30.506,3.828 30.35,3.735 
		30.196,3.611 30.071,3.456 29.915,3.268 29.697,2.988 29.511,2.771 29.387,2.646 29.325,2.584 29.325,2.522 29.325,2.491 
		29.325,2.429 29.387,2.272 29.479,1.993 29.603,1.587 29.665,1.4 29.729,1.214 29.853,0.995 29.977,0.809 30.134,0.654 
		30.288,0.499 30.444,0.373 30.63,0.249 30.785,0.187 30.973,0.124 31.129,0.062 31.315,0.031 31.471,0.031 31.658,0 31.845,0 
		32.033,0.031 32.374,0.062 32.53,0.093 32.716,0.155 33.028,0.249 33.307,0.404 33.401,0.466 33.527,0.561 33.618,0.685 
		33.713,0.84 33.804,0.995 33.868,1.183 33.93,1.37 33.992,1.557 34.024,1.744 34.054,1.962 34.054,2.365 34.054,2.46 34.024,2.553 
		33.992,2.74 33.93,2.895 33.837,3.081 	"/>
	<polygon fill="#E3B14D" points="40.997,16.622 41.027,16.748 41.059,16.904 41.059,17.028 41.027,17.338 40.965,17.619 
		40.873,17.868 40.841,17.992 40.777,18.118 40.653,18.304 40.529,18.459 40.404,18.553 40.28,18.646 40.156,18.708 40.032,18.77 
		39.876,18.801 39.751,18.832 39.409,18.832 39.159,18.832 38.973,18.863 38.818,18.863 38.725,18.863 38.694,18.77 38.6,18.646 
		38.476,18.428 38.288,18.18 38.134,17.93 38.071,17.806 38.04,17.65 38.009,17.526 37.977,17.371 37.977,17.247 37.977,17.09 
		38.009,17.028 38.009,16.966 38.04,16.841 38.164,16.622 38.288,16.404 38.444,16.218 38.6,16.063 38.787,15.906 39.006,15.782 
		39.192,15.688 39.285,15.658 39.379,15.626 39.627,15.626 39.876,15.688 40.156,15.782 40.404,15.906 40.529,16 40.653,16.063 
		40.748,16.156 40.841,16.28 40.903,16.374 40.965,16.498 	"/>
	<polygon fill="#E3B14D" points="16.373,8.623 16.248,8.655 16.124,8.717 15.845,8.779 15.596,8.811 15.315,8.811 15.067,8.779 
		14.942,8.779 14.849,8.748 14.693,8.685 14.568,8.593 14.444,8.499 14.352,8.405 14.258,8.312 14.196,8.188 14.132,8.063 
		14.008,7.783 13.946,7.534 13.884,7.346 13.822,7.221 13.79,7.159 13.822,7.128 13.853,7.097 13.946,6.973 14.103,6.816 
		14.29,6.568 14.382,6.443 14.476,6.35 14.568,6.257 14.662,6.164 14.788,6.102 14.911,6.04 15.035,6.009 15.159,5.978 
		15.285,5.947 15.409,5.947 15.658,5.978 15.876,6.04 16.094,6.102 16.311,6.226 16.498,6.35 16.654,6.475 16.811,6.63 
		16.903,6.787 16.935,6.911 16.965,7.004 16.998,7.252 16.998,7.534 16.998,7.688 16.965,7.813 16.873,8.063 16.811,8.188 
		16.748,8.312 16.686,8.405 16.592,8.467 	"/>
	<polygon fill="#E3B14D" points="22.694,0.217 22.818,0.342 22.942,0.466 23.067,0.591 23.191,0.747 23.315,0.902 23.409,1.058 
		23.503,1.214 23.597,1.4 23.659,1.557 23.751,1.869 23.783,2.024 23.813,2.179 23.845,2.303 23.813,2.398 23.783,2.615 
		23.751,2.802 23.689,2.988 23.597,3.144 23.503,3.3 23.377,3.456 23.253,3.611 23.067,3.735 22.818,3.985 22.662,4.171 
		22.506,4.295 22.475,4.327 22.413,4.357 22.318,4.357 22.102,4.264 21.822,4.171 21.635,4.14 21.415,4.078 21.229,4.047 
		21.043,3.985 20.888,3.923 20.701,3.828 20.546,3.704 20.42,3.611 20.296,3.456 20.172,3.3 20.11,3.174 20.018,3.021 19.955,2.864 
		19.922,2.708 19.86,2.398 19.86,2.086 19.86,1.931 19.86,1.744 19.922,1.462 20.018,1.152 20.11,0.902 20.172,0.778 20.266,0.685 
		20.36,0.561 20.484,0.466 20.64,0.373 20.794,0.279 20.951,0.217 21.105,0.155 21.291,0.093 21.478,0.031 21.664,0.031 21.852,0 
		22.038,0 22.226,0.031 22.382,0.093 22.537,0.155 	"/>
	<polygon fill="#E3B14D" points="30.942,12.763 30.909,12.825 30.818,12.887 30.694,12.98 30.537,13.073 30.32,13.168 
		30.226,13.199 30.102,13.23 29.977,13.261 29.853,13.261 29.541,13.292 29.263,13.292 29.043,13.23 28.919,13.106 28.826,12.949 
		28.764,12.794 28.732,12.639 28.732,12.482 28.732,12.357 28.732,12.235 28.764,12.109 28.794,12.016 28.856,11.923 28.951,11.83 
		29.013,11.736 29.138,11.674 29.263,11.612 29.387,11.58 29.541,11.58 29.665,11.612 29.791,11.612 30.009,11.705 30.258,11.861 
		30.475,12.047 30.57,12.142 30.661,12.235 30.818,12.419 30.909,12.606 30.942,12.701 30.942,12.731 	"/>
	<polygon fill="#E3B14D" points="128.474,22.479 122.883,25.928 128.957,36.298 128.513,36.521 128.252,36.632 127.921,36.741 
		127.55,36.852 127.068,36.926 126.811,36.963 126.475,37 125.771,37 125.439,37 125.104,36.926 124.81,36.852 124.51,36.777 
		124.217,36.632 123.919,36.482 123.66,36.334 123.4,36.109 123.142,35.889 122.92,35.664 122.697,35.406 122.477,35.15 
		122.252,34.852 122.068,34.557 121.658,33.923 120.549,31.891 119.363,29.702 117.994,27.182 116.697,36.334 111.512,36.334 
		114.291,16.74 119.473,16.74 118.139,26.223 124.586,22.443 124.439,22.332 124.326,22.223 124.104,21.923 123.994,21.775 
		123.919,21.629 123.771,21.295 123.695,21.109 123.623,20.925 123.586,20.738 123.586,20.555 123.551,20.371 123.551,20.146 
		123.586,19.963 123.586,19.74 123.66,19.407 123.695,19.255 123.771,19.07 123.881,18.775 124.031,18.48 124.217,18.18 
		124.439,17.887 124.662,17.63 124.771,17.516 124.883,17.405 125.18,17.182 125.439,16.997 125.586,16.887 125.734,16.813 
		126.029,16.664 126.216,16.626 126.365,16.555 126.697,16.479 127.029,16.445 127.363,16.404 127.734,16.445 127.885,16.445 
		128.029,16.479 128.218,16.517 128.363,16.555 128.658,16.664 128.918,16.813 129.179,16.997 129.402,17.182 129.623,17.405 
		129.808,17.63 129.957,17.887 130.107,18.18 130.18,18.48 130.218,18.628 130.254,18.775 130.293,19.07 130.293,19.407 
		130.254,19.74 130.218,19.963 130.18,20.182 130.107,20.407 130.031,20.629 129.922,20.813 129.848,21.034 129.587,21.404 
		129.477,21.553 129.326,21.742 129.068,22.037 128.773,22.295 	"/>
	<path fill="#E3B14D" d="M139.477,33.629h-0.148l-0.145-0.037l-0.148-0.039l-0.148-0.07l-0.146-0.076l-0.148-0.109l-0.146-0.109
		l-0.111-0.111l-0.109-0.148l-0.15-0.148l-0.186-0.33l-0.188-0.408l-0.185-0.443l-0.149-0.48l-0.037-0.26l-0.076-0.258l-0.072-0.595
		l-0.037-0.594l-0.037-0.627v-0.673l0.037-0.332v-0.332l0.076-0.704l0.145-0.708l0.15-0.704l0.146-0.666l0.223-0.627l0.227-0.634
		l0.222-0.553l0.258-0.52l0.298-0.518l0.301-0.445l0.295-0.408l0.332-0.33l0.299-0.299l0.332-0.222l0.371-0.184l0.146-0.04
		l0.187-0.073h0.146l0.187-0.038l0.148,0.038h0.146l0.182,0.073l0.15,0.04L142.218,20l0.149,0.109l0.148,0.113l0.109,0.109
		l0.146,0.147l0.112,0.152l0.11,0.183l0.076,0.147l0.219,0.405l0.15,0.443l0.147,0.52l0.034,0.257l0.074,0.263l0.076,0.553
		l0.041,0.637l0.034,0.627v0.666l-0.034,0.337v0.372l-0.076,0.703l-0.146,0.703l-0.146,0.672l-0.148,0.666l-0.223,0.632
		l-0.225,0.589l-0.109,0.299l-0.11,0.291l-0.298,0.518l-0.258,0.486l-0.299,0.442l-0.334,0.407l-0.299,0.332l-0.146,0.148
		l-0.184,0.147l-0.334,0.222l-0.333,0.188l-0.142,0.07l-0.188,0.039l-0.147,0.036L139.477,33.629L139.477,33.629z M147.439,36.963
		L150,19.032v-0.257v-0.261l-0.04-0.257l-0.036-0.261l-0.109-0.223l-0.076-0.224l-0.148-0.181l-0.146-0.187l-0.146-0.186
		l-0.187-0.146l-0.185-0.109l-0.226-0.114l-0.221-0.111l-0.221-0.041l-0.261-0.032l-0.259-0.041l-0.264,0.044l-0.257,0.033
		l-0.261,0.041l-0.258,0.111l-0.26,0.114l-0.222,0.11l-0.228,0.148l-0.186,0.184l-0.223,0.182l-0.146,0.184l-0.146,0.222
		l-0.147,0.222l-0.109,0.261l-0.117,0.257l-0.07,0.261l-0.039,0.26l-0.039,0.225l-0.226-0.335l-0.22-0.296l-0.226-0.296
		l-0.225-0.257l-0.261-0.261l-0.258-0.225l-0.289-0.22l-0.258-0.187l-0.295-0.186l-0.336-0.146l-0.291-0.151l-0.336-0.109
		l-0.332-0.074l-0.336-0.038l-0.367-0.033l-0.332-0.042l-0.369,0.042l-0.375,0.033l-0.367,0.038l-0.371,0.109l-0.371,0.114
		l-0.368,0.147l-0.335,0.147l-0.37,0.184l-0.334,0.225l-0.367,0.222l-0.331,0.261l-0.335,0.26l-0.631,0.594l-0.297,0.33l-0.3,0.328
		l-0.295,0.374l-0.26,0.369l-0.258,0.37l-0.263,0.408l-0.479,0.854l-0.226,0.443l-0.222,0.484l-0.187,0.443l-0.184,0.48
		l-0.152,0.479l-0.144,0.519l-0.147,0.481l-0.11,0.521l-0.115,0.521l-0.068,0.553l-0.077,0.519l-0.038,0.519L131.4,28.29v0.485v0.52
		l0.037,0.479l0.038,0.481l0.077,0.446l0.068,0.441l0.115,0.446l0.11,0.442l0.108,0.41l0.148,0.402l0.146,0.404l0.188,0.371
		l0.186,0.332l0.222,0.371l0.187,0.295l0.26,0.333l0.221,0.261l0.262,0.296l0.258,0.224l0.304,0.263l0.255,0.185l0.3,0.186
		l0.33,0.148l0.3,0.145l0.328,0.109l0.374,0.109l0.331,0.078L136.92,37h0.376h0.37l0.369-0.037l0.369-0.072l0.404-0.113l0.374-0.108
		l0.37-0.146l0.369-0.188l0.33-0.181l0.376-0.229l0.33-0.223l0.366-0.258l0.334-0.262l0.334-0.295l0.298-0.332l0.331-0.33
		l0.296-0.328l0.075,0.328l0.076,0.33l0.144,0.295l0.147,0.299l0.186,0.262l0.186,0.258l0.227,0.223l0.261,0.225l0.108,0.109
		l0.145,0.108l0.26,0.151l0.303,0.146l0.328,0.148l0.303,0.109l0.365,0.075L146.365,37h0.375L147.439,36.963z"/>
	<polygon fill="#E3B14D" points="96.953,23.665 97.285,22.773 97.624,21.923 97.99,21.148 98.176,20.813 98.361,20.445 
		98.55,20.109 98.769,19.779 98.99,19.48 99.179,19.184 99.658,18.663 100.104,18.18 100.326,17.961 100.583,17.774 100.844,17.592 
		101.066,17.405 101.322,17.259 101.584,17.107 101.844,16.961 102.104,16.851 102.621,16.664 102.881,16.591 103.143,16.517 
		103.438,16.479 103.693,16.445 104.252,16.404 104.587,16.404 104.882,16.445 105.177,16.479 105.436,16.555 105.732,16.626 
		105.953,16.7 106.398,16.922 106.619,17.073 106.807,17.182 106.99,17.331 107.14,17.516 107.436,17.852 107.693,18.219 
		107.879,18.59 108.064,18.999 108.179,19.407 108.251,19.814 108.287,20.182 108.324,20.591 108.287,20.925 108.251,21.295 
		106.14,36.482 105.473,36.443 105.029,36.443 104.587,36.368 104.177,36.259 103.771,36.109 103.585,36.001 103.398,35.925 
		103.064,35.702 102.732,35.445 102.621,35.293 102.473,35.15 102.326,34.965 102.213,34.814 101.992,34.48 101.844,34.109 
		101.697,33.704 101.658,33.52 101.621,33.296 101.584,33.074 101.546,32.85 101.546,32.408 101.546,32.186 101.584,31.96 
		102.919,22.627 103.027,21.961 103.027,21.775 103.064,21.629 103.064,21.334 103.027,21.184 102.992,21.074 102.955,20.963 
		102.919,20.925 102.881,20.852 102.768,20.777 102.621,20.738 102.473,20.701 102.289,20.701 102.104,20.701 101.953,20.738 
		101.768,20.813 101.584,20.925 101.361,21.034 101.179,21.184 100.953,21.404 100.734,21.629 100.55,21.887 100.326,22.223 
		100.104,22.555 99.918,22.962 99.732,23.406 99.511,23.891 99.324,24.443 99.179,25 98.734,26.631 98.398,27.891 98.176,28.852 
		97.99,29.669 97.695,31.072 97.475,31.852 97.214,32.74 97.066,33.188 96.881,33.629 96.656,34.031 96.436,34.443 96.175,34.814 
		95.918,35.184 95.621,35.48 95.326,35.777 94.992,36.072 94.621,36.298 94.251,36.521 93.842,36.668 93.438,36.816 92.992,36.926 
		92.549,36.963 92.101,37 91.769,37 91.435,36.926 91.14,36.852 90.843,36.741 90.582,36.596 90.359,36.413 90.138,36.225 
		89.914,36.001 89.843,35.889 89.768,35.777 89.693,35.631 89.619,35.516 89.508,35.223 89.434,34.965 89.361,34.629 89.361,34.335 
		89.361,34.001 89.398,33.667 89.473,33.33 89.585,33 89.693,32.703 89.843,32.408 89.988,32.113 90.177,31.891 90.359,31.632 
		90.582,31.406 90.805,31.223 90.918,31.146 91.061,31.072 91.324,30.928 91.582,30.777 91.879,30.705 92.179,30.629 92.508,30.592 
		92.844,30.559 93.102,30.592 93.324,30.629 93.508,30.668 93.697,30.742 94.027,30.928 94.324,31.113 94.546,31.295 94.621,31.332 
		94.73,31.371 94.805,31.406 94.842,31.371 94.917,31.332 94.955,31.223 95.287,30.221 95.546,29.26 95.805,28.334 95.99,27.443 
		96.175,26.555 96.398,25.628 96.656,24.701 	"/>
	<path fill="#E3B14D" d="M90.214,21.775l0.036-0.441v-0.227v-0.226l-0.036-0.219l-0.042-0.225l-0.111-0.48l-0.15-0.447l-0.109-0.223
		l-0.109-0.222l-0.109-0.225l-0.15-0.223L89.1,18.212l-0.186-0.184l-0.223-0.186l-0.185-0.186l-0.261-0.148l-0.26-0.184l-0.26-0.146
		l-0.295-0.109l-0.296-0.152l-0.334-0.109l-0.334-0.109l-0.332-0.077l-0.405-0.07l-0.371-0.077l-0.443-0.029l-0.407-0.041h-0.481
		l-0.519,0.041l-0.519,0.033l-0.515,0.076l-0.487,0.071l-0.514,0.114l-0.484,0.147l-0.443,0.186l-0.48,0.188l-0.443,0.223
		l-0.409,0.222l-0.444,0.257l-0.404,0.3l-0.373,0.292l-0.371,0.296l-0.367,0.332l-0.375,0.372l-0.328,0.371l-0.336,0.369
		l-0.298,0.371l-0.302,0.408l-0.254,0.441l-0.259,0.408l-0.226,0.446l-0.221,0.479l-0.226,0.443l-0.186,0.48L74.1,24.257
		l-0.151,0.479l-0.109,0.484l-0.115,0.514l-0.109,0.486l-0.036,0.518l-0.041,0.484l-0.037,0.48v0.521v0.479l0.037,0.442l0.075,0.481
		l0.074,0.483l0.109,0.443l0.11,0.444l0.151,0.442l0.148,0.408l0.184,0.408l0.186,0.404l0.221,0.371l0.226,0.369l0.221,0.369
		l0.299,0.338l0.256,0.332l0.301,0.295l0.331,0.295l0.331,0.26l0.334,0.258l0.371,0.225l0.369,0.223l0.408,0.188l0.404,0.146
		l0.227,0.079l0.184,0.068l0.445,0.113l0.445,0.111l0.48,0.07l0.482,0.043h0.482h0.889l0.406-0.043l0.37-0.037l0.371-0.039
		l0.302-0.033l0.327-0.042l0.259-0.078l0.301-0.069l0.222-0.07l0.444-0.148l0.408-0.186l0.328-0.186l0.26-0.188l0.226-0.187
		l0.224-0.184l0.146-0.226l0.145-0.184l0.114-0.225l0.113-0.225l0.034-0.225l0.109-0.407v-0.183v-0.184l-0.035-0.373l-0.07-0.289
		l-0.557,0.332l-0.187,0.072l-0.187,0.109l-0.44,0.199l-0.261,0.072l-0.26,0.112L85.1,33.777l-0.332,0.035l-0.335,0.078
		l-0.329,0.037l-0.408,0.038h-0.403l-0.446-0.038h-0.225l-0.223-0.076l-0.186-0.039l-0.227-0.074l-0.184-0.071l-0.221-0.071
		l-0.186-0.113l-0.186-0.108l-0.335-0.263l-0.147-0.146l-0.186-0.146l-0.146-0.186l-0.111-0.186l-0.146-0.223l-0.116-0.188
		l-0.223-0.481l-0.074-0.262l-0.072-0.258l-0.074-0.295l-0.038-0.262l-0.075-0.332v-0.295l-0.037-0.332v-0.375l0.037-0.738
		l0.075-0.778h0.592l0.591-0.039l0.594-0.036l0.556-0.033l0.521-0.076l0.52-0.077l0.513-0.109l0.259-0.032l0.227-0.076l0.479-0.113
		l0.444-0.113l0.891-0.332l0.371-0.145l0.404-0.186l0.373-0.184l0.329-0.188l0.332-0.225l0.334-0.186l0.558-0.483l0.258-0.224
		l0.222-0.256l0.227-0.225l0.221-0.258l0.187-0.301l0.147-0.256l0.148-0.263l0.109-0.295l0.111-0.299l0.076-0.261l0.034-0.297
		L90.214,21.775L90.214,21.775z M79.769,25.589l0.034-0.519l0.109-0.518L80.025,24l0.148-0.594l0.146-0.557l0.222-0.556l0.112-0.296
		l0.113-0.257l0.221-0.522l0.301-0.519l0.296-0.443l0.146-0.222l0.147-0.187l0.187-0.186l0.184-0.184l0.185-0.149l0.187-0.145
		l0.226-0.112l0.185-0.076l0.223-0.109l0.227-0.038l0.221-0.038h0.229h0.184l0.146,0.038l0.147,0.038l0.149,0.072l0.108,0.074
		l0.113,0.111l0.108,0.114l0.073,0.147l0.074,0.147l0.039,0.109v0.076l0.071,0.185l0.042,0.224v0.223v0.26v0.518l-0.076,0.295
		l-0.072,0.373l-0.118,0.33l-0.146,0.371l-0.188,0.369l-0.22,0.368l-0.26,0.375l-0.15,0.187L83.767,24l-0.334,0.297l-0.185,0.186
		l-0.221,0.146l-0.187,0.148l-0.228,0.109l-0.479,0.258l-0.26,0.074l-0.26,0.108l-0.295,0.075l-0.297,0.076l-0.301,0.039
		l-0.295,0.033l-0.334,0.043h-0.328v-0.005H79.769z"/>
	<path fill="#E3B14D" d="M69.728,29.146L69.47,29.85l-0.151,0.371l-0.143,0.334l-0.148,0.332l-0.187,0.332l-0.185,0.331
		l-0.187,0.335l-0.225,0.338l-0.223,0.295l-0.225,0.299l-0.255,0.295l-0.259,0.258l-0.259,0.298l-0.261,0.261l-0.293,0.225
		l-0.302,0.259l-0.328,0.219l-0.301,0.224l-0.329,0.186l-0.371,0.186l-0.335,0.185l-0.371,0.147l-0.37,0.151l-0.374,0.147
		l-0.405,0.109l-0.408,0.109l-0.404,0.076l-0.408,0.074l-0.445,0.035l-0.444,0.038h-0.443h-3.556h-1.964H51.69l3.244-24.163
		l0.051-0.17l0.112-0.371l0.147-0.406l0.186-0.335l0.186-0.333l0.183-0.297l0.224-0.258l0.114-0.111l0.144-0.113l0.225-0.147
		l0.295-0.109l0.556-0.224l0.26-0.073h0.147l0.146-0.041l0.558-0.073l0.221-0.038h0.26L59.319,9h0.371h11.374v0.184L70.99,9.592
		L70.914,9.85l-0.074,0.26l-0.11,0.258l-0.113,0.186l-0.221,0.296l-0.223,0.258l-0.261,0.186l-0.293,0.149l-0.148,0.035
		l-0.151,0.075l-0.328,0.073h-0.151l-0.186,0.038h-0.37h-8.113l-1.002,7.705l0.299-0.297l0.294-0.295l0.297-0.296l0.301-0.261
		l0.665-0.483l0.295-0.186l0.333-0.223l0.333-0.147l0.371-0.146l0.333-0.146l0.331-0.114l0.369-0.075l0.334-0.073l0.369-0.038h0.332
		h0.372l0.371,0.038l0.333,0.073l0.371,0.075l0.335,0.144l0.294,0.116l0.334,0.146l0.301,0.186l0.296,0.225l0.26,0.225l0.148,0.112
		l0.15,0.145l0.254,0.261l0.226,0.296l0.22,0.296l0.446,0.668l0.184,0.371l0.185,0.366l0.149,0.408l0.147,0.41l0.109,0.404
		l0.149,0.446l0.077,0.479l0.075,0.447l0.076,0.48l0.039,0.52l0.038,0.518v0.518v0.52l-0.038,0.558l-0.074,0.558l-0.078,0.588
		l-0.075,0.48l-0.073,0.521l-0.112,0.48l-0.147,0.48h-0.04V29.146z M57.21,33.777h1.482h0.555l0.3-0.073l0.254-0.037l0.259-0.075
		l0.226-0.072l0.262-0.113l0.221-0.071l0.226-0.147l0.221-0.108l0.409-0.3l0.368-0.332l0.186-0.186l0.184-0.187l0.149-0.185
		l0.147-0.187l0.298-0.406l0.294-0.444l0.26-0.442l0.111-0.228l0.112-0.224l0.182-0.442l0.186-0.442l0.145-0.445l0.148-0.737
		l0.112-0.709l0.074-0.701l0.035-0.707l0.036-0.664l-0.036-0.627l-0.035-0.334v-0.293l-0.04-0.264l-0.073-0.295l-0.038-0.263
		l-0.075-0.257l-0.109-0.52l-0.11-0.223l-0.072-0.225l-0.075-0.185l-0.109-0.226l-0.225-0.33l-0.11-0.148l-0.111-0.146l-0.149-0.109
		l-0.109-0.111l-0.296-0.186l-0.153-0.041l-0.149-0.071h-0.146l-0.185-0.038l-0.261,0.038l-0.299,0.071l-0.297,0.152l-0.292,0.187
		l-0.298,0.22l-0.259,0.262l-0.3,0.295l-0.254,0.367l-0.259,0.371l-0.259,0.444l-0.226,0.444l-0.222,0.482l-0.223,0.521
		l-0.184,0.551l-0.186,0.557l-0.141,0.559L57.21,33.777z"/>
</g>
</svg>
