<svg xmlns="http://www.w3.org/2000/svg" width="150" height="40" viewBox="-52.217 0 150 40">
  <path fill="#FF7D00" d="M-21.711 17.557l.188.093.311.124-.344.125-.341.157-.343.093-.374.093-.34.093-.375.062-.375.031-.373.031.062.373.094.467.188 1.091.062.623.062.31.029.342.033.685V23.409l-.033.374-.029.342-.062.373-.062.373-.095.342-.093.375-.062.185-.062.156-.124.376-.158.343-.186.34-.186.313-.249.341-.25.311-.279.281-.31.311-.374.281-.405.28-.25.154-.218.095-.248.124-.25.125-.529.187-.248.061-.249.063-.282.062-.248.031-.529.063.03-.56.032-.281v-.25l-.032-.248v-.217l-.093-.437-.062-.187-.062-.186-.063-.187-.092-.155-.188-.342-.124-.156-.124-.125-.125-.125-.124-.125-.282-.218-.154-.092-.186-.092-.187-.096-.188-.063-.404-.124-.217-.032-.219-.029h-.435l-.22.029-.216.032.062-.434.092-.436.094-.437.156-.467.188-.466.186-.5.249-.465.28-.498.218.092.218.093.218.063.249.062H-30.677l.25-.031.248-.031.22-.063.217-.093.219-.092.218-.125.187-.124.186-.156.154-.155.126-.188.156-.217.092-.188.095-.217.062-.249.063-.217.029-.219v-.654l-.062-.187-.03-.186-.062-.188-.095-.124-.092-.155-.124-.094-.124-.093.497-.374.436-.28.403-.279-.124-.124-.093-.126-.124-.155-.095-.187-.155-.405-.094-.187-.062-.249-.092-.436-.032-.217v-.436l.032-.218.03-.186.062-.157-.311-.124-.278-.124-.282-.155-.279-.158-.25-.186-.28-.186-.53-.406-.25-.217-.217-.218-.434-.434-.375-.437-.31-.405-.248-.342-.187-.28-.095-.188-.063-.062h.219l.498-.062.715-.031h.779l.342.031.342.031.623.093.56.125.529.155.25.094.217.094.436.187.342.217.312.218.157-.156.154-.093.344-.186-.062-.467-.062-.531V9.4l.062-.248.092-.529.124-.528.249-.811.095-.342.528.53.434.466.188.25.187.217.157.25.186.28.124.279.125.28.094.28.092.249.095.28.063.28h.434l.467.032h.249l.217.031.437.094.653.124.342.094.312.092.561.219.528.249.467.28.186.156.188.155.156.157.155.123.093.155.062.157.063.093.03.124.032.217v.499l-.062.25-.032.125-.031.155-.124.279-.156.282-.062.124-.094.155-.218.312-.248.28-.25.31-.311.312-.341.28-.374.312-.404.28-.279.03-.22-.03-.25-.032-.31-.062-.28-.092-.155-.063-.188-.093-.156-.094-.154-.094-.156-.093-.125-.125-.062-.062-.062-.093-.062-.095-.094-.217-.032-.031h-.03l-.062.062-.032.062-.03.095.03.186.032.155.062.188.124.218.125.156.125.154.187.156.186.157z"/>
  <path fill="#963F1B" d="M-13.709 6.568h.154l.187.062.186.031.157.093.155.062.186.095.156.093.279.217.126.125.124.126.186.216.125.187.095.22.029.186.033.186v.344l-.033.186-.062.186-.062.217-.093.312-.094.249-.03.186-.032.062-.03.032-.032.032h-.062l-.218.03-.311.063-.156.062-.217.062-.186.063-.188.03-.186.032h-.156l-.188-.032-.186-.03-.187-.063-.157-.093-.153-.062-.126-.094-.124-.125-.094-.093-.124-.124-.094-.125-.094-.125-.062-.155-.155-.28-.093-.279-.064-.28-.029-.281v-.279l.062-.126.062-.156.062-.155.093-.157.124-.125.094-.155.124-.124.156-.124.311-.219.157-.062.156-.093.155-.031h.186zM-18.504 3.236l-.124.157-.157.125-.154.124-.187.093-.156.093-.373.157-.374.093-.343.031H-20.933l-.217-.062-.218-.062-.188-.062-.155-.095-.156-.093-.154-.124-.125-.155-.156-.188-.218-.28-.186-.217-.124-.125-.062-.062v-.155l.062-.157.092-.279.124-.406.062-.187.064-.186.124-.219.124-.186.157-.155.154-.155.156-.126.186-.124.155-.062.188-.063.156-.062.186-.031h.156l.187-.031h.187l.188.031.341.031.156.031.186.062.312.094.279.155.094.062.126.095.091.124.095.155.091.155.064.188.062.187.062.187.032.187.03.218v.498l-.03.093-.032.187-.062.155-.093.186zM-11.22 16.622l.03.126.032.156v.124l-.032.31-.062.281-.092.249-.032.124-.064.126-.124.186-.124.155-.125.094-.124.093-.124.062-.124.062-.156.031-.125.031H-13.058l-.186.031h-.248l-.031-.093-.094-.124-.124-.218-.188-.248-.154-.25-.063-.124-.031-.156-.031-.124-.032-.155v-.281l.032-.062v-.062l.031-.125.124-.219.124-.218.156-.186.156-.155.187-.157.219-.124.186-.094.093-.03.094-.032h.248l.249.062.28.094.248.124.125.094.124.063.095.093.093.124.062.094.062.124zM-35.844 8.623l-.125.032-.124.062-.279.062-.249.032h-.281l-.248-.032h-.125l-.093-.031-.156-.063-.125-.092-.124-.094-.092-.094-.094-.093-.062-.124-.064-.125-.124-.28-.062-.249-.062-.188-.062-.125-.032-.062.032-.031.031-.031.093-.124.157-.157.187-.248.092-.125.094-.093.092-.093.094-.093.126-.062.123-.062.124-.031.124-.031.126-.031h.124l.249.031.218.062.218.062.217.124.187.124.156.125.157.155.092.157.032.124.03.093.033.248V7.688l-.033.125-.092.25-.062.125-.063.124-.062.093-.094.062zM-29.523.217l.124.125.124.124.125.125.124.156.124.155.094.156.094.156.094.186.062.157.092.312.032.155.03.155.032.124-.032.095-.03.217-.032.187-.062.186-.092.156-.094.156-.126.156-.124.155-.186.124-.249.25-.156.186-.156.124-.031.032-.062.03h-.095l-.216-.093-.28-.093-.187-.031-.22-.062-.186-.031-.186-.062-.155-.062-.187-.095-.155-.124-.126-.093-.124-.155-.124-.156-.062-.126-.092-.153-.063-.157-.033-.156-.062-.31V1.744l.062-.282.096-.31.092-.25.062-.124.094-.093.094-.124.124-.095.156-.093.154-.094.157-.062.154-.062.186-.062.187-.062h.186l.188-.031h.186l.188.031.156.062.155.062z"/>
  <path fill="#FF7D00" d="M-35.19 26.865l-.216.312-.187.341-.189.341-.155.407-.124.433-.124.437-.094.499-.312-.031-.311-.061-.342-.096-.373-.092-.373-.156-.405-.156-.437-.156-.404-.188-.873-.433-.435-.219-.404-.249-.435-.249-.374-.248-.406-.28-.342-.281-.591-.5-.28-.248-.28-.248-.529-.56-.25-.282-.249-.279-.465-.592-.438-.622-.374-.654-.186-.312-.186-.341-.157-.313-.155-.342-.123-.342-.156-.373-.125-.342-.124-.375-.095-.342-.093-.374-.155-.746-.125-.747-.03-.406-.032-.372-.062-.81v-.964l-.03-.904-.062-.84-.064-.747-.062-.683-.094-.656-.094-.592-.092-.529-.124-.497-.125-.436-.157-.435-.155-.406-.156-.341-.156-.375-.186-.341-.218-.313-.279-.467-.311-.404-.281-.374-.281-.279-.248-.28-.249-.219-.405-.342-.343-.217-.186-.158-.062-.092-.032-.063v-.031l.032-.031.03-.062.094-.031.156-.062.217-.032.282-.063.372-.029.404-.033.438-.031h1.056l.591.064.592.062.312.062.311.062.344.062.31.093.343.093.342.094.341.126.312.124.344.125.342.155.467.25.466.248.403.249.408.281.403.31.374.311.342.312.342.342.312.342.312.343.279.374.281.374.25.404.248.404.217.405.218.405.186.405.188.436.156.436.156.435.156.467.124.435.25.902.093.468.094.468.154.933.094.902.092.935.063 1.026.095.966.091.872.094.809.124.747.126.685.092.311.062.28.062.312.094.248.093.281.062.25.188.435.094.216.124.189.186.341.218.342.126.125.124.156.25.248.279.219zM-32.668 10.49l-.28.063-.218.03-.218.032-.25-.032h-.125l-.154-.03-.126-.032-.092-.031-.124-.093-.094-.094v-.125l.063-.093.031-.031.062-.031.124-.062h.344l.153.062.188.031.186.093.25.126.094.062-.062-.094-.188-.187-.094-.124-.124-.156-.062-.187-.063-.155v-.28l.032-.062.063-.062h.092l.094.031.124.062.094.093.062.062.062.062.064.187.062.094.03.125.032.186.062.373.03.156zM-25.322 6.878l-.217-.155-.156-.093-.154-.155-.125-.187-.157-.186-.062-.188-.03-.155v-.062l.03-.062.062-.063.094-.03.03.03h.062l.064.032.062.031.032.031.062.062.092.124.094.157.124.279.093.249.032.093V6.288l.03-.155.033-.155.062-.157.029-.062.033-.062.093-.125.094-.03.092-.032.094.032.031.03v.032l.062.062v.343l-.031.062-.062.186-.126.156-.092.155-.188.281-.091.093z"/>
  <path fill="#F57F31" d="M-16.106 21.603l-.033.094.095-.187z"/>
  <path fill="#FF7D00" d="M-19.126 22.07h.465l.436-.031.436-.031.717-.063.404-.061-.031-.249-.031-.155v-.218l.031-.188.031-.185.032-.065.03-.092.062-.062.064-.031.061-.032.032-.031.062.031.031.032.031.031.031.062v.157l-.031.154-.031.156-.062.155-.063.126.094-.126.093-.092.126-.125.153-.124.126-.093.123-.031h.095l.062.031h.031v.029l.031.064v.03l-.031.062v.063l-.031.062-.062.062-.095.124-.123.094-.155.093-.124.062-.219.062-.094.033h.094l.219-.033H-15.671l.155.062.031.033h.062l.062.062.031.061v.063l-.062.062-.031.032-.093.061h-.093l-.157.031-.154-.031-.186-.03-.157-.063-.281-.125-.124-.031-.186.249-.124.187-.187.218-.375.437-.217.216-.218.188-.28.187-.282.187-.31.155-.342.156-.343.126-.341.124-.374.094-.343.092-.374.062-.373.031-.343.031-.341.032h-.685l-.311-.032-.281-.031.094-.621.03-.531.033-.53v-.56l-.033-.404-.03-.467-.062-.809.34.219.344.217.436.217.217.093.218.095.499.185.528.157.562.093.59.062z"/>
  <path fill="#F57F31" d="M-34.692 13.976l-.092-.215.092.215z"/>
  <path fill="#FF7D00" d="M-30.864 31.876l-.186.187-.435.498-.528.56-.249.312-.282.312-.248.309-.219.312-.187.31-.124.311-.062.157-.031.127-.032.277.032.126.031.124.062.126.062.092.062.093.032.063v.217l-.032.063-.092.094-.22.186-.341.248-.404.249-.997.592-1.153.593-1.119.591-1.028.498-.778.341-.435.156h-.062l-.126-.062-.124-.094-.062-.061-.062-.063-.032-.093v-.186l.032-.125.03-.125.094-.125.124-.155.156-.155.405-.314.248-.184.282-.188.653-.436.685-.437 1.463-.901 1.215-.716-.186-.342-.22-.529-.217-.686-.124-.341-.094-.373-.062-.344-.062-.373-.064-.372-.062-.376-.032-.372V30.071l.032-.343.062-.312.064-.28.124-.341.094-.313.124-.28.093-.249.157-.217.125-.218.124-.186.154-.187.156-.157.156-.123.155-.125.156-.125.186-.092.156-.095.155-.063.186-.06.22-.065.217-.029.219-.031h.435l.22.031.186.061.216.064.188.092.186.095.187.125.186.123.156.156.155.154.157.189.124.187.125.185.092.217.094.219.062.248.062.219.032.281.032.249v.28l-.032.249-.032.311-.062.28-.094.28-.092.311-.124.313-.187.309-.186.312zM-29.711 36.889l.031-.157.093-.374.095-.342.062-.155.031-.157.031-.28.031-.249.032-.312v-.653l-.032-.341-.031-.373-.062-.435-.125-.593-.032-.312-.062-.312-.031-.312v-.684l.031-.342h.281l.25-.031.278-.061.25-.063.281-.063.278-.093.282-.094.279-.093.28-.124.28-.124.5-.281.465-.343.25-.156.186-.185.249-.22.22-.217.184-.25.188-.278.249.092.092.062.126.063.186.155.218.156.155.217.157.22.094.28.062.155.031.154.062.251.032.28v.529l-.032.282-.062.246-.093.281-.094.249-.095.25-.124.28-.155.248-.156.22-.372.497-.188.218-.186.248-.437.436-.465.435-.468.375-.497.372-.468.374-.467.313-.468.28-.435.28 1.09.061.996.127 1.028.124.965.155.466.094.468.091.403.093.374.124.156.064.156.06.124.065.125.063.156.124.124.093.093.124.062.092.033.095.029.093-.029.094-.033.094-.031.06-.062.064-.062.06-.062.064-.124.061h-.094l-1.556-.216-1.215-.187-1.337-.218-.717-.125-.498-.093-.561-.126-.529-.124-.498-.157-.436-.154-.155-.062-.094-.092z"/>
  <path fill="#FFF" d="M-20.838 12.701v-.095l-.033-.092-.062-.125-.063-.123-.092-.124-.094-.126-.126-.124-.124-.124-.155-.126-.155-.092-.187-.126-.186-.062-.187-.093-.218-.031-.218-.031-.216-.031h-.187l-.188.031-.156.031-.186.062-.157.062-.062.031-.063.031-.154.094-.094.094-.126.093-.06.125-.094.124-.032.155-.031.157v.31l.031.125.062.124.064.124.06.093.126.126.094.093.124.062.124.094.062.03.093.032.157.062.156.031.155.062h.186l.188.031h.374l.311-.031.28-.062.279-.093.25-.094.186-.124.094-.062.092-.093.063-.064.031-.093.031-.062.033-.093z"/>
  <path fill="#FFF" d="M-22.83 11.518c.529 0 .933.404.933.902 0 .499-.406.902-.933.902-.499 0-.903-.404-.903-.902 0-.497.404-.902.903-.902z"/>
  <path fill="#FF7D00" d="M-34.41 15.72l.309.372.126.157.154.155.282.313.311.279.312.218.31.219.311.186.344.187.31.124.343.126.342.124.341.093.686.155.717.155.124.032.124.062.094.093.092.093.064.124.062.126.032.124.03.124.032.282-.032.155v.125l-.03.281-.064.248-.094.249-.124.219-.124.217-.154.186-.188.187-.187.155-.218.124-.218.095-.25.093-.249.031-.278.031-.282-.031-.154-.031-.187-.063-.186-.061-.156-.093-.374-.188-.374-.28-.343-.311-.187-.186-.155-.156-.344-.435-.154-.219-.125-.218-.312-.468-.124-.279-.124-.25-.217-.559-.094-.281-.094-.28-.062-.312-.062-.28-.062-.31-.03-.312-.034-.311-.028-.312.028-.343V15.004l-.215-.124-.344-.218-.156-.155-.156-.157-.094-.155v-.248l.032-.032.062-.031.031-.033h.062l.095.033.062.031.062.062.125.125.124.155.158.28-.063-.156-.033-.155v-.561l.062-.155.062-.093h.034l.028-.032h.096l.03.032.062.03.032.032.03.062.062.155.032.188v.156l-.032.186-.03.155-.094.25-.03.094.03-.094.156-.188.187-.279.125-.093.155-.124.124-.063h.156l.062.063.03.062v.093l-.03.093-.062.093-.032.062-.032.031-.124.126-.123.093-.124.125-.28.155-.188.124z"/>
  <path fill="#963F1B" d="M-21.275 12.763l-.033.062-.091.062-.124.093-.157.093-.217.095-.094.031-.124.031-.125.031h-.124l-.312.031h-.278l-.22-.062-.124-.124-.093-.157-.062-.155-.032-.155v-.404l.032-.126.03-.093.062-.093.095-.093.062-.094.125-.062.125-.062.124-.032h.154l.124.032h.126l.218.093.249.156.217.186.095.095.091.093.157.184.091.187.033.095v.03z"/>
  <g fill="#963F1B">
    <path d="M76.257 22.479l-5.591 3.449 6.074 10.37-.444.224-.261.11-.331.109-.371.111-.481.074-.258.037-.336.037h-1.036l-.335-.074-.294-.074-.3-.075-.293-.145-.298-.15-.259-.148-.26-.224-.258-.221-.222-.225-.222-.258-.221-.256-.225-.298-.183-.295-.41-.634-1.11-2.033-1.186-2.188-1.368-2.52-1.298 9.152h-5.185l2.779-19.594h5.182l-1.334 9.483 6.447-3.78-.147-.111-.113-.109-.222-.3-.109-.148-.076-.146-.148-.334-.076-.186-.072-.184-.037-.187v-.183l-.035-.184v-.225l.035-.183v-.223l.074-.333.035-.152.076-.185.11-.295.15-.295.186-.3.222-.293.223-.257.11-.114.111-.111.297-.223.259-.185.147-.11.148-.074.296-.149.186-.038.149-.071.332-.076.333-.034.334-.041.37.041h.151l.145.034.188.038.146.038.295.109.259.149.261.184.224.185.22.223.185.225.149.257.151.293.072.3.038.148.036.147.039.295v.337l-.039.333-.036.223-.038.219-.072.225-.076.222-.11.184-.074.221-.261.37-.11.149-.15.189-.258.295-.296.258zM87.26 33.629h-.148l-.145-.037-.149-.039-.148-.07-.146-.077-.149-.109-.146-.109-.112-.112-.109-.148-.15-.148-.186-.331-.187-.408-.185-.443-.15-.481-.037-.26-.076-.258-.072-.594-.037-.594-.038-.627v-.672l.038-.333v-.332l.076-.704.145-.708.15-.704.147-.666.222-.627.227-.633.221-.553.258-.52.298-.518.301-.445.294-.408.333-.33.298-.299.333-.222.37-.184.146-.04.186-.073h.146l.187-.038.148.038h.146l.182.073.15.04.109.074.149.109.149.113.109.109.146.147.113.152.111.182.075.148.219.406.151.443.147.519.035.257.074.262.075.554.041.636.035.627v.666l-.035.337v.372l-.076.703-.146.704-.146.671-.149.666-.222.632-.225.589-.109.299-.111.291-.298.518-.257.485-.299.443-.334.408-.299.331-.146.148-.184.148-.334.222-.333.187-.142.07-.188.039-.147.037h-.19v-.001zm7.963 3.334l2.56-17.931v-.518l-.04-.257-.036-.261-.109-.223-.076-.224-.149-.181-.146-.187-.146-.186-.187-.146-.184-.109-.225-.114-.222-.111-.22-.041-.261-.032-.258-.041-.264.044-.257.033-.261.041-.258.111-.26.114-.221.11-.227.148-.186.184-.223.182-.146.184-.146.222-.147.222-.109.261-.118.257-.07.261-.039.26-.039.225-.226-.335-.219-.296-.226-.296-.225-.257-.26-.261-.258-.225-.29-.22-.257-.187-.295-.186-.336-.146-.291-.151-.336-.109-.332-.074-.336-.038-.367-.033-.332-.042-.37.042-.374.033-.367.038-.372.109-.37.114-.369.147-.335.147-.37.184-.334.225-.367.222-.331.261-.335.26-.631.594-.297.33-.299.328-.295.374-.26.369-.258.37-.263.408-.479.854-.226.443-.222.484-.186.443-.184.481-.152.479-.143.518-.148.482-.111.521-.115.521-.068.554-.077.518-.038.519-.037.514v1.005l.037.479.038.481.077.446.068.441.115.447.111.443.109.409.148.403.146.404.187.371.186.332.222.371.186.295.26.333.221.261.261.296.259.224.303.262.255.184.3.186.33.148.3.146.328.109.374.109.331.078.367.047h.746l.369-.037.37-.072.404-.113.374-.109.37-.146.369-.188.33-.18.376-.229.33-.223.366-.257.335-.262.334-.295.297-.332.332-.331.295-.328.076.328.075.331.144.295.148.299.185.261.186.258.226.223.261.224.109.109.144.109.26.152.303.146.328.148.302.109.366.076.335.034h.375l.7-.037zM44.736 23.665l.333-.892.338-.85.366-.775.186-.335.186-.368.188-.336.219-.33.222-.299.188-.296.48-.521.444-.483.223-.219.257-.187.261-.182.222-.187.256-.146.262-.152.26-.146.259-.11.518-.187.26-.073.262-.074.294-.038.257-.034.558-.041h.335l.295.041.295.034.259.076.296.071.222.074.444.222.222.151.187.109.183.149.15.185.296.336.257.367.186.371.186.409.114.408.072.407.037.368.036.409-.036.334-.037.37-2.111 15.187-.667-.039h-.443l-.443-.075-.41-.109-.405-.149-.187-.109-.187-.076-.333-.223-.332-.257-.112-.152-.148-.143-.146-.185-.114-.151-.221-.334-.148-.37-.146-.406-.04-.184-.036-.224-.038-.222-.038-.224v-.665l.038-.225 1.335-9.333.109-.666v-.186l.037-.146v-.295l-.037-.15-.036-.11-.036-.111-.037-.038-.038-.073-.113-.075-.147-.039-.148-.037h-.37l-.15.037-.185.075-.184.112-.223.109-.182.15-.226.22-.219.225-.184.258-.224.336-.223.332-.185.407-.186.445-.221.483-.187.553-.145.557-.445 1.631-.336 1.26-.222.961-.186.817-.295 1.403-.22.779-.261.889-.148.447-.185.442-.224.403-.221.412-.261.37-.257.37-.297.296-.294.298-.335.295-.371.225-.37.224-.409.146-.405.148-.444.11-.444.037-.448.037h-.332l-.334-.074-.295-.074-.297-.111-.261-.145-.223-.183-.221-.188-.224-.224-.071-.112-.075-.111-.074-.147-.075-.115-.111-.293-.074-.258-.073-.336v-.628l.037-.334.075-.337.112-.33.109-.297.149-.295.145-.295.189-.223.182-.258.223-.225.223-.184.113-.077.143-.074.263-.144.258-.151.297-.072.3-.076.329-.037.336-.033.258.033.222.037.184.039.189.074.33.186.297.185.222.182.075.037.109.039.075.036.037-.036.075-.039.038-.109.332-1.002.259-.961.259-.926.185-.89.185-.889.224-.927.258-.927zM37.997 21.775l.036-.441v-.452l-.036-.219-.042-.225-.111-.48-.15-.447-.11-.223-.109-.222-.11-.225-.15-.223-.332-.406-.186-.184-.223-.186-.184-.186-.261-.148-.259-.184-.26-.147-.295-.109-.296-.152-.334-.109-.334-.109-.332-.077-.406-.07-.37-.077-.444-.029-.407-.041h-.482l-.518.041-.518.033-.515.076-.487.071-.514.114-.484.147-.444.186-.48.187-.444.223-.409.222-.444.257-.404.3-.374.292-.37.296-.368.332-.375.372-.328.371-.336.369-.298.371-.301.408-.255.441-.259.409-.226.446-.221.48-.226.443-.186.481-.143.485-.151.479-.109.485-.115.514-.109.485-.036.518-.041.485-.037.48v1.001l.037.443.075.481.074.483.109.443.11.445.151.442.148.409.184.408.186.404.221.371.226.37.221.368.299.339.256.331.301.295.331.295.331.26.334.258.371.224.369.223.408.187.404.146.227.079.184.069.445.113.446.111.48.07.482.043H30.067l.405-.043.371-.036.371-.04.301-.033.328-.042.259-.078.3-.07.222-.07.445-.148.408-.186.328-.185.259-.187.226-.187.223-.184.147-.225.144-.184.115-.225.113-.224.035-.225.109-.407v-.366l-.035-.373-.071-.289-.557.332-.186.072-.187.109-.44.2-.261.072-.26.112-.296.073-.332.036-.335.078-.33.036-.408.039h-.403l-.446-.039h-.225l-.222-.075-.186-.039-.226-.075-.184-.071-.221-.072-.185-.112-.186-.109-.335-.262-.148-.146-.185-.145-.147-.186-.11-.186-.146-.223-.116-.188-.223-.482-.074-.261-.073-.258-.073-.295-.039-.262-.075-.331v-.296l-.037-.331v-.376l.037-.738.075-.778h.592l.591-.039.593-.037.556-.033.52-.076.52-.077.513-.109.259-.032.226-.077.479-.113.444-.113.891-.332.371-.145.404-.186.373-.183.329-.188.332-.224.334-.186.558-.483.258-.223.221-.257.227-.224.221-.258.186-.3.148-.257.148-.262.109-.295.112-.299.076-.26.034-.297.047-.29zm-10.445 3.814l.034-.519.109-.518.113-.552.149-.593.146-.558.222-.555.112-.296.114-.257.221-.522.3-.519.296-.443.145-.222.148-.187.187-.186.183-.184.185-.149.186-.145.226-.112.185-.076.222-.109.227-.038.221-.038H31.894l.146.038.148.038.149.072.109.074.112.111.109.114.073.147.075.147.039.109v.076l.071.185.042.224v1l-.076.296-.073.372-.118.33-.146.371-.188.37-.219.368-.261.375-.149.186-.187.186-.334.297-.185.186-.221.146-.186.148-.227.109-.479.258-.26.074-.259.109-.295.076-.297.075-.301.039-.295.034-.334.042h-.328v-.004zM17.511 29.146l-.258.704-.151.37-.143.334-.148.332-.187.332-.185.332-.187.334-.225.338-.223.295-.225.299-.255.295-.259.258-.259.298-.261.261-.293.225-.302.258-.328.219-.301.223-.329.186-.371.186-.335.184-.371.148-.37.151-.374.148-.405.109-.408.109-.404.076-.408.075-.445.034-.444.039H-.527l3.244-24.163.051-.17.112-.371.147-.406.186-.335.186-.333.183-.297.224-.258.114-.111.144-.113.225-.147.295-.109.556-.224.26-.073h.147l.146-.041.558-.073.221-.038h.26L7.102 9H18.847v.184l-.074.408-.076.258-.074.26-.11.258-.113.186-.221.296-.223.258-.261.186-.293.149-.148.035-.151.075-.328.073h-.151l-.186.038H7.955l-1.002 7.705.299-.297.294-.295.297-.296.301-.261.665-.483.295-.186.333-.223.333-.147.371-.146.333-.146.331-.114.369-.075.334-.073.369-.038h.704l.371.038.333.073.371.075.335.144.294.116.334.146.301.186.296.225.26.225.148.112.15.145.254.261.226.296.22.296.446.668.184.371.185.366.149.409.147.41.109.404.149.446.077.479.075.447.076.481.039.519.038.518v1.037l-.038.558-.074.557-.078.588-.075.481-.073.522-.112.48-.147.48h-.04v-.002zM4.993 33.777H7.03l.3-.073.254-.037.259-.075.226-.072.262-.114.221-.071.226-.147.221-.109.409-.3.368-.331.186-.187.184-.186.149-.185.147-.186.298-.406.294-.444.26-.443.111-.228.112-.223.182-.442.186-.443.145-.445.148-.738.112-.709.074-.701.035-.706.036-.665-.036-.627-.035-.334v-.293l-.04-.263-.073-.295-.038-.263-.075-.257-.109-.519-.11-.223-.072-.225-.075-.184-.109-.225-.225-.33-.11-.149-.111-.147-.149-.109-.109-.112-.296-.185-.153-.041-.149-.071h-.146l-.185-.038-.261.038-.299.071-.297.152-.292.187-.298.219-.259.262-.3.296-.254.367-.259.37-.259.445-.226.445-.222.481-.223.522-.184.551-.186.557-.141.558-1.077 8.035z"/>
  </g>
</svg>
