<?xml version="1.0" encoding="utf-8"?>
<!-- Generator: Adobe Illustrator 15.1.0, SVG Export Plug-In . SVG Version: 6.00 Build 0)  -->
<!DOCTYPE svg PUBLIC "-//W3C//DTD SVG 1.1//EN" "http://www.w3.org/Graphics/SVG/1.1/DTD/svg11.dtd">
<svg version="1.1" id="Layer_1" xmlns="http://www.w3.org/2000/svg" xmlns:xlink="http://www.w3.org/1999/xlink" x="0px" y="0px"
	 width="150px" height="40px" viewBox="-52.217 0 150 40" enable-background="new -52.217 0 150 40" xml:space="preserve">
<g>
	<polygon fill="#FF7D00" points="-21.711,17.557 -21.523,17.65 -21.212,17.774 -21.556,17.899 -21.897,18.056 -22.24,18.149 
		-22.614,18.242 -22.954,18.335 -23.329,18.397 -23.704,18.428 -24.077,18.459 -24.015,18.832 -23.921,19.299 -23.733,20.39 
		-23.671,21.013 -23.609,21.323 -23.58,21.665 -23.547,22.35 -23.547,22.693 -23.547,23.033 -23.547,23.409 -23.58,23.783 
		-23.609,24.125 -23.671,24.498 -23.733,24.871 -23.828,25.213 -23.921,25.588 -23.983,25.773 -24.045,25.929 -24.169,26.305 
		-24.327,26.648 -24.513,26.988 -24.699,27.301 -24.948,27.642 -25.198,27.953 -25.477,28.234 -25.787,28.545 -26.161,28.826 
		-26.566,29.106 -26.816,29.26 -27.034,29.355 -27.282,29.479 -27.532,29.604 -28.061,29.791 -28.309,29.852 -28.558,29.915 
		-28.84,29.977 -29.088,30.008 -29.617,30.071 -29.587,29.511 -29.555,29.23 -29.555,28.98 -29.587,28.732 -29.587,28.515 
		-29.68,28.078 -29.742,27.891 -29.804,27.705 -29.867,27.518 -29.959,27.363 -30.147,27.021 -30.271,26.865 -30.395,26.74 
		-30.52,26.615 -30.644,26.49 -30.926,26.272 -31.08,26.18 -31.266,26.088 -31.453,25.992 -31.641,25.929 -32.045,25.805 
		-32.262,25.773 -32.481,25.744 -32.698,25.744 -32.916,25.744 -33.136,25.773 -33.352,25.805 -33.29,25.371 -33.198,24.935 
		-33.104,24.498 -32.948,24.031 -32.76,23.565 -32.574,23.065 -32.325,22.6 -32.045,22.102 -31.827,22.194 -31.609,22.287 
		-31.391,22.35 -31.142,22.412 -30.894,22.412 -30.677,22.412 -30.427,22.381 -30.179,22.35 -29.959,22.287 -29.742,22.194 
		-29.523,22.102 -29.305,21.977 -29.118,21.853 -28.932,21.697 -28.778,21.542 -28.652,21.354 -28.496,21.137 -28.404,20.949 
		-28.309,20.732 -28.247,20.483 -28.184,20.266 -28.155,20.047 -28.155,19.829 -28.155,19.611 -28.155,19.393 -28.217,19.206 
		-28.247,19.02 -28.309,18.832 -28.404,18.708 -28.496,18.553 -28.62,18.459 -28.744,18.366 -28.247,17.992 -27.811,17.712 
		-27.408,17.433 -27.532,17.309 -27.625,17.183 -27.749,17.028 -27.844,16.841 -27.999,16.436 -28.093,16.249 -28.155,16 
		-28.247,15.564 -28.279,15.347 -28.279,15.13 -28.279,14.911 -28.247,14.693 -28.217,14.507 -28.155,14.35 -28.466,14.226 
		-28.744,14.102 -29.026,13.947 -29.305,13.789 -29.555,13.603 -29.835,13.417 -30.365,13.011 -30.615,12.794 -30.832,12.576 
		-31.266,12.142 -31.641,11.705 -31.951,11.3 -32.199,10.958 -32.386,10.678 -32.481,10.49 -32.544,10.428 -32.325,10.428 
		-31.827,10.366 -31.112,10.335 -30.739,10.335 -30.333,10.335 -29.991,10.366 -29.649,10.397 -29.026,10.49 -28.466,10.615 
		-27.937,10.77 -27.687,10.864 -27.47,10.958 -27.034,11.145 -26.692,11.362 -26.38,11.58 -26.223,11.424 -26.069,11.331 
		-25.725,11.145 -25.787,10.678 -25.849,10.147 -25.849,9.682 -25.849,9.4 -25.787,9.152 -25.695,8.623 -25.571,8.095 
		-25.322,7.284 -25.227,6.942 -24.699,7.472 -24.265,7.938 -24.077,8.188 -23.89,8.405 -23.733,8.655 -23.547,8.935 -23.423,9.214 
		-23.298,9.494 -23.204,9.774 -23.112,10.023 -23.017,10.303 -22.954,10.583 -22.52,10.583 -22.053,10.615 -21.804,10.615 
		-21.587,10.646 -21.15,10.74 -20.497,10.864 -20.155,10.958 -19.843,11.05 -19.282,11.269 -18.754,11.518 -18.287,11.798 
		-18.101,11.954 -17.913,12.109 -17.757,12.266 -17.602,12.389 -17.509,12.544 -17.447,12.701 -17.384,12.794 -17.354,12.918 
		-17.322,13.135 -17.322,13.385 -17.322,13.634 -17.384,13.884 -17.416,14.009 -17.447,14.164 -17.571,14.443 -17.727,14.725 
		-17.789,14.849 -17.883,15.004 -18.101,15.316 -18.349,15.596 -18.599,15.906 -18.91,16.218 -19.251,16.498 -19.625,16.81 
		-20.029,17.09 -20.308,17.12 -20.528,17.09 -20.778,17.058 -21.088,16.996 -21.368,16.904 -21.523,16.841 -21.711,16.748 
		-21.867,16.654 -22.021,16.56 -22.177,16.467 -22.302,16.342 -22.364,16.28 -22.426,16.187 -22.488,16.092 -22.582,15.875 
		-22.614,15.844 -22.644,15.844 -22.706,15.906 -22.738,15.968 -22.768,16.063 -22.738,16.249 -22.706,16.404 -22.644,16.592 
		-22.52,16.81 -22.395,16.966 -22.27,17.12 -22.083,17.276 -21.897,17.433 	"/>
	<polygon fill="#963F1B" points="-13.709,6.568 -13.555,6.568 -13.368,6.63 -13.182,6.661 -13.025,6.754 -12.87,6.816 
		-12.684,6.911 -12.528,7.004 -12.249,7.221 -12.123,7.346 -11.999,7.472 -11.813,7.688 -11.688,7.875 -11.593,8.095 -11.564,8.281 
		-11.531,8.467 -11.531,8.623 -11.531,8.811 -11.564,8.997 -11.626,9.183 -11.688,9.4 -11.781,9.712 -11.875,9.961 -11.905,10.147 
		-11.937,10.209 -11.967,10.241 -11.999,10.273 -12.061,10.273 -12.279,10.303 -12.59,10.366 -12.746,10.428 -12.963,10.49 
		-13.149,10.553 -13.337,10.583 -13.523,10.615 -13.679,10.615 -13.867,10.583 -14.053,10.553 -14.24,10.49 -14.397,10.397 
		-14.55,10.335 -14.676,10.241 -14.8,10.116 -14.894,10.023 -15.018,9.899 -15.112,9.774 -15.206,9.649 -15.268,9.494 
		-15.423,9.214 -15.516,8.935 -15.58,8.655 -15.609,8.374 -15.609,8.25 -15.609,8.095 -15.547,7.969 -15.485,7.813 -15.423,7.658 
		-15.33,7.501 -15.206,7.376 -15.112,7.221 -14.988,7.097 -14.832,6.973 -14.521,6.754 -14.364,6.692 -14.208,6.599 -14.053,6.568 
		-13.867,6.568 	"/>
	<polygon fill="#963F1B" points="-18.504,3.236 -18.628,3.393 -18.785,3.518 -18.939,3.642 -19.126,3.735 -19.282,3.828 
		-19.655,3.985 -20.029,4.078 -20.372,4.109 -20.684,4.109 -20.933,4.109 -21.15,4.047 -21.368,3.985 -21.556,3.923 -21.711,3.828 
		-21.867,3.735 -22.021,3.611 -22.146,3.456 -22.302,3.268 -22.52,2.988 -22.706,2.771 -22.83,2.646 -22.892,2.584 -22.892,2.522 
		-22.892,2.491 -22.892,2.429 -22.83,2.272 -22.738,1.993 -22.614,1.587 -22.552,1.4 -22.488,1.214 -22.364,0.995 -22.24,0.809 
		-22.083,0.654 -21.929,0.499 -21.773,0.373 -21.587,0.249 -21.432,0.187 -21.244,0.124 -21.088,0.062 -20.902,0.031 -20.746,0.031 
		-20.559,0 -20.372,0 -20.184,0.031 -19.843,0.062 -19.687,0.093 -19.501,0.155 -19.189,0.249 -18.91,0.404 -18.816,0.466 
		-18.69,0.561 -18.599,0.685 -18.504,0.84 -18.413,0.995 -18.349,1.183 -18.287,1.37 -18.225,1.557 -18.193,1.744 -18.163,1.962 
		-18.163,2.365 -18.163,2.46 -18.193,2.553 -18.225,2.74 -18.287,2.895 -18.38,3.081 	"/>
	<polygon fill="#963F1B" points="-11.22,16.622 -11.19,16.748 -11.158,16.904 -11.158,17.028 -11.19,17.338 -11.252,17.619 
		-11.344,17.868 -11.376,17.992 -11.44,18.118 -11.564,18.304 -11.688,18.459 -11.813,18.553 -11.937,18.646 -12.061,18.708 
		-12.185,18.77 -12.341,18.801 -12.466,18.832 -12.808,18.832 -13.058,18.832 -13.244,18.863 -13.399,18.863 -13.492,18.863 
		-13.523,18.77 -13.617,18.646 -13.741,18.428 -13.929,18.18 -14.083,17.93 -14.146,17.806 -14.177,17.65 -14.208,17.526 
		-14.24,17.371 -14.24,17.247 -14.24,17.09 -14.208,17.028 -14.208,16.966 -14.177,16.841 -14.053,16.622 -13.929,16.404 
		-13.773,16.218 -13.617,16.063 -13.43,15.906 -13.211,15.782 -13.025,15.688 -12.932,15.658 -12.838,15.626 -12.59,15.626 
		-12.341,15.688 -12.061,15.782 -11.813,15.906 -11.688,16 -11.564,16.063 -11.469,16.156 -11.376,16.28 -11.314,16.374 
		-11.252,16.498 	"/>
	<polygon fill="#963F1B" points="-35.844,8.623 -35.969,8.655 -36.093,8.717 -36.372,8.779 -36.621,8.811 -36.902,8.811 
		-37.15,8.779 -37.275,8.779 -37.368,8.748 -37.524,8.685 -37.649,8.593 -37.773,8.499 -37.865,8.405 -37.959,8.312 -38.021,8.188 
		-38.085,8.063 -38.209,7.783 -38.271,7.534 -38.333,7.346 -38.395,7.221 -38.427,7.159 -38.395,7.128 -38.364,7.097 -38.271,6.973 
		-38.114,6.816 -37.927,6.568 -37.835,6.443 -37.741,6.35 -37.649,6.257 -37.555,6.164 -37.429,6.102 -37.306,6.04 -37.182,6.009 
		-37.058,5.978 -36.932,5.947 -36.808,5.947 -36.559,5.978 -36.341,6.04 -36.123,6.102 -35.906,6.226 -35.719,6.35 -35.563,6.475 
		-35.406,6.63 -35.314,6.787 -35.282,6.911 -35.252,7.004 -35.219,7.252 -35.219,7.534 -35.219,7.688 -35.252,7.813 -35.344,8.063 
		-35.406,8.188 -35.469,8.312 -35.531,8.405 -35.625,8.467 	"/>
	<polygon fill="#963F1B" points="-29.523,0.217 -29.399,0.342 -29.275,0.466 -29.15,0.591 -29.026,0.747 -28.902,0.902 
		-28.808,1.058 -28.714,1.214 -28.62,1.4 -28.558,1.557 -28.466,1.869 -28.434,2.024 -28.404,2.179 -28.372,2.303 -28.404,2.398 
		-28.434,2.615 -28.466,2.802 -28.528,2.988 -28.62,3.144 -28.714,3.3 -28.84,3.456 -28.964,3.611 -29.15,3.735 -29.399,3.985 
		-29.555,4.171 -29.711,4.295 -29.742,4.327 -29.804,4.357 -29.899,4.357 -30.115,4.264 -30.395,4.171 -30.582,4.14 -30.802,4.078 
		-30.988,4.047 -31.174,3.985 -31.329,3.923 -31.516,3.828 -31.671,3.704 -31.797,3.611 -31.921,3.456 -32.045,3.3 -32.107,3.174 
		-32.199,3.021 -32.262,2.864 -32.295,2.708 -32.357,2.398 -32.357,2.086 -32.357,1.931 -32.357,1.744 -32.295,1.462 -32.199,1.152 
		-32.107,0.902 -32.045,0.778 -31.951,0.685 -31.857,0.561 -31.733,0.466 -31.577,0.373 -31.423,0.279 -31.266,0.217 -31.112,0.155 
		-30.926,0.093 -30.739,0.031 -30.553,0.031 -30.365,0 -30.179,0 -29.991,0.031 -29.835,0.093 -29.68,0.155 	"/>
	<polygon fill="#FF7D00" points="-35.19,26.865 -35.406,27.177 -35.593,27.518 -35.782,27.859 -35.937,28.266 -36.061,28.699 
		-36.185,29.136 -36.279,29.635 -36.591,29.604 -36.902,29.543 -37.244,29.447 -37.617,29.355 -37.99,29.199 -38.395,29.043 
		-38.832,28.887 -39.236,28.699 -40.109,28.266 -40.544,28.047 -40.948,27.798 -41.383,27.549 -41.757,27.301 -42.163,27.021 
		-42.505,26.74 -43.096,26.24 -43.376,25.992 -43.656,25.744 -44.185,25.184 -44.435,24.902 -44.684,24.623 -45.149,24.031 
		-45.587,23.409 -45.961,22.755 -46.147,22.443 -46.333,22.102 -46.49,21.789 -46.645,21.447 -46.768,21.105 -46.924,20.732 
		-47.049,20.39 -47.173,20.015 -47.268,19.673 -47.361,19.299 -47.516,18.553 -47.641,17.806 -47.671,17.4 -47.703,17.028 
		-47.765,16.218 -47.765,15.254 -47.795,14.35 -47.857,13.51 -47.921,12.763 -47.983,12.08 -48.077,11.424 -48.171,10.832 
		-48.263,10.303 -48.387,9.806 -48.512,9.37 -48.669,8.935 -48.824,8.529 -48.98,8.188 -49.136,7.813 -49.322,7.472 -49.54,7.159 
		-49.819,6.692 -50.13,6.288 -50.411,5.914 -50.692,5.635 -50.94,5.355 -51.189,5.136 -51.594,4.794 -51.937,4.577 -52.123,4.419 
		-52.185,4.327 -52.217,4.264 -52.217,4.233 -52.185,4.202 -52.155,4.14 -52.061,4.109 -51.905,4.047 -51.688,4.015 -51.406,3.952 
		-51.034,3.923 -50.63,3.89 -50.192,3.859 -49.664,3.859 -49.136,3.859 -48.545,3.923 -47.953,3.985 -47.641,4.047 -47.33,4.109 
		-46.986,4.171 -46.676,4.264 -46.333,4.357 -45.991,4.451 -45.65,4.577 -45.338,4.701 -44.994,4.826 -44.652,4.981 -44.185,5.231 
		-43.719,5.479 -43.316,5.728 -42.908,6.009 -42.505,6.319 -42.131,6.63 -41.789,6.942 -41.447,7.284 -41.135,7.626 -40.823,7.969 
		-40.544,8.343 -40.263,8.717 -40.013,9.121 -39.765,9.525 -39.548,9.93 -39.33,10.335 -39.144,10.74 -38.956,11.176 -38.8,11.612 
		-38.644,12.047 -38.488,12.514 -38.364,12.949 -38.114,13.851 -38.021,14.319 -37.927,14.787 -37.773,15.72 -37.679,16.622 
		-37.587,17.557 -37.524,18.583 -37.429,19.549 -37.338,20.421 -37.244,21.23 -37.12,21.977 -36.994,22.662 -36.902,22.973 
		-36.84,23.253 -36.778,23.565 -36.684,23.813 -36.591,24.094 -36.529,24.344 -36.341,24.779 -36.247,24.995 -36.123,25.184 
		-35.937,25.525 -35.719,25.867 -35.593,25.992 -35.469,26.148 -35.219,26.396 -34.94,26.615 	"/>
	<polygon fill="#FF7D00" points="-32.668,10.49 -32.948,10.553 -33.166,10.583 -33.384,10.615 -33.634,10.583 -33.759,10.583 
		-33.913,10.553 -34.039,10.521 -34.131,10.49 -34.255,10.397 -34.349,10.303 -34.349,10.241 -34.349,10.178 -34.286,10.085 
		-34.255,10.054 -34.193,10.023 -34.069,9.961 -33.913,9.961 -33.725,9.961 -33.572,10.023 -33.384,10.054 -33.198,10.147 
		-32.948,10.273 -32.854,10.335 -32.916,10.241 -33.104,10.054 -33.198,9.93 -33.322,9.774 -33.384,9.587 -33.447,9.432 
		-33.447,9.276 -33.447,9.152 -33.415,9.09 -33.352,9.028 -33.26,9.028 -33.166,9.059 -33.042,9.121 -32.948,9.214 -32.886,9.276 
		-32.824,9.338 -32.76,9.525 -32.698,9.619 -32.668,9.744 -32.636,9.93 -32.574,10.303 -32.544,10.459 	"/>
	<polygon fill="#FF7D00" points="-25.322,6.878 -25.539,6.723 -25.695,6.63 -25.849,6.475 -25.974,6.288 -26.131,6.102 
		-26.193,5.914 -26.223,5.759 -26.223,5.697 -26.193,5.635 -26.131,5.572 -26.037,5.542 -26.007,5.572 -25.945,5.572 -25.881,5.604 
		-25.819,5.635 -25.787,5.666 -25.725,5.728 -25.633,5.852 -25.539,6.009 -25.415,6.288 -25.322,6.537 -25.29,6.63 -25.29,6.537 
		-25.29,6.288 -25.26,6.133 -25.227,5.978 -25.165,5.821 -25.136,5.759 -25.103,5.697 -25.01,5.572 -24.916,5.542 -24.824,5.51 
		-24.73,5.542 -24.699,5.572 -24.699,5.604 -24.637,5.666 -24.637,5.79 -24.637,5.947 -24.637,6.009 -24.668,6.071 -24.73,6.257 
		-24.856,6.413 -24.948,6.568 -25.136,6.849 -25.227,6.942 	"/>
	<polygon fill="#F57F31" points="-16.106,21.603 -16.139,21.697 -16.044,21.51 	"/>
	<polygon fill="#FF7D00" points="-19.126,22.07 -18.661,22.07 -18.225,22.039 -17.789,22.008 -17.072,21.945 -16.668,21.884 
		-16.699,21.635 -16.73,21.48 -16.73,21.262 -16.699,21.074 -16.668,20.889 -16.636,20.824 -16.606,20.732 -16.544,20.67 
		-16.48,20.639 -16.419,20.607 -16.387,20.576 -16.325,20.607 -16.294,20.639 -16.263,20.67 -16.232,20.732 -16.232,20.795 
		-16.232,20.889 -16.263,21.043 -16.294,21.199 -16.356,21.354 -16.419,21.48 -16.325,21.354 -16.232,21.262 -16.106,21.137 
		-15.953,21.013 -15.827,20.92 -15.704,20.889 -15.671,20.889 -15.609,20.889 -15.547,20.92 -15.516,20.92 -15.516,20.949 
		-15.485,21.013 -15.485,21.043 -15.516,21.105 -15.516,21.168 -15.547,21.23 -15.609,21.292 -15.704,21.416 -15.827,21.51 
		-15.982,21.603 -16.106,21.665 -16.325,21.727 -16.419,21.76 -16.325,21.76 -16.106,21.727 -15.827,21.727 -15.671,21.727 
		-15.516,21.789 -15.485,21.822 -15.423,21.822 -15.361,21.884 -15.33,21.945 -15.33,22.008 -15.392,22.07 -15.423,22.102 
		-15.516,22.163 -15.609,22.163 -15.766,22.194 -15.92,22.163 -16.106,22.133 -16.263,22.07 -16.544,21.945 -16.668,21.914 
		-16.854,22.163 -16.978,22.35 -17.165,22.568 -17.54,23.005 -17.757,23.221 -17.975,23.409 -18.255,23.596 -18.537,23.783 
		-18.847,23.938 -19.189,24.094 -19.532,24.22 -19.873,24.344 -20.247,24.438 -20.59,24.53 -20.964,24.592 -21.337,24.623 
		-21.68,24.654 -22.021,24.686 -22.364,24.686 -22.706,24.686 -23.017,24.654 -23.298,24.623 -23.204,24.002 -23.174,23.471 
		-23.141,22.941 -23.141,22.381 -23.174,21.977 -23.204,21.51 -23.266,20.701 -22.926,20.92 -22.582,21.137 -22.146,21.354 
		-21.929,21.447 -21.711,21.542 -21.212,21.727 -20.684,21.884 -20.122,21.977 -19.532,22.039 	"/>
	<path fill="#F57F31" d="M-34.692,13.976l-0.092-0.215L-34.692,13.976z"/>
	<polygon fill="#FF7D00" points="-30.864,31.876 -31.05,32.063 -31.485,32.561 -32.013,33.121 -32.262,33.433 -32.544,33.745 
		-32.792,34.054 -33.011,34.366 -33.198,34.676 -33.322,34.987 -33.384,35.144 -33.415,35.271 -33.447,35.548 -33.415,35.674 
		-33.384,35.798 -33.322,35.924 -33.26,36.016 -33.198,36.109 -33.166,36.172 -33.166,36.265 -33.166,36.389 -33.198,36.452 
		-33.29,36.546 -33.51,36.732 -33.851,36.98 -34.255,37.229 -35.252,37.821 -36.405,38.414 -37.524,39.005 -38.552,39.503 
		-39.33,39.844 -39.765,40 -39.797,40 -39.827,40 -39.953,39.938 -40.077,39.844 -40.139,39.783 -40.201,39.72 -40.233,39.627 
		-40.233,39.535 -40.233,39.441 -40.201,39.316 -40.171,39.191 -40.077,39.066 -39.953,38.911 -39.797,38.756 -39.392,38.442 
		-39.144,38.258 -38.862,38.07 -38.209,37.634 -37.524,37.197 -36.061,36.296 -34.846,35.58 -35.032,35.238 -35.252,34.709 
		-35.469,34.023 -35.593,33.682 -35.687,33.309 -35.749,32.965 -35.811,32.592 -35.875,32.22 -35.937,31.844 -35.969,31.472 
		-35.969,31.128 -35.969,30.414 -35.969,30.071 -35.937,29.728 -35.875,29.416 -35.811,29.136 -35.687,28.795 -35.593,28.482 
		-35.469,28.202 -35.376,27.953 -35.219,27.736 -35.094,27.518 -34.97,27.332 -34.816,27.145 -34.66,26.988 -34.504,26.865 
		-34.349,26.74 -34.193,26.615 -34.007,26.523 -33.851,26.428 -33.696,26.365 -33.51,26.305 -33.29,26.24 -33.073,26.211 
		-32.854,26.18 -32.636,26.18 -32.419,26.18 -32.199,26.211 -32.013,26.272 -31.797,26.336 -31.609,26.428 -31.423,26.523 
		-31.236,26.648 -31.05,26.771 -30.894,26.927 -30.739,27.081 -30.582,27.27 -30.458,27.457 -30.333,27.642 -30.241,27.859 
		-30.147,28.078 -30.085,28.326 -30.023,28.545 -29.991,28.826 -29.959,29.075 -29.959,29.355 -29.991,29.604 -30.023,29.915 
		-30.085,30.195 -30.179,30.475 -30.271,30.786 -30.395,31.099 -30.582,31.408 -30.768,31.72 	"/>
	<polygon fill="#FF7D00" points="-29.711,36.889 -29.68,36.732 -29.587,36.358 -29.492,36.016 -29.43,35.861 -29.399,35.704 
		-29.368,35.424 -29.337,35.175 -29.305,34.863 -29.305,34.551 -29.305,34.21 -29.337,33.869 -29.368,33.496 -29.43,33.061 
		-29.555,32.468 -29.587,32.156 -29.649,31.844 -29.68,31.532 -29.68,31.191 -29.68,30.848 -29.649,30.506 -29.368,30.506 
		-29.118,30.475 -28.84,30.414 -28.59,30.351 -28.309,30.288 -28.031,30.195 -27.749,30.101 -27.47,30.008 -27.19,29.884 
		-26.91,29.76 -26.41,29.479 -25.945,29.136 -25.695,28.98 -25.509,28.795 -25.26,28.575 -25.04,28.358 -24.856,28.108 
		-24.668,27.83 -24.419,27.922 -24.327,27.984 -24.201,28.047 -24.015,28.202 -23.797,28.358 -23.642,28.575 -23.485,28.795 
		-23.391,29.075 -23.329,29.23 -23.298,29.384 -23.236,29.635 -23.204,29.915 -23.204,30.195 -23.204,30.444 -23.236,30.726 
		-23.298,30.972 -23.391,31.253 -23.485,31.502 -23.58,31.752 -23.704,32.032 -23.859,32.28 -24.015,32.5 -24.387,32.997 
		-24.575,33.215 -24.761,33.463 -25.198,33.899 -25.663,34.334 -26.131,34.709 -26.628,35.081 -27.096,35.455 -27.563,35.768 
		-28.031,36.048 -28.466,36.328 -27.376,36.389 -26.38,36.516 -25.352,36.64 -24.387,36.795 -23.921,36.889 -23.453,36.98 
		-23.05,37.073 -22.676,37.197 -22.52,37.261 -22.364,37.321 -22.24,37.386 -22.115,37.449 -21.959,37.573 -21.835,37.666 
		-21.742,37.79 -21.68,37.882 -21.647,37.977 -21.618,38.07 -21.647,38.164 -21.68,38.258 -21.711,38.318 -21.773,38.382 
		-21.835,38.442 -21.897,38.506 -22.021,38.567 -22.083,38.567 -22.115,38.567 -23.671,38.351 -24.886,38.164 -26.223,37.946 
		-26.94,37.821 -27.438,37.728 -27.999,37.602 -28.528,37.478 -29.026,37.321 -29.462,37.167 -29.617,37.105 -29.711,37.013 	"/>
	<polygon fill="#FFFFFF" points="-20.838,12.701 -20.838,12.606 -20.871,12.514 -20.933,12.389 -20.996,12.266 -21.088,12.142 
		-21.182,12.016 -21.308,11.892 -21.432,11.768 -21.587,11.642 -21.742,11.55 -21.929,11.424 -22.115,11.362 -22.302,11.269 
		-22.52,11.238 -22.738,11.207 -22.954,11.176 -23.141,11.176 -23.329,11.207 -23.485,11.238 -23.671,11.3 -23.828,11.362 
		-23.89,11.393 -23.953,11.424 -24.107,11.518 -24.201,11.612 -24.327,11.705 -24.387,11.83 -24.481,11.954 -24.513,12.109 
		-24.544,12.266 -24.544,12.419 -24.544,12.576 -24.513,12.701 -24.451,12.825 -24.387,12.949 -24.327,13.042 -24.201,13.168 
		-24.107,13.261 -23.983,13.323 -23.859,13.417 -23.797,13.447 -23.704,13.479 -23.547,13.541 -23.391,13.572 -23.236,13.634 
		-23.05,13.634 -22.862,13.665 -22.488,13.665 -22.177,13.634 -21.897,13.572 -21.618,13.479 -21.368,13.385 -21.182,13.261 
		-21.088,13.199 -20.996,13.106 -20.933,13.042 -20.902,12.949 -20.871,12.887 -20.838,12.794 	"/>
	<path fill="#FFFFFF" d="M-22.83,11.518c0.529,0,0.933,0.404,0.933,0.902c0,0.499-0.406,0.902-0.933,0.902
		c-0.499,0-0.903-0.404-0.903-0.902C-23.733,11.923-23.329,11.518-22.83,11.518z"/>
	<polygon fill="#FF7D00" points="-34.41,15.72 -34.101,16.092 -33.975,16.249 -33.821,16.404 -33.539,16.717 -33.228,16.996 
		-32.916,17.214 -32.606,17.433 -32.295,17.619 -31.951,17.806 -31.641,17.93 -31.298,18.056 -30.956,18.18 -30.615,18.273 
		-29.929,18.428 -29.212,18.583 -29.088,18.615 -28.964,18.677 -28.87,18.77 -28.778,18.863 -28.714,18.987 -28.652,19.113 
		-28.62,19.237 -28.59,19.361 -28.558,19.643 -28.59,19.798 -28.59,19.923 -28.62,20.204 -28.684,20.452 -28.778,20.701 
		-28.902,20.92 -29.026,21.137 -29.18,21.323 -29.368,21.51 -29.555,21.665 -29.773,21.789 -29.991,21.884 -30.241,21.977 
		-30.49,22.008 -30.768,22.039 -31.05,22.008 -31.204,21.977 -31.391,21.914 -31.577,21.853 -31.733,21.76 -32.107,21.572 
		-32.481,21.292 -32.824,20.981 -33.011,20.795 -33.166,20.639 -33.51,20.204 -33.664,19.985 -33.789,19.767 -34.101,19.299 
		-34.225,19.02 -34.349,18.77 -34.566,18.211 -34.66,17.93 -34.754,17.65 -34.816,17.338 -34.878,17.058 -34.94,16.748 
		-34.97,16.436 -35.004,16.125 -35.032,15.813 -35.004,15.47 -35.004,15.161 -35.004,15.004 -35.219,14.88 -35.563,14.662 
		-35.719,14.507 -35.875,14.35 -35.969,14.195 -35.969,14.102 -35.969,14.009 -35.969,13.947 -35.937,13.915 -35.875,13.884 
		-35.844,13.851 -35.782,13.851 -35.687,13.884 -35.625,13.915 -35.563,13.977 -35.438,14.102 -35.314,14.257 -35.156,14.537 
		-35.219,14.381 -35.252,14.226 -35.252,14.04 -35.252,13.822 -35.252,13.665 -35.19,13.51 -35.128,13.417 -35.094,13.417 
		-35.066,13.385 -34.97,13.385 -34.94,13.417 -34.878,13.447 -34.846,13.479 -34.816,13.541 -34.754,13.696 -34.722,13.884 
		-34.722,14.04 -34.754,14.226 -34.784,14.381 -34.878,14.631 -34.908,14.725 -34.878,14.631 -34.722,14.443 -34.535,14.164 
		-34.41,14.071 -34.255,13.947 -34.131,13.884 -34.039,13.884 -33.975,13.884 -33.913,13.947 -33.883,14.009 -33.883,14.102 
		-33.913,14.195 -33.975,14.288 -34.007,14.35 -34.039,14.381 -34.163,14.507 -34.286,14.6 -34.41,14.725 -34.69,14.88 
		-34.878,15.004 	"/>
	<polygon fill="#963F1B" points="-21.275,12.763 -21.308,12.825 -21.399,12.887 -21.523,12.98 -21.68,13.073 -21.897,13.168 
		-21.991,13.199 -22.115,13.23 -22.24,13.261 -22.364,13.261 -22.676,13.292 -22.954,13.292 -23.174,13.23 -23.298,13.106 
		-23.391,12.949 -23.453,12.794 -23.485,12.639 -23.485,12.482 -23.485,12.357 -23.485,12.235 -23.453,12.109 -23.423,12.016 
		-23.361,11.923 -23.266,11.83 -23.204,11.736 -23.079,11.674 -22.954,11.612 -22.83,11.58 -22.676,11.58 -22.552,11.612 
		-22.426,11.612 -22.208,11.705 -21.959,11.861 -21.742,12.047 -21.647,12.142 -21.556,12.235 -21.399,12.419 -21.308,12.606 
		-21.275,12.701 -21.275,12.731 	"/>
</g>
<g>
	<polygon fill="#963F1B" points="76.257,22.479 70.666,25.928 76.74,36.298 76.296,36.522 76.035,36.632 75.704,36.741 
		75.333,36.852 74.852,36.926 74.594,36.963 74.258,37 73.554,37 73.222,37 72.887,36.926 72.593,36.852 72.293,36.777 72,36.632 
		71.702,36.482 71.443,36.334 71.183,36.11 70.925,35.889 70.703,35.664 70.481,35.406 70.26,35.15 70.035,34.852 69.852,34.557 
		69.442,33.923 68.332,31.89 67.146,29.702 65.778,27.182 64.48,36.334 59.295,36.334 62.074,16.74 67.256,16.74 65.922,26.223 
		72.369,22.443 72.222,22.332 72.109,22.223 71.887,21.923 71.778,21.775 71.702,21.629 71.554,21.295 71.478,21.109 71.406,20.925 
		71.369,20.738 71.369,20.555 71.334,20.371 71.334,20.146 71.369,19.963 71.369,19.74 71.443,19.407 71.478,19.255 71.554,19.07 
		71.664,18.775 71.814,18.48 72,18.18 72.222,17.887 72.445,17.63 72.555,17.516 72.666,17.405 72.963,17.182 73.222,16.997 
		73.369,16.887 73.517,16.813 73.813,16.664 73.999,16.626 74.148,16.555 74.48,16.479 74.813,16.445 75.147,16.404 75.517,16.445 
		75.668,16.445 75.813,16.479 76.001,16.517 76.147,16.555 76.442,16.664 76.701,16.813 76.962,16.997 77.186,17.182 77.406,17.405 
		77.591,17.63 77.74,17.887 77.891,18.18 77.963,18.48 78.001,18.628 78.037,18.775 78.076,19.07 78.076,19.407 78.037,19.74 
		78.001,19.963 77.963,20.182 77.891,20.407 77.815,20.629 77.705,20.813 77.631,21.034 77.37,21.404 77.26,21.553 77.11,21.742 
		76.852,22.037 76.556,22.295 	"/>
	<path fill="#963F1B" d="M87.26,33.629h-0.148l-0.145-0.037l-0.149-0.039l-0.148-0.07l-0.146-0.077l-0.149-0.109l-0.146-0.109
		l-0.112-0.112l-0.109-0.148l-0.15-0.148l-0.186-0.331l-0.187-0.408l-0.185-0.443l-0.15-0.481l-0.037-0.26l-0.076-0.258
		l-0.072-0.594l-0.037-0.594l-0.038-0.627v-0.672l0.038-0.333v-0.332l0.076-0.704l0.145-0.708l0.15-0.704l0.147-0.666l0.222-0.627
		l0.227-0.633l0.221-0.553l0.258-0.52l0.298-0.518l0.301-0.445l0.294-0.408l0.333-0.33l0.298-0.299l0.333-0.222l0.37-0.184
		l0.146-0.04l0.186-0.073h0.146l0.187-0.038l0.148,0.038h0.146l0.182,0.073l0.15,0.04l0.109,0.074l0.149,0.109l0.149,0.113
		l0.109,0.109l0.146,0.147l0.113,0.152l0.111,0.182l0.075,0.148l0.219,0.406l0.151,0.443l0.147,0.519l0.035,0.257l0.074,0.262
		l0.075,0.554l0.041,0.636l0.035,0.627v0.666l-0.035,0.337v0.372l-0.076,0.703l-0.146,0.704l-0.146,0.671l-0.149,0.666l-0.222,0.632
		l-0.225,0.589l-0.109,0.299l-0.111,0.291l-0.298,0.518l-0.257,0.485l-0.299,0.443l-0.334,0.408l-0.299,0.331l-0.146,0.148
		l-0.184,0.148l-0.334,0.222l-0.333,0.187l-0.142,0.07l-0.188,0.039l-0.147,0.037H87.26L87.26,33.629z M95.223,36.963l2.56-17.931
		v-0.257v-0.261l-0.04-0.257l-0.036-0.261l-0.109-0.223l-0.076-0.224l-0.149-0.181l-0.146-0.187l-0.146-0.186l-0.187-0.146
		L96.71,16.74l-0.225-0.114l-0.222-0.111l-0.22-0.041l-0.261-0.032l-0.258-0.041l-0.264,0.044l-0.257,0.033l-0.261,0.041
		l-0.258,0.111l-0.26,0.114l-0.221,0.11l-0.227,0.148l-0.186,0.184l-0.223,0.182l-0.146,0.184l-0.146,0.222l-0.147,0.222
		l-0.109,0.261l-0.118,0.257l-0.07,0.261l-0.039,0.26l-0.039,0.225l-0.226-0.335l-0.219-0.296l-0.226-0.296l-0.225-0.257
		l-0.26-0.261l-0.258-0.225l-0.29-0.22l-0.257-0.187l-0.295-0.186l-0.336-0.146L89.67,16.7l-0.336-0.109l-0.332-0.074l-0.336-0.038
		l-0.367-0.033l-0.332-0.042l-0.37,0.042l-0.374,0.033l-0.367,0.038l-0.372,0.109l-0.37,0.114l-0.369,0.147l-0.335,0.147
		l-0.37,0.184l-0.334,0.225l-0.367,0.222l-0.331,0.261l-0.335,0.26l-0.631,0.594l-0.297,0.33l-0.299,0.328l-0.295,0.374l-0.26,0.369
		l-0.258,0.37l-0.263,0.408l-0.479,0.854l-0.226,0.443l-0.222,0.484l-0.186,0.443l-0.184,0.481l-0.152,0.479l-0.143,0.518
		l-0.148,0.482l-0.111,0.521l-0.115,0.521l-0.068,0.554l-0.077,0.518l-0.038,0.519l-0.037,0.514v0.485v0.52l0.037,0.479l0.038,0.481
		l0.077,0.446l0.068,0.441l0.115,0.447l0.111,0.443l0.109,0.409l0.148,0.403l0.146,0.404l0.187,0.371l0.186,0.332l0.222,0.371
		l0.186,0.295l0.26,0.333l0.221,0.261l0.261,0.296l0.259,0.224l0.303,0.262l0.255,0.184l0.3,0.186l0.33,0.148l0.3,0.146l0.328,0.109
		l0.374,0.109l0.331,0.078L84.703,37h0.376h0.37l0.369-0.037l0.37-0.072l0.404-0.113l0.374-0.109l0.37-0.146l0.369-0.188l0.33-0.18
		l0.376-0.229l0.33-0.223l0.366-0.257l0.335-0.262l0.334-0.295l0.297-0.332l0.332-0.331l0.295-0.328l0.076,0.328l0.075,0.331
		l0.144,0.295l0.148,0.299l0.185,0.261l0.186,0.258l0.226,0.223l0.261,0.224l0.109,0.109l0.144,0.109l0.26,0.152l0.303,0.146
		l0.328,0.148l0.302,0.109l0.366,0.076L94.148,37h0.375L95.223,36.963z"/>
	<polygon fill="#963F1B" points="44.736,23.665 45.069,22.773 45.407,21.923 45.773,21.148 45.959,20.813 46.145,20.445 
		46.333,20.109 46.552,19.779 46.774,19.48 46.962,19.184 47.442,18.663 47.886,18.18 48.109,17.961 48.366,17.774 48.627,17.592 
		48.849,17.405 49.105,17.259 49.367,17.107 49.627,16.961 49.886,16.851 50.404,16.664 50.664,16.591 50.926,16.517 51.22,16.479 
		51.477,16.445 52.035,16.404 52.37,16.404 52.665,16.445 52.96,16.479 53.219,16.555 53.515,16.626 53.737,16.7 54.181,16.922 
		54.403,17.073 54.59,17.182 54.773,17.331 54.923,17.516 55.219,17.852 55.476,18.219 55.662,18.59 55.848,18.999 55.962,19.407 
		56.034,19.814 56.071,20.182 56.107,20.591 56.071,20.925 56.034,21.295 53.923,36.482 53.256,36.443 52.813,36.443 52.37,36.368 
		51.96,36.259 51.555,36.11 51.368,36.001 51.181,35.925 50.848,35.702 50.516,35.445 50.404,35.293 50.256,35.15 50.11,34.965 
		49.996,34.814 49.775,34.48 49.627,34.11 49.481,33.704 49.441,33.52 49.405,33.296 49.367,33.074 49.329,32.85 49.329,32.408 
		49.329,32.185 49.367,31.96 50.702,22.627 50.811,21.961 50.811,21.775 50.848,21.629 50.848,21.334 50.811,21.184 50.775,21.074 
		50.739,20.963 50.702,20.925 50.664,20.852 50.551,20.777 50.404,20.738 50.256,20.701 50.072,20.701 49.886,20.701 49.736,20.738 
		49.551,20.813 49.367,20.925 49.144,21.034 48.962,21.184 48.736,21.404 48.517,21.629 48.333,21.887 48.109,22.223 47.886,22.555 
		47.701,22.962 47.515,23.407 47.294,23.89 47.107,24.443 46.962,25 46.517,26.631 46.181,27.891 45.959,28.852 45.773,29.669 
		45.478,31.072 45.258,31.851 44.997,32.74 44.849,33.187 44.664,33.629 44.44,34.032 44.219,34.444 43.958,34.814 43.701,35.184 
		43.404,35.48 43.11,35.778 42.775,36.073 42.404,36.298 42.034,36.522 41.625,36.668 41.22,36.816 40.776,36.926 40.332,36.963 
		39.884,37 39.552,37 39.218,36.926 38.923,36.852 38.626,36.741 38.365,36.596 38.142,36.413 37.921,36.225 37.697,36.001 
		37.626,35.889 37.551,35.778 37.477,35.631 37.402,35.516 37.291,35.223 37.217,34.965 37.144,34.629 37.144,34.335 37.144,34.001 
		37.181,33.667 37.256,33.33 37.368,33 37.477,32.703 37.626,32.408 37.771,32.113 37.96,31.89 38.142,31.632 38.365,31.407 
		38.588,31.223 38.701,31.146 38.844,31.072 39.107,30.928 39.365,30.777 39.662,30.705 39.962,30.629 40.291,30.592 40.627,30.559 
		40.885,30.592 41.107,30.629 41.291,30.668 41.48,30.742 41.81,30.928 42.107,31.113 42.329,31.295 42.404,31.332 42.513,31.371 
		42.588,31.407 42.625,31.371 42.7,31.332 42.738,31.223 43.07,30.221 43.329,29.26 43.588,28.334 43.773,27.444 43.958,26.555 
		44.182,25.628 44.44,24.701 	"/>
	<path fill="#963F1B" d="M37.997,21.775l0.036-0.441v-0.227v-0.225l-0.036-0.219l-0.042-0.225l-0.111-0.48l-0.15-0.447l-0.11-0.223
		l-0.109-0.222l-0.11-0.225l-0.15-0.223l-0.332-0.406l-0.186-0.184l-0.223-0.186l-0.184-0.186l-0.261-0.148l-0.259-0.184
		l-0.26-0.147l-0.295-0.109l-0.296-0.152l-0.334-0.109l-0.334-0.109l-0.332-0.077l-0.406-0.07l-0.37-0.077l-0.444-0.029
		l-0.407-0.041h-0.482l-0.518,0.041l-0.518,0.033l-0.515,0.076l-0.487,0.071l-0.514,0.114l-0.484,0.147l-0.444,0.186l-0.48,0.187
		l-0.444,0.223l-0.409,0.222l-0.444,0.257l-0.404,0.3l-0.374,0.292l-0.37,0.296l-0.368,0.332l-0.375,0.372l-0.328,0.371
		l-0.336,0.369L23.7,20.664l-0.301,0.408l-0.255,0.441l-0.259,0.409l-0.226,0.446l-0.221,0.48l-0.226,0.443l-0.186,0.481
		l-0.143,0.485l-0.151,0.479l-0.109,0.485l-0.115,0.514l-0.109,0.485l-0.036,0.518l-0.041,0.485l-0.037,0.48v0.522v0.479
		l0.037,0.443l0.075,0.481l0.074,0.483l0.109,0.443l0.11,0.445l0.151,0.442l0.148,0.409l0.184,0.408l0.186,0.404l0.221,0.371
		l0.226,0.37l0.221,0.368l0.299,0.339l0.256,0.331l0.301,0.295l0.331,0.295l0.331,0.26l0.334,0.258l0.371,0.224l0.369,0.223
		l0.408,0.187l0.404,0.146l0.227,0.079l0.184,0.069l0.445,0.113l0.446,0.111l0.48,0.07l0.482,0.043h0.483h0.889l0.405-0.043
		l0.371-0.036l0.371-0.04l0.301-0.033l0.328-0.042l0.259-0.078l0.3-0.07l0.222-0.07l0.445-0.148l0.408-0.186l0.328-0.185
		l0.259-0.187l0.226-0.187l0.223-0.184l0.147-0.225l0.144-0.184l0.115-0.225l0.113-0.224l0.035-0.225l0.109-0.407v-0.182v-0.184
		l-0.035-0.373l-0.071-0.289l-0.557,0.332l-0.186,0.072l-0.187,0.109L33.7,33.52l-0.261,0.072l-0.26,0.112l-0.296,0.073
		l-0.332,0.036l-0.335,0.078l-0.33,0.036l-0.408,0.039h-0.403l-0.446-0.039h-0.225l-0.222-0.075l-0.186-0.039l-0.226-0.075
		l-0.184-0.071l-0.221-0.072l-0.185-0.112l-0.186-0.109l-0.335-0.262l-0.148-0.146l-0.185-0.145l-0.147-0.186l-0.11-0.186
		l-0.146-0.223l-0.116-0.188l-0.223-0.482l-0.074-0.261l-0.073-0.258l-0.073-0.295l-0.039-0.262l-0.075-0.331v-0.296l-0.037-0.331
		v-0.376l0.037-0.738l0.075-0.778h0.592l0.591-0.039l0.593-0.037l0.556-0.033l0.52-0.076l0.52-0.077l0.513-0.109l0.259-0.032
		l0.226-0.077l0.479-0.113l0.444-0.113l0.891-0.332l0.371-0.145l0.404-0.186l0.373-0.183l0.329-0.188l0.332-0.224l0.334-0.186
		l0.558-0.483l0.258-0.223l0.221-0.257l0.227-0.224l0.221-0.258l0.186-0.3l0.148-0.257l0.148-0.262l0.109-0.295l0.112-0.299
		l0.076-0.26l0.034-0.297L37.997,21.775L37.997,21.775z M27.552,25.589l0.034-0.519l0.109-0.518L27.808,24l0.149-0.593l0.146-0.558
		l0.222-0.555l0.112-0.296l0.114-0.257l0.221-0.522l0.3-0.519l0.296-0.443l0.145-0.222l0.148-0.187l0.187-0.186l0.183-0.184
		l0.185-0.149l0.186-0.145l0.226-0.112l0.185-0.076l0.222-0.109l0.227-0.038l0.221-0.038h0.228h0.183l0.146,0.038l0.148,0.038
		l0.149,0.072l0.109,0.074l0.112,0.111l0.109,0.114l0.073,0.147l0.075,0.147l0.039,0.109v0.076l0.071,0.185l0.042,0.224v0.223v0.26
		v0.517l-0.076,0.296l-0.073,0.372l-0.118,0.33l-0.146,0.371l-0.188,0.37l-0.219,0.368l-0.261,0.375l-0.149,0.186L31.55,24
		l-0.334,0.297l-0.185,0.186l-0.221,0.146l-0.186,0.148l-0.227,0.109l-0.479,0.258l-0.26,0.074l-0.259,0.109l-0.295,0.076
		l-0.297,0.075l-0.301,0.039l-0.295,0.034l-0.334,0.042h-0.328V25.589z"/>
	<path fill="#963F1B" d="M17.511,29.146l-0.258,0.704l-0.151,0.37l-0.143,0.334l-0.148,0.332l-0.187,0.332l-0.185,0.332
		l-0.187,0.334l-0.225,0.338l-0.223,0.295l-0.225,0.299l-0.255,0.295l-0.259,0.258l-0.259,0.298l-0.261,0.261l-0.293,0.225
		l-0.302,0.258l-0.328,0.219l-0.301,0.223l-0.329,0.186l-0.371,0.186l-0.335,0.184l-0.371,0.148l-0.37,0.151l-0.374,0.148
		l-0.405,0.109l-0.408,0.109l-0.404,0.076l-0.408,0.075l-0.445,0.034l-0.444,0.039H8.214H4.658H2.694h-3.221l3.244-24.163
		l0.051-0.17l0.112-0.371l0.147-0.406l0.186-0.335l0.186-0.333l0.183-0.297l0.224-0.258L3.92,9.854l0.144-0.113l0.225-0.147
		l0.295-0.109L5.14,9.261L5.4,9.188h0.147l0.146-0.041l0.558-0.073l0.221-0.038h0.26L7.102,9h0.371h11.374v0.184l-0.074,0.408
		l-0.076,0.258l-0.074,0.26l-0.11,0.258L18.4,10.554l-0.221,0.296l-0.223,0.258l-0.261,0.186l-0.293,0.149l-0.148,0.035
		l-0.151,0.075l-0.328,0.073h-0.151l-0.186,0.038h-0.37H7.955l-1.002,7.705l0.299-0.297l0.294-0.295l0.297-0.296l0.301-0.261
		l0.665-0.483l0.295-0.186l0.333-0.223l0.333-0.147l0.371-0.146l0.333-0.146l0.331-0.114l0.369-0.075l0.334-0.073l0.369-0.038h0.332
		h0.372l0.371,0.038l0.333,0.073l0.371,0.075l0.335,0.144l0.294,0.116l0.334,0.146l0.301,0.186l0.296,0.225l0.26,0.225l0.148,0.112
		l0.15,0.145l0.254,0.261l0.226,0.296l0.22,0.296l0.446,0.668l0.184,0.371l0.185,0.366l0.149,0.409l0.147,0.41l0.109,0.404
		l0.149,0.446l0.077,0.479l0.075,0.447l0.076,0.481l0.039,0.519l0.038,0.518v0.518v0.519l-0.038,0.558l-0.074,0.557l-0.078,0.588
		l-0.075,0.481l-0.073,0.522l-0.112,0.48l-0.147,0.48H17.511L17.511,29.146z M4.993,33.777h1.482H7.03l0.3-0.073l0.254-0.037
		l0.259-0.075l0.226-0.072l0.262-0.114l0.221-0.071l0.226-0.147l0.221-0.109l0.409-0.3l0.368-0.331l0.186-0.187l0.184-0.186
		l0.149-0.185l0.147-0.186l0.298-0.406l0.294-0.444l0.26-0.443l0.111-0.228l0.112-0.223l0.182-0.442l0.186-0.443l0.145-0.445
		l0.148-0.738l0.112-0.709l0.074-0.701l0.035-0.706l0.036-0.665l-0.036-0.627l-0.035-0.334v-0.293l-0.04-0.263l-0.073-0.295
		l-0.038-0.263l-0.075-0.257l-0.109-0.519l-0.11-0.223l-0.072-0.225l-0.075-0.184l-0.109-0.225l-0.225-0.33l-0.11-0.149
		l-0.111-0.147l-0.149-0.109l-0.109-0.112l-0.296-0.185L10.51,20.33l-0.149-0.071h-0.146l-0.185-0.038l-0.261,0.038L9.47,20.33
		l-0.297,0.152l-0.292,0.187l-0.298,0.219l-0.259,0.262l-0.3,0.296L7.77,21.813l-0.259,0.37l-0.259,0.445l-0.226,0.445l-0.222,0.481
		l-0.223,0.522l-0.184,0.551l-0.186,0.557L6.07,25.742L4.993,33.777z"/>
</g>
</svg>
