<?xml version="1.0" encoding="utf-8"?>
<!-- Generator: Adobe Illustrator 15.1.0, SVG Export Plug-In . SVG Version: 6.00 Build 0)  -->
<!DOCTYPE svg PUBLIC "-//W3C//DTD SVG 1.1//EN" "http://www.w3.org/Graphics/SVG/1.1/DTD/svg11.dtd">
<svg version="1.1" id="Layer_1" xmlns="http://www.w3.org/2000/svg" xmlns:xlink="http://www.w3.org/1999/xlink" x="0px" y="0px"
	 width="45.566px" height="40px" viewBox="0 0 45.566 40" enable-background="new 0 0 45.566 40" xml:space="preserve">
<g>
	<polygon fill="#FF7D00" points="19.208,11.785 19.334,11.679 19.46,11.574 19.545,11.469 19.629,11.364 19.713,11.217 
		19.755,11.09 19.776,10.985 19.797,10.859 19.776,10.795 19.755,10.753 19.713,10.711 19.692,10.711 19.671,10.732 19.607,10.879 
		19.565,10.943 19.523,11.006 19.481,11.048 19.397,11.132 19.292,11.195 19.187,11.259 19.082,11.322 18.955,11.385 18.85,11.427 
		18.661,11.49 18.451,11.532 18.282,11.553 18.134,11.574 17.945,11.553 17.672,11.364 17.419,11.153 17.188,10.964 16.978,10.753 
		16.809,10.543 16.641,10.354 16.494,10.143 16.43,10.038 16.388,9.954 16.283,9.764 16.199,9.575 16.178,9.47 16.157,9.386 
		16.115,9.217 16.115,9.049 16.115,8.88 16.136,8.733 16.157,8.649 16.199,8.586 16.241,8.48 16.304,8.375 16.409,8.292 
		16.514,8.186 16.641,8.081 16.767,7.976 17.083,7.786 17.44,7.618 17.819,7.47 18.03,7.408 18.261,7.344 18.703,7.26 18.998,7.197 
		19.145,7.176 19.313,7.176 19.629,7.155 19.923,7.155 19.965,6.965 20.029,6.776 20.092,6.608 20.155,6.418 20.239,6.229 
		20.323,6.04 20.449,5.851 20.555,5.682 20.681,5.535 20.808,5.366 21.102,5.051 21.459,4.693 21.523,4.924 21.691,5.472 
		21.775,5.829 21.838,6.187 21.88,6.355 21.88,6.545 21.88,6.86 21.838,7.218 21.796,7.534 22.028,7.66 22.133,7.723 22.238,7.828 
		22.449,7.681 22.68,7.534 22.975,7.408 23.122,7.344 23.291,7.281 23.648,7.176 24.027,7.092 24.448,7.029 24.679,7.008 
		24.911,6.987 25.185,6.987 25.437,6.987 25.921,7.008 26.258,7.05 26.405,7.05 26.363,7.092 26.299,7.218 26.173,7.408 
		26.005,7.639 25.795,7.913 25.542,8.208 25.248,8.502 25.101,8.649 24.932,8.796 24.574,9.07 24.385,9.196 24.216,9.322 
		24.027,9.428 23.837,9.533 23.648,9.617 23.438,9.701 23.48,9.807 23.501,9.933 23.522,10.08 23.522,10.228 23.522,10.375 
		23.501,10.522 23.438,10.817 23.396,10.985 23.333,11.111 23.228,11.385 23.164,11.511 23.08,11.616 23.017,11.701 22.933,11.785 
		23.206,11.974 23.501,12.163 23.837,12.416 23.753,12.479 23.669,12.542 23.606,12.647 23.543,12.731 23.501,12.858 23.48,12.984 
		23.438,13.11 23.438,13.258 23.438,13.405 23.438,13.552 23.458,13.7 23.501,13.847 23.543,14.016 23.606,14.162 23.669,14.289 
		23.774,14.436 23.859,14.563 23.964,14.668 24.09,14.773 24.216,14.857 24.363,14.941 24.511,15.004 24.658,15.067 24.806,15.109 
		24.974,15.13 25.143,15.151 25.29,15.151 25.458,15.151 25.626,15.109 25.773,15.067 25.921,15.004 26.068,14.941 26.258,15.278 
		26.426,15.593 26.552,15.93 26.678,16.246 26.784,16.562 26.847,16.856 26.91,17.151 26.952,17.445 26.805,17.424 26.657,17.403 
		26.51,17.403 26.363,17.403 26.215,17.424 26.068,17.445 25.795,17.529 25.668,17.571 25.542,17.635 25.416,17.698 25.311,17.761 
		25.121,17.908 25.037,17.992 24.953,18.077 24.869,18.161 24.785,18.266 24.658,18.498 24.595,18.603 24.553,18.729 24.511,18.855 
		24.469,18.981 24.406,19.276 24.406,19.424 24.385,19.592 24.385,19.76 24.406,19.95 24.427,20.329 24.069,20.286 23.901,20.265 
		23.711,20.223 23.543,20.181 23.375,20.139 23.017,20.013 22.848,19.929 22.68,19.844 22.533,19.781 22.364,19.676 22.091,19.487 
		21.838,19.297 21.628,19.087 21.439,18.897 21.27,18.687 21.102,18.456 20.976,18.245 20.85,18.014 20.744,17.782 20.66,17.529 
		20.618,17.424 20.576,17.298 20.513,17.045 20.449,16.814 20.407,16.562 20.365,16.309 20.345,16.078 20.323,15.825 20.323,15.572 
		20.323,15.341 20.323,15.109 20.345,14.646 20.365,14.415 20.407,14.205 20.449,13.784 20.576,13.047 20.639,12.731 20.681,12.479 
		20.429,12.458 20.176,12.437 19.923,12.395 19.692,12.332 19.439,12.269 19.208,12.206 18.977,12.1 18.745,12.016 18.955,11.932 
		19.082,11.869 	"/>
	<polygon fill="#963F1B" points="13.779,4.44 13.905,4.44 14.01,4.461 14.115,4.524 14.221,4.566 14.431,4.714 14.537,4.798 
		14.621,4.882 14.684,4.987 14.768,5.071 14.831,5.177 14.873,5.282 14.915,5.387 14.957,5.472 14.957,5.577 14.957,5.661 
		14.937,5.851 14.894,6.04 14.831,6.229 14.726,6.418 14.684,6.523 14.621,6.608 14.557,6.692 14.473,6.776 14.41,6.839 
		14.326,6.923 14.241,6.987 14.137,7.029 14.031,7.092 13.905,7.134 13.779,7.155 13.652,7.176 13.547,7.176 13.421,7.155 
		13.294,7.134 13.168,7.092 13.021,7.05 12.916,7.008 12.706,6.965 12.558,6.945 12.516,6.945 12.495,6.923 12.474,6.902 
		12.453,6.86 12.432,6.734 12.369,6.566 12.306,6.355 12.264,6.208 12.222,6.082 12.2,5.956 12.2,5.829 12.2,5.724 12.222,5.598 
		12.242,5.472 12.306,5.324 12.39,5.198 12.516,5.051 12.6,4.966 12.685,4.882 12.874,4.735 12.979,4.672 13.105,4.608 13.21,4.566 
		13.316,4.503 13.442,4.482 13.568,4.44 13.673,4.44 	"/>
	<polygon fill="#963F1B" points="16.83,2.083 16.767,1.957 16.725,1.852 16.704,1.726 16.683,1.663 16.683,1.599 16.683,1.326 
		16.704,1.179 16.725,1.052 16.767,0.926 16.809,0.8 16.852,0.673 16.914,0.568 16.978,0.463 17.04,0.379 17.125,0.315 
		17.188,0.273 17.377,0.168 17.588,0.105 17.714,0.063 17.819,0.042 18.05,0.021 18.177,0 18.303,0 18.429,0.021 18.535,0.021 
		18.661,0.042 18.766,0.084 18.893,0.126 18.998,0.168 19.124,0.252 19.229,0.337 19.334,0.442 19.439,0.547 19.523,0.673 
		19.607,0.821 19.65,0.947 19.692,1.073 19.776,1.347 19.839,1.536 19.881,1.642 19.881,1.684 19.881,1.705 19.881,1.747 
		19.839,1.789 19.755,1.873 19.629,2.02 19.481,2.209 19.376,2.336 19.292,2.441 19.187,2.525 19.082,2.588 18.977,2.652 
		18.85,2.694 18.703,2.736 18.556,2.778 18.387,2.778 18.177,2.778 17.945,2.757 17.692,2.694 17.44,2.588 17.335,2.525 
		17.208,2.462 17.104,2.378 16.998,2.294 16.914,2.188 	"/>
	<polygon fill="#963F1B" points="12.011,11.153 12.053,11.069 12.095,11.006 12.158,10.922 12.222,10.859 12.306,10.817 
		12.39,10.753 12.558,10.669 12.748,10.606 12.916,10.564 13.084,10.564 13.147,10.585 13.21,10.606 13.336,10.669 13.484,10.753 
		13.61,10.859 13.716,10.964 13.821,11.09 13.905,11.237 13.989,11.385 14.01,11.469 14.01,11.511 14.031,11.553 14.031,11.659 
		14.031,11.743 14.01,11.848 13.989,11.932 13.968,12.037 13.926,12.121 13.821,12.29 13.694,12.458 13.61,12.605 13.547,12.689 
		13.526,12.752 13.463,12.752 13.358,12.752 13.232,12.731 13.063,12.731 12.832,12.731 12.748,12.71 12.642,12.689 12.558,12.647 
		12.474,12.605 12.39,12.542 12.306,12.479 12.222,12.374 12.138,12.248 12.095,12.163 12.074,12.079 12.011,11.911 11.969,11.721 
		11.948,11.511 11.948,11.427 11.969,11.322 11.99,11.237 	"/>
	<polygon fill="#963F1B" points="28.488,5.724 28.425,5.682 28.383,5.619 28.341,5.535 28.299,5.451 28.236,5.282 28.214,5.198 
		28.214,5.093 28.214,4.903 28.236,4.735 28.257,4.672 28.278,4.588 28.341,4.482 28.446,4.377 28.552,4.293 28.678,4.209 
		28.825,4.125 28.972,4.083 29.12,4.041 29.288,4.02 29.372,4.02 29.457,4.041 29.541,4.062 29.625,4.083 29.708,4.125 
		29.793,4.167 29.856,4.23 29.919,4.293 29.982,4.356 30.045,4.44 30.171,4.608 30.277,4.714 30.34,4.798 30.361,4.819 30.383,4.84 
		30.361,4.882 30.319,4.966 30.277,5.093 30.235,5.261 30.151,5.451 30.108,5.535 30.066,5.619 30.003,5.682 29.94,5.745 
		29.856,5.809 29.772,5.871 29.667,5.914 29.603,5.935 29.519,5.935 29.351,5.956 29.162,5.956 28.993,5.935 28.804,5.893 
		28.72,5.851 28.636,5.829 	"/>
	<polygon fill="#963F1B" points="24.469,0.105 24.574,0.063 24.679,0.021 24.806,0 24.932,0 25.059,0.021 25.185,0.021 
		25.311,0.063 25.437,0.105 25.542,0.147 25.647,0.189 25.752,0.252 25.857,0.315 25.941,0.379 26.005,0.463 26.068,0.526 
		26.11,0.61 26.173,0.779 26.237,0.989 26.279,1.179 26.279,1.305 26.279,1.41 26.279,1.621 26.237,1.831 26.215,1.936 
		26.173,2.042 26.11,2.146 26.068,2.231 25.984,2.336 25.9,2.441 25.815,2.504 25.711,2.588 25.584,2.652 25.479,2.694 
		25.353,2.736 25.227,2.757 25.079,2.799 24.953,2.82 24.763,2.883 24.617,2.946 24.553,2.946 24.511,2.925 24.49,2.904 
		24.385,2.82 24.279,2.694 24.111,2.525 23.985,2.441 23.901,2.336 23.816,2.231 23.753,2.125 23.69,2.02 23.648,1.894 
		23.627,1.768 23.606,1.621 23.585,1.557 23.606,1.473 23.627,1.368 23.648,1.263 23.711,1.052 23.753,0.947 23.816,0.821 
		23.88,0.715 23.943,0.61 24.027,0.505 24.111,0.4 24.195,0.315 24.279,0.231 24.363,0.147 	"/>
	<polygon fill="#FF7D00" points="28.025,17.992 28.214,17.845 28.383,17.677 28.467,17.571 28.552,17.487 28.699,17.256 
		28.825,17.025 28.909,16.898 28.972,16.751 29.099,16.457 29.141,16.288 29.204,16.099 29.267,15.93 29.309,15.72 29.351,15.53 
		29.414,15.32 29.499,14.857 29.583,14.352 29.646,13.805 29.708,13.216 29.772,12.563 29.814,11.869 29.877,11.237 29.94,10.627 
		30.045,9.996 30.108,9.68 30.171,9.364 30.34,8.754 30.424,8.46 30.529,8.144 30.635,7.85 30.74,7.555 30.867,7.26 30.993,6.987 
		31.14,6.713 31.287,6.439 31.455,6.166 31.624,5.893 31.813,5.64 32.002,5.387 32.213,5.156 32.424,4.924 32.655,4.693 
		32.886,4.482 33.139,4.272 33.412,4.062 33.687,3.872 33.96,3.704 34.275,3.536 34.591,3.367 34.822,3.262 35.054,3.178 
		35.265,3.094 35.496,3.009 35.727,2.946 35.959,2.883 36.169,2.82 36.401,2.778 36.611,2.736 36.822,2.694 37.222,2.652 
		37.622,2.609 37.979,2.609 38.336,2.609 38.632,2.63 38.905,2.652 39.157,2.672 39.347,2.714 39.494,2.736 39.599,2.778 
		39.663,2.799 39.683,2.841 39.705,2.862 39.705,2.883 39.683,2.925 39.641,2.988 39.515,3.094 39.284,3.241 39.01,3.472 
		38.842,3.62 38.674,3.809 38.484,3.998 38.294,4.251 38.084,4.524 37.895,4.84 37.748,5.051 37.622,5.282 37.516,5.535 
		37.411,5.766 37.306,6.04 37.2,6.334 37.116,6.629 37.032,6.965 36.969,7.323 36.906,7.723 36.843,8.166 36.801,8.628 
		36.758,9.133 36.716,9.701 36.695,10.312 36.695,10.964 36.653,11.511 36.632,11.763 36.611,12.037 36.527,12.542 36.422,13.047 
		36.359,13.3 36.295,13.531 36.211,13.784 36.127,14.016 36.021,14.268 35.938,14.499 35.833,14.73 35.727,14.941 35.601,15.172 
		35.475,15.383 35.222,15.825 34.927,16.246 34.612,16.646 34.444,16.835 34.275,17.025 33.918,17.403 33.728,17.571 33.539,17.74 
		33.139,18.077 32.908,18.266 32.634,18.456 32.381,18.624 32.087,18.792 31.813,18.96 31.519,19.108 30.929,19.402 30.656,19.528 
		30.361,19.634 30.087,19.739 29.835,19.844 29.583,19.907 29.351,19.971 29.141,20.013 28.93,20.034 28.867,19.697 28.783,19.402 
		28.699,19.108 28.594,18.834 28.467,18.603 28.341,18.372 28.194,18.161 	"/>
	<polygon fill="#FF7D00" points="26.405,7.071 26.426,6.965 26.468,6.713 26.489,6.587 26.51,6.503 26.552,6.439 26.594,6.313 
		26.636,6.271 26.678,6.229 26.742,6.166 26.826,6.124 26.889,6.103 26.952,6.103 26.994,6.145 27.015,6.187 27.015,6.271 
		27.015,6.376 26.973,6.481 26.931,6.608 26.847,6.713 26.784,6.797 26.657,6.923 26.615,6.987 26.678,6.945 26.847,6.86 
		26.973,6.797 27.1,6.776 27.204,6.734 27.331,6.734 27.436,6.734 27.52,6.776 27.562,6.797 27.583,6.818 27.626,6.881 
		27.626,6.923 27.626,6.965 27.562,7.029 27.478,7.092 27.416,7.113 27.331,7.134 27.226,7.155 27.142,7.155 26.973,7.176 
		26.826,7.155 26.678,7.134 26.489,7.092 	"/>
	<polygon fill="#FF7D00" points="21.459,4.693 21.397,4.63 21.27,4.44 21.208,4.335 21.123,4.23 21.081,4.104 21.06,4.062 
		21.06,4.02 21.06,3.914 21.06,3.83 21.102,3.788 21.102,3.767 21.123,3.746 21.186,3.725 21.249,3.746 21.312,3.767 21.375,3.851 
		21.397,3.893 21.417,3.935 21.459,4.041 21.481,4.146 21.502,4.251 21.502,4.419 21.502,4.482 21.523,4.419 21.586,4.251 
		21.67,4.062 21.733,3.956 21.796,3.872 21.838,3.83 21.859,3.809 21.901,3.788 21.944,3.767 21.986,3.767 22.007,3.746 
		22.07,3.767 22.112,3.809 22.133,3.851 22.133,3.893 22.112,3.998 22.07,4.125 21.964,4.251 21.88,4.377 21.775,4.482 21.67,4.545 
		21.523,4.65 	"/>
	<polygon fill="#F57F31" points="15.251,14.541 15.315,14.668 15.293,14.604 	"/>
	<polygon fill="#FF7D00" points="17.609,14.899 18.008,14.857 18.387,14.794 18.745,14.688 19.082,14.563 19.229,14.499 
		19.376,14.436 19.671,14.289 19.903,14.142 20.134,13.994 20.092,14.541 20.071,14.857 20.049,15.13 20.049,15.509 20.071,15.867 
		20.092,16.225 20.155,16.646 19.965,16.667 19.755,16.688 19.523,16.688 19.292,16.688 19.061,16.667 18.829,16.646 18.577,16.625 
		18.324,16.583 18.093,16.52 17.84,16.457 17.609,16.373 17.377,16.288 17.146,16.183 16.936,16.078 16.746,15.951 16.556,15.825 
		16.409,15.699 16.262,15.551 16.009,15.257 15.883,15.109 15.799,14.983 15.673,14.815 15.589,14.836 15.399,14.92 15.293,14.962 
		15.167,14.983 15.063,15.004 14.957,14.983 14.894,14.983 14.831,14.941 14.81,14.92 14.768,14.878 14.768,14.836 14.789,14.794 
		14.831,14.752 14.873,14.752 14.894,14.73 14.999,14.688 15.104,14.688 15.293,14.688 15.441,14.71 15.505,14.71 15.441,14.688 
		15.293,14.646 15.209,14.604 15.104,14.541 15.021,14.478 14.957,14.394 14.915,14.352 14.894,14.31 14.894,14.268 14.873,14.226 
		14.873,14.205 14.894,14.162 14.894,14.142 14.915,14.142 14.957,14.121 14.999,14.121 15.021,14.121 15.104,14.142 15.189,14.205 
		15.293,14.289 15.378,14.373 15.441,14.436 15.505,14.521 15.462,14.436 15.42,14.331 15.399,14.226 15.378,14.121 15.378,14.058 
		15.378,14.016 15.399,13.973 15.42,13.952 15.441,13.931 15.483,13.91 15.505,13.931 15.546,13.952 15.589,13.973 15.631,14.016 
		15.651,14.078 15.673,14.121 15.694,14.247 15.715,14.373 15.715,14.521 15.694,14.626 15.673,14.794 15.946,14.836 16.43,14.878 
		16.725,14.899 17.02,14.92 17.335,14.92 	"/>
	<path fill="#F57F31" d="M27.92,9.302l-0.063,0.146L27.92,9.302z"/>
	<polygon fill="#FF7D00" points="25.205,21.443 25.079,21.232 24.953,21.023 24.869,20.813 24.806,20.602 24.743,20.413 
		24.701,20.223 24.679,20.013 24.658,19.844 24.658,19.655 24.679,19.487 24.701,19.297 24.743,19.15 24.785,18.981 24.848,18.834 
		24.911,18.687 24.995,18.561 25.079,18.435 25.185,18.308 25.29,18.203 25.395,18.098 25.521,18.014 25.647,17.93 25.773,17.866 
		25.9,17.803 26.047,17.761 26.173,17.719 26.321,17.698 26.468,17.698 26.615,17.698 26.763,17.719 26.91,17.74 27.058,17.782 
		27.184,17.824 27.289,17.866 27.394,17.93 27.52,17.992 27.626,18.077 27.73,18.161 27.836,18.245 27.941,18.351 28.046,18.477 
		28.13,18.603 28.214,18.75 28.32,18.897 28.383,19.066 28.467,19.255 28.53,19.466 28.614,19.697 28.657,19.886 28.699,20.097 
		28.72,20.329 28.72,20.561 28.72,21.043 28.72,21.275 28.699,21.527 28.657,21.781 28.614,22.033 28.572,22.285 28.53,22.518 
		28.467,22.77 28.383,23.001 28.236,23.464 28.088,23.822 27.962,24.053 28.783,24.537 29.772,25.146 30.235,25.441 30.677,25.736 
		30.867,25.863 31.035,25.988 31.308,26.2 31.414,26.305 31.498,26.41 31.561,26.494 31.582,26.579 31.603,26.663 31.603,26.727 
		31.603,26.789 31.582,26.852 31.54,26.895 31.498,26.936 31.414,26.999 31.329,27.041 31.308,27.041 31.287,27.041 30.993,26.936 
		30.467,26.705 29.772,26.368 29.015,25.969 28.236,25.568 27.562,25.168 27.289,25 27.058,24.832 26.91,24.706 26.847,24.643 
		26.826,24.6 26.826,24.516 26.826,24.453 26.847,24.411 26.889,24.348 26.931,24.285 26.973,24.2 26.994,24.116 27.015,24.031 
		26.994,23.844 26.973,23.758 26.931,23.652 26.847,23.441 26.721,23.232 26.573,23.021 26.405,22.813 26.215,22.602 26.047,22.391 
		25.689,22.012 25.395,21.675 25.269,21.549 	"/>
	<polygon fill="#FF7D00" points="24.49,25.021 24.427,25.084 24.322,25.126 24.027,25.23 23.69,25.336 23.333,25.42 22.954,25.505 
		22.617,25.568 22.133,25.652 21.228,25.8 20.407,25.926 19.355,26.072 19.334,26.072 19.292,26.072 19.208,26.031 19.166,25.988 
		19.124,25.947 19.082,25.904 19.061,25.863 19.039,25.8 19.019,25.736 19.039,25.673 19.061,25.609 19.103,25.547 19.166,25.463 
		19.25,25.4 19.355,25.316 19.439,25.273 19.523,25.23 19.629,25.189 19.734,25.146 19.987,25.063 20.26,25 20.576,24.938 
		20.891,24.874 21.544,24.77 22.238,24.686 22.912,24.6 23.648,24.559 23.354,24.369 23.038,24.18 22.722,23.969 22.406,23.716 
		22.07,23.464 21.754,23.211 21.439,22.917 21.144,22.622 21.018,22.454 20.891,22.307 20.639,21.971 20.534,21.822 20.429,21.654 
		20.345,21.465 20.281,21.296 20.218,21.128 20.155,20.938 20.113,20.771 20.092,20.581 20.092,20.413 20.092,20.223 20.113,20.034 
		20.155,19.865 20.176,19.76 20.218,19.655 20.281,19.466 20.387,19.318 20.492,19.171 20.639,19.066 20.765,18.96 20.85,18.918 
		20.913,18.876 21.081,18.813 21.208,19.002 21.333,19.171 21.481,19.318 21.649,19.466 21.775,19.592 21.944,19.697 22.259,19.929 
		22.596,20.118 22.786,20.202 22.975,20.286 23.164,20.349 23.354,20.413 23.543,20.476 23.732,20.518 23.901,20.561 24.09,20.602 
		24.259,20.623 24.448,20.623 24.469,20.854 24.469,21.086 24.469,21.316 24.448,21.527 24.406,21.738 24.385,21.949 24.301,22.35 
		24.259,22.645 24.237,22.896 24.216,23.127 24.216,23.357 24.216,23.568 24.237,23.779 24.259,23.947 24.279,24.137 24.301,24.243 
		24.343,24.348 24.406,24.579 24.469,24.832 24.49,24.938 	"/>
	<polygon fill="#FFFFFF" points="18.492,8.649 18.514,8.712 18.535,8.754 18.556,8.817 18.598,8.86 18.661,8.923 18.724,8.965 
		18.85,9.049 19.019,9.112 19.208,9.175 19.397,9.217 19.607,9.238 19.86,9.238 19.987,9.217 20.113,9.217 20.218,9.175 
		20.323,9.154 20.429,9.112 20.492,9.091 20.534,9.07 20.618,9.007 20.702,8.965 20.765,8.902 20.85,8.817 20.891,8.754 
		20.934,8.67 20.976,8.586 20.997,8.502 20.997,8.396 20.997,8.292 20.976,8.186 20.955,8.081 20.891,7.997 20.85,7.913 
		20.765,7.85 20.702,7.786 20.597,7.723 20.555,7.702 20.513,7.681 20.407,7.639 20.281,7.597 20.176,7.576 20.049,7.555 
		19.923,7.555 19.776,7.576 19.629,7.597 19.481,7.618 19.355,7.681 19.229,7.723 19.103,7.808 18.998,7.87 18.893,7.955 
		18.809,8.039 18.724,8.123 18.661,8.208 18.598,8.292 18.556,8.375 18.514,8.46 18.492,8.522 18.492,8.586 	"/>
	<path fill="#FFFFFF" d="M20.449,8.396c0,0.337-0.273,0.61-0.61,0.61c-0.357,0-0.631-0.273-0.631-0.61s0.273-0.61,0.631-0.61
		C20.176,7.786,20.449,8.06,20.449,8.396z"/>
	<polygon fill="#FF7D00" points="27.983,10.143 27.856,10.059 27.667,9.954 27.583,9.87 27.5,9.807 27.416,9.722 27.394,9.701 
		27.373,9.659 27.331,9.596 27.31,9.533 27.31,9.47 27.331,9.428 27.373,9.386 27.416,9.386 27.478,9.386 27.562,9.428 
		27.667,9.512 27.752,9.575 27.878,9.764 27.983,9.891 28.004,9.954 27.983,9.891 27.92,9.722 27.899,9.617 27.878,9.491 
		27.878,9.386 27.899,9.259 27.941,9.154 27.962,9.112 27.983,9.091 28.025,9.07 28.046,9.049 28.11,9.049 28.13,9.07 28.152,9.07 
		28.194,9.133 28.236,9.238 28.236,9.344 28.236,9.491 28.236,9.617 28.214,9.722 28.172,9.827 28.278,9.638 28.362,9.533 
		28.446,9.449 28.488,9.407 28.53,9.386 28.594,9.364 28.636,9.364 28.657,9.386 28.699,9.407 28.72,9.428 28.72,9.47 28.72,9.533 
		28.72,9.596 28.657,9.701 28.552,9.807 28.446,9.912 28.214,10.059 28.068,10.143 28.068,10.249 28.068,10.458 28.088,10.69 
		28.068,10.901 28.046,11.111 28.025,11.322 27.983,11.532 27.941,11.721 27.899,11.932 27.836,12.121 27.772,12.311 27.626,12.689 
		27.542,12.858 27.458,13.047 27.247,13.363 27.163,13.51 27.058,13.658 26.826,13.952 26.721,14.058 26.594,14.184 26.363,14.394 
		26.11,14.583 25.857,14.71 25.752,14.773 25.626,14.815 25.5,14.857 25.395,14.878 25.205,14.899 25.016,14.878 24.848,14.857 
		24.679,14.794 24.532,14.73 24.385,14.646 24.259,14.541 24.132,14.415 24.027,14.289 23.943,14.142 23.859,13.994 23.796,13.826 
		23.753,13.658 23.732,13.468 23.732,13.384 23.711,13.279 23.732,13.089 23.753,13.005 23.774,12.921 23.816,12.836 23.859,12.752 
		23.922,12.689 23.985,12.626 24.069,12.584 24.153,12.563 24.637,12.458 25.101,12.353 25.332,12.29 25.563,12.206 25.795,12.121 
		26.005,12.037 26.237,11.911 26.447,11.785 26.657,11.637 26.868,11.49 27.078,11.301 27.268,11.09 27.373,10.985 27.458,10.879 
		27.667,10.627 	"/>
	<polygon fill="#963F1B" points="18.787,8.607 18.787,8.586 18.809,8.522 18.871,8.396 18.977,8.271 19.039,8.208 19.103,8.144 
		19.25,8.018 19.418,7.913 19.565,7.85 19.65,7.85 19.734,7.828 19.839,7.828 19.923,7.85 20.007,7.892 20.092,7.934 20.134,7.997 
		20.197,8.06 20.239,8.123 20.26,8.186 20.281,8.271 20.281,8.354 20.281,8.438 20.281,8.544 20.26,8.649 20.218,8.754 20.155,8.86 
		20.071,8.944 19.923,8.986 19.734,8.986 19.523,8.965 19.439,8.965 19.355,8.944 19.271,8.923 19.208,8.902 19.061,8.838 
		18.955,8.775 18.871,8.712 18.809,8.67 18.787,8.628 	"/>
</g>
<g>
	<polygon fill="#963F1B" points="35.591,33.27 32.999,34.867 35.814,39.674 35.608,39.777 35.488,39.829 35.334,39.88 
		35.162,39.932 34.939,39.966 34.819,39.982 34.664,40 34.338,40 34.184,40 34.029,39.966 33.892,39.932 33.754,39.896 
		33.617,39.829 33.479,39.76 33.359,39.691 33.239,39.588 33.119,39.484 33.016,39.382 32.913,39.262 32.81,39.143 32.707,39.004 
		32.621,38.867 32.432,38.575 31.917,37.631 31.368,36.618 30.733,35.45 30.132,39.691 27.728,39.691 29.016,30.609 31.419,30.609 
		30.801,35.004 33.789,33.253 33.72,33.201 33.668,33.15 33.565,33.012 33.514,32.943 33.479,32.875 33.411,32.721 33.376,32.635 
		33.342,32.549 33.325,32.463 33.325,32.377 33.308,32.292 33.308,32.188 33.325,32.104 33.325,32 33.359,31.846 33.376,31.775 
		33.411,31.689 33.462,31.553 33.531,31.416 33.617,31.277 33.72,31.141 33.823,31.021 33.875,30.969 33.926,30.918 34.063,30.814 
		34.184,30.729 34.252,30.678 34.321,30.643 34.458,30.574 34.544,30.557 34.613,30.523 34.767,30.488 34.922,30.473 35.076,30.454 
		35.248,30.473 35.317,30.473 35.385,30.488 35.471,30.506 35.54,30.523 35.677,30.574 35.797,30.643 35.917,30.729 36.021,30.814 
		36.124,30.918 36.209,31.021 36.278,31.141 36.347,31.277 36.381,31.416 36.398,31.484 36.416,31.553 36.433,31.689 36.433,31.846 
		36.416,32 36.398,32.104 36.381,32.205 36.347,32.309 36.313,32.412 36.261,32.497 36.227,32.6 36.106,32.771 36.055,32.84 
		35.986,32.928 35.866,33.064 35.729,33.184 	"/>
	<path fill="#963F1B" d="M40.69,38.438h-0.068l-0.068-0.017l-0.069-0.019l-0.068-0.033l-0.068-0.034l-0.069-0.052l-0.068-0.051
		l-0.052-0.053l-0.051-0.068l-0.069-0.068l-0.086-0.154L39.867,37.7l-0.086-0.206l-0.069-0.223l-0.017-0.121l-0.035-0.119
		l-0.034-0.275l-0.017-0.275l-0.018-0.291v-0.31l0.018-0.155V35.57l0.035-0.326l0.067-0.327l0.069-0.326l0.069-0.31l0.103-0.291
		l0.104-0.293l0.103-0.256l0.12-0.241l0.138-0.24l0.138-0.206l0.137-0.189l0.155-0.153l0.137-0.138l0.155-0.104l0.171-0.085
		l0.068-0.019l0.086-0.033h0.068l0.086-0.018l0.069,0.018h0.068l0.085,0.033l0.069,0.019l0.051,0.034l0.069,0.051l0.069,0.053
		l0.051,0.051l0.069,0.068l0.051,0.069l0.052,0.085l0.034,0.068l0.103,0.189l0.069,0.206l0.068,0.24l0.017,0.12l0.035,0.121
		l0.034,0.256L42.7,33.99l0.017,0.291v0.31L42.7,34.747v0.171l-0.035,0.327l-0.068,0.325l-0.068,0.311l-0.069,0.309l-0.103,0.293
		l-0.104,0.274l-0.051,0.138l-0.052,0.135l-0.137,0.24l-0.12,0.224L41.755,37.7L41.6,37.889l-0.138,0.154l-0.068,0.068l-0.086,0.068
		l-0.154,0.104L41,38.369l-0.067,0.033l-0.086,0.019l-0.069,0.017H40.69L40.69,38.438z M44.382,39.982l1.186-8.31v-0.12v-0.121
		l-0.018-0.119l-0.017-0.121l-0.051-0.103l-0.035-0.103L45.378,30.9l-0.068-0.086l-0.068-0.086l-0.086-0.068l-0.085-0.051
		l-0.104-0.053l-0.103-0.051l-0.103-0.018l-0.12-0.016l-0.12-0.019L44.4,30.473l-0.12,0.016l-0.12,0.018l-0.12,0.051l-0.12,0.053
		l-0.103,0.051l-0.104,0.068l-0.086,0.086L43.523,30.9l-0.068,0.086l-0.068,0.103l-0.069,0.103l-0.051,0.121l-0.053,0.119
		l-0.033,0.121l-0.018,0.12l-0.018,0.104l-0.104-0.155l-0.103-0.138l-0.104-0.137l-0.104-0.119l-0.12-0.121l-0.12-0.104L42.356,30.9
		l-0.12-0.086l-0.137-0.086l-0.155-0.068l-0.137-0.069l-0.155-0.051l-0.154-0.034l-0.155-0.018l-0.171-0.016l-0.154-0.019
		l-0.171,0.019l-0.173,0.016l-0.171,0.018l-0.172,0.051l-0.172,0.053l-0.171,0.068l-0.155,0.068l-0.172,0.085l-0.154,0.104
		l-0.171,0.103l-0.154,0.121l-0.155,0.12l-0.292,0.275l-0.138,0.153l-0.138,0.153l-0.137,0.173l-0.12,0.171l-0.12,0.172
		l-0.121,0.189l-0.223,0.395l-0.104,0.206l-0.103,0.224l-0.086,0.205l-0.086,0.223l-0.069,0.224l-0.067,0.239l-0.069,0.224
		l-0.052,0.241l-0.052,0.24l-0.033,0.258l-0.035,0.24l-0.018,0.24l-0.017,0.239v0.224v0.24l0.017,0.223l0.018,0.224l0.035,0.206
		l0.033,0.206l0.052,0.206l0.052,0.205l0.051,0.189l0.069,0.188l0.068,0.188l0.086,0.172l0.086,0.154l0.103,0.172l0.086,0.137
		l0.12,0.154l0.103,0.121l0.121,0.137l0.12,0.104l0.139,0.12l0.119,0.086l0.138,0.086l0.154,0.069l0.138,0.068l0.153,0.051
		l0.173,0.051l0.154,0.035L39.506,40h0.173h0.172l0.171-0.018l0.172-0.033l0.188-0.053l0.172-0.051l0.172-0.068l0.172-0.086
		l0.153-0.084l0.173-0.104l0.153-0.104l0.171-0.119l0.155-0.121l0.154-0.137l0.138-0.154l0.154-0.154l0.137-0.154l0.035,0.154
		l0.034,0.154l0.068,0.137l0.068,0.137l0.086,0.121l0.086,0.121l0.104,0.102l0.12,0.104l0.052,0.051l0.067,0.051l0.12,0.07
		l0.139,0.068l0.153,0.068l0.139,0.052l0.171,0.034L43.884,40h0.173L44.382,39.982z"/>
	<polygon fill="#963F1B" points="20.98,33.818 21.135,33.406 21.29,33.012 21.461,32.652 21.547,32.497 21.633,32.326 
		21.719,32.171 21.822,32.018 21.925,31.879 22.011,31.742 22.234,31.501 22.44,31.277 22.543,31.175 22.663,31.089 22.783,31.004 
		22.886,30.918 23.006,30.85 23.126,30.779 23.247,30.712 23.367,30.66 23.607,30.574 23.728,30.54 23.848,30.506 23.985,30.488 
		24.105,30.473 24.363,30.454 24.518,30.454 24.655,30.473 24.792,30.488 24.912,30.523 25.05,30.557 25.152,30.591 25.358,30.693 
		25.461,30.764 25.547,30.814 25.633,30.883 25.702,30.969 25.839,31.124 25.959,31.295 26.045,31.467 26.131,31.656 26.183,31.846 
		26.217,32.034 26.234,32.205 26.251,32.395 26.234,32.549 26.217,32.721 25.238,39.76 24.929,39.743 24.723,39.743 24.518,39.708 
		24.328,39.656 24.14,39.588 24.054,39.537 23.968,39.502 23.813,39.398 23.659,39.279 23.607,39.21 23.539,39.143 23.47,39.057 
		23.418,38.986 23.315,38.833 23.247,38.661 23.178,38.473 23.161,38.387 23.144,38.283 23.126,38.18 23.109,38.077 23.109,37.871 
		23.109,37.768 23.126,37.665 23.745,33.338 23.796,33.029 23.796,32.943 23.813,32.875 23.813,32.738 23.796,32.669 23.779,32.618 
		23.762,32.566 23.745,32.549 23.728,32.516 23.676,32.48 23.607,32.463 23.539,32.445 23.453,32.445 23.367,32.445 23.298,32.463 
		23.212,32.497 23.126,32.549 23.023,32.6 22.938,32.669 22.834,32.771 22.732,32.875 22.646,32.995 22.543,33.15 22.44,33.305 
		22.354,33.493 22.268,33.699 22.165,33.922 22.079,34.18 22.011,34.438 21.805,35.193 21.65,35.777 21.547,36.223 21.461,36.602 
		21.324,37.253 21.221,37.613 21.101,38.025 21.032,38.232 20.946,38.438 20.843,38.626 20.74,38.814 20.62,38.986 20.5,39.159 
		20.362,39.296 20.225,39.434 20.071,39.57 19.899,39.674 19.727,39.777 19.538,39.846 19.35,39.915 19.144,39.966 18.938,39.982 
		18.731,40 18.577,40 18.422,39.966 18.285,39.932 18.147,39.88 18.027,39.813 17.924,39.727 17.821,39.641 17.718,39.537 
		17.684,39.484 17.649,39.434 17.615,39.365 17.581,39.313 17.529,39.176 17.495,39.057 17.461,38.9 17.461,38.764 17.461,38.609 
		17.478,38.455 17.512,38.3 17.564,38.146 17.615,38.008 17.684,37.871 17.752,37.734 17.839,37.631 17.924,37.512 18.027,37.408 
		18.13,37.322 18.182,37.288 18.25,37.253 18.371,37.186 18.491,37.116 18.628,37.082 18.766,37.047 18.92,37.029 19.075,37.014 
		19.195,37.029 19.298,37.047 19.384,37.064 19.47,37.1 19.624,37.186 19.761,37.271 19.864,37.355 19.899,37.374 19.95,37.391 
		19.984,37.408 20.002,37.391 20.036,37.374 20.053,37.322 20.208,36.857 20.328,36.412 20.448,35.982 20.534,35.57 20.62,35.159 
		20.723,34.729 20.843,34.3 	"/>
	<path fill="#963F1B" d="M17.855,32.943l0.018-0.205v-0.104v-0.104l-0.018-0.102l-0.018-0.104l-0.052-0.223l-0.069-0.207
		l-0.052-0.103l-0.051-0.103l-0.051-0.104l-0.069-0.104l-0.154-0.188l-0.086-0.085l-0.103-0.086l-0.086-0.086l-0.12-0.068
		l-0.12-0.086l-0.12-0.068l-0.137-0.051l-0.138-0.07l-0.154-0.051l-0.155-0.051l-0.154-0.035l-0.188-0.033l-0.172-0.035L15.4,30.473
		l-0.188-0.019h-0.224l-0.24,0.019l-0.24,0.016l-0.239,0.035l-0.225,0.033l-0.239,0.053l-0.224,0.068l-0.206,0.086l-0.223,0.086
		l-0.206,0.103l-0.189,0.103l-0.206,0.12l-0.188,0.138L12.19,31.45l-0.172,0.137l-0.171,0.154l-0.173,0.172l-0.153,0.172
		l-0.155,0.171l-0.137,0.172l-0.139,0.189l-0.119,0.205l-0.12,0.189l-0.104,0.207l-0.103,0.223l-0.104,0.205l-0.086,0.224
		l-0.067,0.224l-0.069,0.223l-0.051,0.224l-0.053,0.239l-0.051,0.224l-0.017,0.241l-0.018,0.223l-0.018,0.223v0.242v0.223
		l0.018,0.205l0.034,0.224l0.034,0.224l0.051,0.205l0.052,0.207l0.069,0.205l0.068,0.189l0.086,0.189l0.086,0.188l0.103,0.172
		l0.104,0.172l0.103,0.171l0.138,0.155l0.119,0.154l0.139,0.138l0.154,0.137l0.153,0.12l0.155,0.12l0.172,0.103l0.171,0.104
		l0.189,0.086l0.188,0.068l0.104,0.035l0.086,0.033l0.206,0.053l0.206,0.051l0.224,0.033l0.223,0.019h0.224h0.412l0.188-0.019
		l0.172-0.017l0.172-0.019l0.138-0.016l0.154-0.018l0.12-0.035l0.138-0.034l0.103-0.034l0.206-0.068l0.189-0.086l0.153-0.086
		l0.12-0.086l0.104-0.086l0.103-0.086l0.069-0.103l0.067-0.086l0.053-0.103l0.052-0.104l0.017-0.104l0.051-0.188v-0.085v-0.086
		l-0.017-0.172L16.5,38.061l-0.258,0.154l-0.086,0.034L16.07,38.3l-0.206,0.087l-0.12,0.034l-0.121,0.052l-0.137,0.033l-0.154,0.018
		l-0.155,0.035l-0.153,0.017l-0.189,0.017h-0.188l-0.206-0.017h-0.104l-0.103-0.035l-0.086-0.017l-0.104-0.035l-0.085-0.033
		l-0.103-0.034l-0.086-0.052l-0.086-0.051l-0.155-0.121l-0.068-0.068l-0.086-0.068l-0.068-0.086l-0.052-0.086l-0.068-0.103
		L13.134,37.7l-0.103-0.224l-0.035-0.121l-0.034-0.119L12.928,37.1l-0.018-0.121l-0.034-0.154v-0.137l-0.018-0.154v-0.174
		l0.018-0.342l0.034-0.361h0.274l0.274-0.018l0.275-0.017l0.257-0.017l0.24-0.035l0.241-0.034l0.239-0.052l0.12-0.016l0.104-0.035
		l0.223-0.052l0.206-0.052l0.412-0.154l0.172-0.068l0.188-0.086l0.172-0.086l0.153-0.086l0.154-0.103l0.155-0.086l0.258-0.224
		l0.12-0.103l0.103-0.12l0.104-0.104l0.103-0.119l0.086-0.139l0.068-0.119l0.069-0.121l0.051-0.137l0.052-0.138l0.034-0.12
		l0.018-0.138L17.855,32.943L17.855,32.943z M13.014,34.712l0.017-0.241l0.051-0.24l0.052-0.256l0.069-0.275l0.068-0.258
		l0.103-0.258l0.052-0.137l0.052-0.119l0.103-0.242l0.138-0.24l0.138-0.205l0.067-0.104l0.069-0.086l0.086-0.086l0.085-0.085
		l0.086-0.069l0.086-0.068l0.104-0.051l0.086-0.035l0.103-0.051l0.104-0.018l0.103-0.018h0.104h0.086l0.067,0.018l0.069,0.018
		l0.069,0.033l0.051,0.034l0.052,0.052l0.051,0.053l0.034,0.068l0.035,0.068l0.017,0.051V32l0.034,0.086l0.018,0.104v0.103v0.12
		v0.24l-0.034,0.137l-0.034,0.172L15.4,33.115l-0.068,0.172l-0.086,0.172l-0.103,0.171l-0.12,0.173l-0.069,0.086l-0.086,0.086
		l-0.154,0.137l-0.086,0.086l-0.103,0.068l-0.086,0.068l-0.104,0.051l-0.223,0.12l-0.12,0.035l-0.12,0.051l-0.137,0.035
		l-0.138,0.034l-0.138,0.018l-0.137,0.016l-0.155,0.019H13.014z"/>
	<path fill="#963F1B" d="M8.361,36.359l-0.12,0.326l-0.069,0.172l-0.067,0.154l-0.069,0.155L7.95,37.32l-0.086,0.154L7.778,37.63
		l-0.104,0.155l-0.103,0.137l-0.104,0.139l-0.119,0.137l-0.12,0.119l-0.12,0.139l-0.12,0.12l-0.137,0.103l-0.139,0.12L6.559,38.9
		l-0.139,0.104L6.267,39.09l-0.172,0.086L5.94,39.262l-0.172,0.069L5.596,39.4l-0.172,0.068L5.236,39.52L5.047,39.57l-0.188,0.035
		L4.67,39.641l-0.206,0.016l-0.206,0.018H4.052H2.403h-0.91H0l1.504-11.201l0.023-0.078l0.052-0.172l0.068-0.188l0.086-0.155
		l0.086-0.154l0.085-0.138l0.104-0.12l0.053-0.051l0.067-0.053l0.104-0.068l0.137-0.051l0.258-0.104l0.12-0.033h0.068l0.068-0.019
		l0.258-0.034l0.103-0.017h0.12l0.172-0.017h0.172h5.271v0.086l-0.034,0.188L8.91,27.416l-0.034,0.12l-0.052,0.12l-0.051,0.086
		L8.67,27.879l-0.103,0.12l-0.121,0.086L8.31,28.154L8.241,28.17l-0.069,0.035l-0.153,0.033H7.949l-0.086,0.018H7.691h-3.76
		l-0.464,3.571l0.138-0.138l0.137-0.137l0.137-0.137l0.139-0.121l0.309-0.223l0.137-0.086l0.154-0.104l0.154-0.068l0.172-0.068
		l0.154-0.068l0.154-0.052l0.171-0.035l0.155-0.034l0.171-0.017h0.154h0.172l0.172,0.017l0.154,0.034l0.172,0.035l0.155,0.067
		l0.137,0.053l0.154,0.068l0.14,0.086l0.138,0.104l0.12,0.104l0.068,0.052l0.069,0.067l0.119,0.121l0.104,0.137l0.103,0.138
		l0.206,0.31l0.086,0.172l0.085,0.17l0.069,0.189l0.068,0.189l0.051,0.188l0.069,0.207L8.55,33.27l0.035,0.207l0.034,0.223
		l0.018,0.24l0.018,0.24v0.24v0.241l-0.018,0.257l-0.034,0.258L8.567,35.45l-0.035,0.223l-0.034,0.241l-0.052,0.223l-0.068,0.223
		H8.361L8.361,36.359z M2.558,38.506h0.687h0.258l0.138-0.033l0.119-0.018l0.12-0.035l0.104-0.033l0.121-0.052l0.103-0.034
		l0.104-0.068l0.103-0.051l0.189-0.139l0.171-0.154l0.086-0.086l0.085-0.086l0.069-0.086l0.068-0.086l0.138-0.188l0.137-0.207
		l0.12-0.205l0.052-0.104l0.052-0.104l0.085-0.205l0.086-0.206L5.82,36.12l0.068-0.343L5.94,35.45l0.034-0.326l0.017-0.326
		l0.017-0.31l-0.017-0.291l-0.017-0.154v-0.137l-0.018-0.12l-0.034-0.138l-0.018-0.121l-0.034-0.119l-0.051-0.24l-0.052-0.104
		L5.734,32.96L5.7,32.875l-0.051-0.104l-0.104-0.153l-0.051-0.069L5.442,32.48L5.373,32.43l-0.051-0.052l-0.137-0.086l-0.069-0.019
		L5.047,32.24H4.979l-0.086-0.018L4.772,32.24l-0.138,0.033l-0.138,0.07L4.36,32.43l-0.138,0.102l-0.12,0.121L3.964,32.79
		l-0.119,0.171l-0.12,0.172l-0.12,0.206l-0.104,0.206l-0.103,0.223L3.295,34.01L3.21,34.266l-0.086,0.258l-0.067,0.258L2.558,38.506
		z"/>
</g>
</svg>
