<?xml version="1.0" encoding="UTF-8"?>
<!DOCTYPE svg PUBLIC "-//W3C//DTD SVG 1.1//EN" "http://www.w3.org/Graphics/SVG/1.1/DTD/svg11.dtd">
<!-- Creator: CorelDRAW X8 -->
<svg xmlns="http://www.w3.org/2000/svg" xml:space="preserve" width="13.5334mm" height="10.2mm" version="1.1" style="shape-rendering:geometricPrecision; text-rendering:geometricPrecision; image-rendering:optimizeQuality; fill-rule:evenodd; clip-rule:evenodd"
viewBox="0 0 1320 995"
 xmlns:xlink="http://www.w3.org/1999/xlink">
 <defs>
  <style type="text/css">
   <![CDATA[
    .fil0 {fill:#963F1B}
   ]]>
  </style>
 </defs>
 <g id="Layer_x0020_1">
  <metadata id="CorelCorpID_0Corel-Layer"/>
  <path class="fil0" d="M0 0l1320 0 0 995 -1320 0 0 -995zm461 498l-409 -409 0 817 409 -408zm362 37l-109 108c-8,8 -16,13 -25,17 -8,4 -18,6 -28,6 -11,0 -20,-2 -29,-6 -10,-4 -18,-9 -25,-17l-109 -108 -409 408 1143 0 -409 -408zm37 -37l408 408 0 -817 -408 409zm-771 -446l555 556c3,2 5,3 7,4 3,1 6,2 9,2 4,0 7,-1 10,-2 2,-1 5,-2 7,-4l555 -556 -1143 0z"/>
 </g>
</svg>
