<?xml version="1.0" encoding="utf-8"?>
<!-- Generator: Adobe Illustrator 15.1.0, SVG Export Plug-In . SVG Version: 6.00 Build 0)  -->
<!DOCTYPE svg PUBLIC "-//W3C//DTD SVG 1.1//EN" "http://www.w3.org/Graphics/SVG/1.1/DTD/svg11.dtd">
<svg version="1.1" id="Layer_1" xmlns="http://www.w3.org/2000/svg" xmlns:xlink="http://www.w3.org/1999/xlink" x="0px" y="0px"
	 width="38.363px" height="28.914px" viewBox="0 0 38.363 28.914" enable-background="new 0 0 38.363 28.914" xml:space="preserve">
<g id="Layer_x0020_1">
	<path fill="#FF7D00" d="M0.002,0H38.36v28.914H0.002V0z M13.399,14.471L1.514,2.587v23.74L13.399,14.471z M23.917,15.547
		l-3.167,3.138c-0.232,0.232-0.465,0.378-0.727,0.494c-0.232,0.116-0.522,0.175-0.813,0.175c-0.319,0-0.581-0.059-0.843-0.175
		c-0.29-0.116-0.522-0.262-0.727-0.494l-3.167-3.138L2.589,27.402h33.213L23.917,15.547z M24.994,14.471l11.855,11.855V2.587
		L24.994,14.471z M2.589,1.511l16.127,16.156c0.087,0.058,0.146,0.087,0.203,0.116c0.088,0.029,0.175,0.059,0.262,0.059
		c0.116,0,0.204-0.029,0.291-0.059c0.058-0.029,0.146-0.059,0.203-0.116L35.802,1.511H2.589z"/>
</g>
</svg>
