<?xml version="1.0" encoding="utf-8"?>
<!-- Generator: Adobe Illustrator 15.1.0, SVG Export Plug-In . SVG Version: 6.00 Build 0)  -->
<!DOCTYPE svg PUBLIC "-//W3C//DTD SVG 1.1//EN" "http://www.w3.org/Graphics/SVG/1.1/DTD/svg11.dtd">
<svg version="1.1" id="Layer_1" xmlns="http://www.w3.org/2000/svg" xmlns:xlink="http://www.w3.org/1999/xlink" x="0px" y="0px"
	 width="14.29px" height="20px" viewBox="0 0 14.29 20" enable-background="new 0 0 14.29 20" xml:space="preserve">
<path fill="#FF7D00" d="M7.396,0.004C3.336-0.132,0,3.119,0,7.15c0,4.575,4.39,7.894,6.85,12.668c0.125,0.242,0.475,0.242,0.6,0
	c2.226-4.297,6.03-7.176,6.735-11.315C14.915,4.221,11.738,0.151,7.396,0.004z M7.149,10.895c-2.068,0-3.745-1.674-3.745-3.745
	c0-2.069,1.677-3.745,3.745-3.745c2.068,0,3.746,1.677,3.746,3.745C10.895,9.218,9.217,10.895,7.149,10.895z"/>
</svg>
