<?xml version="1.0" encoding="utf-8"?>
<!-- Generator: Adobe Illustrator 15.1.0, SVG Export Plug-In . SVG Version: 6.00 Build 0)  -->
<!DOCTYPE svg PUBLIC "-//W3C//DTD SVG 1.1//EN" "http://www.w3.org/Graphics/SVG/1.1/DTD/svg11.dtd">
<svg version="1.1" id="Capa_1" xmlns="http://www.w3.org/2000/svg" xmlns:xlink="http://www.w3.org/1999/xlink" x="0px" y="0px"
	 width="39.376px" height="39.375px" viewBox="-8.668 -8.917 39.376 39.375" enable-background="new -8.668 -8.917 39.376 39.375"
	 xml:space="preserve">
<g>
	<g>
		<g>
			<path fill="#963F1B" d="M11.02,30.458c-10.856,0-19.688-8.832-19.688-19.687c0-10.856,8.832-19.688,19.688-19.688
				s19.688,8.832,19.688,19.688C30.708,21.626,21.876,30.458,11.02,30.458z M11.02-6.916c-9.753,0-17.688,7.935-17.688,17.688
				c0,9.753,7.935,17.687,17.688,17.687c9.751,0,17.688-7.934,17.688-17.687C28.708,1.018,20.773-6.916,11.02-6.916z"/>
		</g>
		<g>
			<path fill="#963F1B" d="M21.218,19.103l-2.979-3.689c-0.248-0.307-0.771-0.553-1.166-0.547l-1.258,0.023
				c-1.078,0.621-3.188,1.535-6.106-3.521C6.792,6.314,8.638,4.944,9.715,4.322l0.649-1.077c0.203-0.339,0.252-0.916,0.112-1.284
				L8.768-2.463c-0.142-0.37-0.577-0.61-0.963-0.539L5.709-2.617C1.647-0.269,1.614,6.755,5.636,13.722
				c4.024,6.969,10.123,10.453,14.188,8.105l1.381-1.623C21.458,19.906,21.464,19.409,21.218,19.103z"/>
		</g>
	</g>
</g>
</svg>
