<?xml version="1.0" encoding="utf-8"?>
<!-- Generator: Adobe Illustrator 15.1.0, SVG Export Plug-In . SVG Version: 6.00 Build 0)  -->
<!DOCTYPE svg PUBLIC "-//W3C//DTD SVG 1.1//EN" "http://www.w3.org/Graphics/SVG/1.1/DTD/svg11.dtd">
<svg version="1.1" id="Capa_1" xmlns="http://www.w3.org/2000/svg" xmlns:xlink="http://www.w3.org/1999/xlink" x="0px" y="0px"
	 width="39.375px" height="39.375px" viewBox="0 0 39.375 39.375" enable-background="new 0 0 39.375 39.375" xml:space="preserve">
<g>
	<g>
		<g>
			<path fill="#FF7D00" d="M19.688,39.375C8.832,39.375,0,30.543,0,19.688C0,8.832,8.832,0,19.688,0
				c10.855,0,19.688,8.832,19.688,19.688C39.375,30.543,30.543,39.375,19.688,39.375z M19.688,2.001C9.935,2.001,2,9.936,2,19.689
				c0,9.753,7.935,17.687,17.688,17.687c9.751,0,17.688-7.934,17.688-17.687C37.375,9.935,29.441,2.001,19.688,2.001z"/>
		</g>
		<g>
			<path fill="#FF7D00" d="M29.885,28.02l-2.979-3.688c-0.248-0.308-0.771-0.554-1.166-0.547l-1.258,0.022
				c-1.078,0.621-3.188,1.535-6.106-3.521c-2.917-5.055-1.071-6.425,0.006-7.047l0.649-1.077c0.203-0.339,0.252-0.916,0.112-1.284
				l-1.708-4.424c-0.142-0.37-0.577-0.61-0.963-0.539L14.377,6.3c-4.062,2.348-4.095,9.372-0.073,16.339
				c4.024,6.97,10.122,10.453,14.188,8.105l1.381-1.623C30.125,28.822,30.131,28.326,29.885,28.02z"/>
		</g>
	</g>
</g>
</svg>
